<?xml version="1.0" encoding="UTF-8" standalone="no"?>
<!DOCTYPE svg PUBLIC "-//W3C//DTD SVG 1.1//EN"
 "http://www.w3.org/Graphics/SVG/1.1/DTD/svg11.dtd">
<!-- Generated by graphviz version 6.0.2 (20221011.1828)
 -->
<!-- Title: src/travelexpense/src/budgetManager.cpp Pages: 1 -->
<svg width="356pt" height="203pt"
 viewBox="0.00 0.00 356.47 203.00" xmlns="http://www.w3.org/2000/svg" xmlns:xlink="http://www.w3.org/1999/xlink">
<g id="graph0" class="graph" transform="scale(1 1) rotate(0) translate(4 199)">
<title>src/travelexpense/src/budgetManager.cpp</title>
<!-- Node1 -->
<g id="Node000001" class="node">
<title>Node1</title>
<g id="a_Node000001"><a xlink:title="Seyahat Gideri Takibi &#45; Bütçe Yönetimi Implementation.">
<polygon fill="#999999" stroke="#666666" points="300,-195 191,-195 191,-165 300,-165 300,-195"/>
<text text-anchor="start" x="199" y="-183" font-family="Helvetica,sans-Serif" font-size="10.00">src/travelexpense/src</text>
<text text-anchor="middle" x="245.5" y="-172" font-family="Helvetica,sans-Serif" font-size="10.00">/budgetManager.cpp</text>
</a>
</g>
</g>
<!-- Node2 -->
<g id="Node000002" class="node">
<title>Node2</title>
<g id="a_Node000002"><a xlink:href="budget_manager_8h.html" target="_top" xlink:title="Seyahat Gideri Takibi &#45; Bütçe Yönetimi Modülü">
<polygon fill="white" stroke="#666666" points="174,-129 41,-129 41,-110 174,-110 174,-129"/>
<text text-anchor="middle" x="107.5" y="-117" font-family="Helvetica,sans-Serif" font-size="10.00">../header/budgetManager.h</text>
</a>
</g>
</g>
<!-- Node1&#45;&gt;Node2 -->
<g id="edge1_Node000001_Node000002" class="edge">
<title>Node1&#45;&gt;Node2</title>
<g id="a_edge1_Node000001_Node000002"><a xlink:title=" ">
<path fill="none" stroke="#63b8ff" d="M212.45,-164.99C189.52,-155.27 159.26,-142.44 137.12,-133.06"/>
<polygon fill="#63b8ff" stroke="#63b8ff" points="138.45,-129.82 127.88,-129.14 135.72,-136.26 138.45,-129.82"/>
</a>
</g>
</g>
<!-- Node5 -->
<g id="Node000005" class="node">
<title>Node5</title>
<g id="a_Node000005"><a xlink:title=" ">
<polygon fill="#e0e0e0" stroke="#999999" points="41,-19 0,-19 0,0 41,0 41,-19"/>
<text text-anchor="middle" x="20.5" y="-7" font-family="Helvetica,sans-Serif" font-size="10.00">ctime</text>
</a>
</g>
</g>
<!-- Node1&#45;&gt;Node5 -->
<g id="edge15_Node000001_Node000005" class="edge">
<title>Node1&#45;&gt;Node5</title>
<g id="a_edge15_Node000001_Node000005"><a xlink:title=" ">
<path fill="none" stroke="#63b8ff" d="M190.93,-173.47C134.6,-166.56 52.12,-152.66 31.5,-129 7.38,-101.32 11.44,-54.97 16.19,-29.21"/>
<polygon fill="#63b8ff" stroke="#63b8ff" points="19.65,-29.75 18.25,-19.25 12.79,-28.33 19.65,-29.75"/>
</a>
</g>
</g>
<!-- Node6 -->
<g id="Node000006" class="node">
<title>Node6</title>
<g id="a_Node000006"><a xlink:title=" ">
<polygon fill="#e0e0e0" stroke="#999999" points="327.5,-19 281.5,-19 281.5,0 327.5,0 327.5,-19"/>
<text text-anchor="middle" x="304.5" y="-7" font-family="Helvetica,sans-Serif" font-size="10.00">cstring</text>
</a>
</g>
</g>
<!-- Node1&#45;&gt;Node6 -->
<g id="edge14_Node000001_Node000006" class="edge">
<title>Node1&#45;&gt;Node6</title>
<g id="a_edge14_Node000001_Node000006"><a xlink:title=" ">
<path fill="none" stroke="#63b8ff" d="M276.48,-164.81C292.28,-156.29 310.78,-144.15 323.5,-129 340.54,-108.71 341.29,-99.98 346.5,-74 348.16,-65.72 349.62,-62.85 346.5,-55 341.98,-43.63 333.03,-33.48 324.54,-25.76"/>
<polygon fill="#63b8ff" stroke="#63b8ff" points="326.61,-22.92 316.71,-19.14 322.09,-28.27 326.61,-22.92"/>
</a>
</g>
</g>
<!-- Node9 -->
<g id="Node000009" class="node">
<title>Node9</title>
<g id="a_Node000009"><a xlink:href="database_8h.html" target="_top" xlink:title="Seyahat Gideri Takibi &#45; SQLite Veritabanı Yönetimi.">
<polygon fill="white" stroke="#666666" points="298.5,-129 192.5,-129 192.5,-110 298.5,-110 298.5,-129"/>
<text text-anchor="middle" x="245.5" y="-117" font-family="Helvetica,sans-Serif" font-size="10.00">../header/database.h</text>
</a>
</g>
</g>
<!-- Node1&#45;&gt;Node9 -->
<g id="edge8_Node000001_Node000009" class="edge">
<title>Node1&#45;&gt;Node9</title>
<g id="a_edge8_Node000001_Node000009"><a xlink:title=" ">
<path fill="none" stroke="#63b8ff" d="M245.5,-164.84C245.5,-157.21 245.5,-147.7 245.5,-139.45"/>
<polygon fill="#63b8ff" stroke="#63b8ff" points="249,-139.27 245.5,-129.27 242,-139.27 249,-139.27"/>
</a>
</g>
</g>
<!-- Node10 -->
<g id="Node000010" class="node">
<title>Node10</title>
<g id="a_Node000010"><a xlink:title=" ">
<polygon fill="#e0e0e0" stroke="#999999" points="337,-74 284,-74 284,-55 337,-55 337,-74"/>
<text text-anchor="middle" x="310.5" y="-62" font-family="Helvetica,sans-Serif" font-size="10.00">sqlite3.h</text>
</a>
</g>
</g>
<!-- Node1&#45;&gt;Node10 -->
<g id="edge13_Node000001_Node000010" class="edge">
<title>Node1&#45;&gt;Node10</title>
<g id="a_edge13_Node000001_Node000010"><a xlink:title=" ">
<path fill="none" stroke="#63b8ff" d="M272.08,-164.82C285.19,-156.3 299.8,-144.17 307.5,-129 314.45,-115.3 314.73,-97.72 313.54,-84.53"/>
<polygon fill="#63b8ff" stroke="#63b8ff" points="316.97,-83.76 312.24,-74.28 310.02,-84.64 316.97,-83.76"/>
</a>
</g>
</g>
<!-- Node3 -->
<g id="Node000003" class="node">
<title>Node3</title>
<g id="a_Node000003"><a xlink:href="common_types_8h.html" target="_top" xlink:title="Seyahat Gideri Takibi &#45; Ortak Veri Tipleri ve Modelleri.">
<polygon fill="white" stroke="#666666" points="136,-74 47,-74 47,-55 136,-55 136,-74"/>
<text text-anchor="middle" x="91.5" y="-62" font-family="Helvetica,sans-Serif" font-size="10.00">commonTypes.h</text>
</a>
</g>
</g>
<!-- Node2&#45;&gt;Node3 -->
<g id="edge2_Node000002_Node000003" class="edge">
<title>Node2&#45;&gt;Node3</title>
<g id="a_edge2_Node000002_Node000003"><a xlink:title=" ">
<path fill="none" stroke="#63b8ff" d="M104.86,-109.75C102.74,-102.72 99.69,-92.62 97.04,-83.84"/>
<polygon fill="#63b8ff" stroke="#63b8ff" points="100.33,-82.65 94.09,-74.09 93.63,-84.67 100.33,-82.65"/>
</a>
</g>
</g>
<!-- Node8 -->
<g id="Node000008" class="node">
<title>Node8</title>
<g id="a_Node000008"><a xlink:href="export_8h.html" target="_top" xlink:title="Seyahat Gideri Takibi &#45; DLL Export/Import Macros.">
<polygon fill="white" stroke="#666666" points="206.5,-74 154.5,-74 154.5,-55 206.5,-55 206.5,-74"/>
<text text-anchor="middle" x="180.5" y="-62" font-family="Helvetica,sans-Serif" font-size="10.00">export.h</text>
</a>
</g>
</g>
<!-- Node2&#45;&gt;Node8 -->
<g id="edge7_Node000002_Node000008" class="edge">
<title>Node2&#45;&gt;Node8</title>
<g id="a_edge7_Node000002_Node000008"><a xlink:title=" ">
<path fill="none" stroke="#63b8ff" d="M119.23,-109.98C130.23,-102 146.92,-89.88 160.1,-80.31"/>
<polygon fill="#63b8ff" stroke="#63b8ff" points="162.52,-82.88 168.56,-74.17 158.41,-77.21 162.52,-82.88"/>
</a>
</g>
</g>
<!-- Node4 -->
<g id="Node000004" class="node">
<title>Node4</title>
<g id="a_Node000004"><a xlink:title=" ">
<polygon fill="#e0e0e0" stroke="#999999" points="109.5,-19 63.5,-19 63.5,0 109.5,0 109.5,-19"/>
<text text-anchor="middle" x="86.5" y="-7" font-family="Helvetica,sans-Serif" font-size="10.00">cstdint</text>
</a>
</g>
</g>
<!-- Node3&#45;&gt;Node4 -->
<g id="edge3_Node000003_Node000004" class="edge">
<title>Node3&#45;&gt;Node4</title>
<g id="a_edge3_Node000003_Node000004"><a xlink:title=" ">
<path fill="none" stroke="#63b8ff" d="M90.67,-54.75C90.02,-47.8 89.08,-37.85 88.26,-29.13"/>
<polygon fill="#63b8ff" stroke="#63b8ff" points="91.73,-28.72 87.31,-19.09 84.77,-29.37 91.73,-28.72"/>
</a>
</g>
</g>
<!-- Node3&#45;&gt;Node5 -->
<g id="edge4_Node000003_Node000005" class="edge">
<title>Node3&#45;&gt;Node5</title>
<g id="a_edge4_Node000003_Node000005"><a xlink:title=" ">
<path fill="none" stroke="#63b8ff" d="M80.09,-54.98C69.39,-47 53.16,-34.88 40.34,-25.31"/>
<polygon fill="#63b8ff" stroke="#63b8ff" points="42.22,-22.35 32.11,-19.17 38.03,-27.96 42.22,-22.35"/>
</a>
</g>
</g>
<!-- Node3&#45;&gt;Node6 -->
<g id="edge5_Node000003_Node000006" class="edge">
<title>Node3&#45;&gt;Node6</title>
<g id="a_edge5_Node000003_Node000006"><a xlink:title=" ">
<path fill="none" stroke="#63b8ff" d="M125.72,-54.98C165.77,-45.02 231.64,-28.63 271.26,-18.77"/>
<polygon fill="#63b8ff" stroke="#63b8ff" points="272.36,-22.1 281.22,-16.29 270.67,-15.31 272.36,-22.1"/>
</a>
</g>
</g>
<!-- Node7 -->
<g id="Node000007" class="node">
<title>Node7</title>
<g id="a_Node000007"><a xlink:href="error__codes_8h.html" target="_top" xlink:title="Seyahat Gideri Takibi &#45; Hata Kodları Enum&#39;u.">
<polygon fill="white" stroke="#666666" points="203.5,-19 127.5,-19 127.5,0 203.5,0 203.5,-19"/>
<text text-anchor="middle" x="165.5" y="-7" font-family="Helvetica,sans-Serif" font-size="10.00">error_codes.h</text>
</a>
</g>
</g>
<!-- Node3&#45;&gt;Node7 -->
<g id="edge6_Node000003_Node000007" class="edge">
<title>Node3&#45;&gt;Node7</title>
<g id="a_edge6_Node000003_Node000007"><a xlink:title=" ">
<path fill="none" stroke="#63b8ff" d="M103.39,-54.98C114.65,-46.92 131.79,-34.65 145.21,-25.03"/>
<polygon fill="#63b8ff" stroke="#63b8ff" points="147.3,-27.84 153.39,-19.17 143.23,-22.15 147.3,-27.84"/>
</a>
</g>
</g>
<!-- Node9&#45;&gt;Node3 -->
<g id="edge9_Node000009_Node000003" class="edge">
<title>Node9&#45;&gt;Node3</title>
<g id="a_edge9_Node000009_Node000003"><a xlink:title=" ">
<path fill="none" stroke="#63b8ff" d="M220.76,-109.98C195.13,-101.16 154.87,-87.31 126.09,-77.41"/>
<polygon fill="#63b8ff" stroke="#63b8ff" points="127.03,-74.03 116.44,-74.08 124.75,-80.65 127.03,-74.03"/>
</a>
</g>
</g>
<!-- Node9&#45;&gt;Node8 -->
<g id="edge10_Node000009_Node000008" class="edge">
<title>Node9&#45;&gt;Node8</title>
<g id="a_edge10_Node000009_Node000008"><a xlink:title=" ">
<path fill="none" stroke="#63b8ff" d="M235.06,-109.98C225.35,-102.07 210.68,-90.11 199,-80.58"/>
<polygon fill="#63b8ff" stroke="#63b8ff" points="201.1,-77.78 191.13,-74.17 196.67,-83.2 201.1,-77.78"/>
</a>
</g>
</g>
<!-- Node9&#45;&gt;Node10 -->
<g id="edge11_Node000009_Node000010" class="edge">
<title>Node9&#45;&gt;Node10</title>
<g id="a_edge11_Node000009_Node000010"><a xlink:title=" ">
<path fill="none" stroke="#63b8ff" d="M255.94,-109.98C265.65,-102.07 280.32,-90.11 292,-80.58"/>
<polygon fill="#63b8ff" stroke="#63b8ff" points="294.33,-83.2 299.87,-74.17 289.9,-77.78 294.33,-83.2"/>
</a>
</g>
</g>
<!-- Node11 -->
<g id="Node000011" class="node">
<title>Node11</title>
<g id="a_Node000011"><a xlink:title=" ">
<polygon fill="#e0e0e0" stroke="#999999" points="266,-74 225,-74 225,-55 266,-55 266,-74"/>
<text text-anchor="middle" x="245.5" y="-62" font-family="Helvetica,sans-Serif" font-size="10.00">string</text>
</a>
</g>
</g>
<!-- Node9&#45;&gt;Node11 -->
<g id="edge12_Node000009_Node000011" class="edge">
<title>Node9&#45;&gt;Node11</title>
<g id="a_edge12_Node000009_Node000011"><a xlink:title=" ">
<path fill="none" stroke="#63b8ff" d="M245.5,-109.75C245.5,-102.8 245.5,-92.85 245.5,-84.13"/>
<polygon fill="#63b8ff" stroke="#63b8ff" points="249,-84.09 245.5,-74.09 242,-84.09 249,-84.09"/>
</a>
</g>
</g>
</g>
</svg>
