<?xml version="1.0" encoding="UTF-8" standalone="no"?>
<!DOCTYPE svg PUBLIC "-//W3C//DTD SVG 1.1//EN"
 "http://www.w3.org/Graphics/SVG/1.1/DTD/svg11.dtd">
<!-- Generated by graphviz version 6.0.2 (20221011.1828)
 -->
<!-- Title: src/travelexpense/src/codehardening.cpp Pages: 1 -->
<svg width="449pt" height="148pt"
 viewBox="0.00 0.00 448.50 148.00" xmlns="http://www.w3.org/2000/svg" xmlns:xlink="http://www.w3.org/1999/xlink">
<g id="graph0" class="graph" transform="scale(1 1) rotate(0) translate(4 144)">
<title>src/travelexpense/src/codehardening.cpp</title>
<!-- Node1 -->
<g id="Node000001" class="node">
<title>Node1</title>
<g id="a_Node000001"><a xlink:title="Seyahat Gideri Takibi &#45; Kod Sertleştirme Fonksiyonları">
<polygon fill="#999999" stroke="#666666" points="302.5,-140 193.5,-140 193.5,-110 302.5,-110 302.5,-140"/>
<text text-anchor="start" x="201.5" y="-128" font-family="Helvetica,sans-Serif" font-size="10.00">src/travelexpense/src</text>
<text text-anchor="middle" x="248" y="-117" font-family="Helvetica,sans-Serif" font-size="10.00">/codehardening.cpp</text>
</a>
</g>
</g>
<!-- Node2 -->
<g id="Node000002" class="node">
<title>Node2</title>
<g id="a_Node000002"><a xlink:href="codehardening_8h.html" target="_top" xlink:title="Seyahat Gideri Takibi &#45; Kod Sertleştirme Fonksiyonları">
<polygon fill="white" stroke="#666666" points="195,-74 107,-74 107,-55 195,-55 195,-74"/>
<text text-anchor="middle" x="151" y="-62" font-family="Helvetica,sans-Serif" font-size="10.00">codehardening.h</text>
</a>
</g>
</g>
<!-- Node1&#45;&gt;Node2 -->
<g id="edge1_Node000001_Node000002" class="edge">
<title>Node1&#45;&gt;Node2</title>
<g id="a_edge1_Node000001_Node000002"><a xlink:title=" ">
<path fill="none" stroke="#63b8ff" d="M224.52,-109.84C209.2,-100.6 189.29,-88.59 174.05,-79.4"/>
<polygon fill="#63b8ff" stroke="#63b8ff" points="175.62,-76.26 165.25,-74.09 172.01,-82.26 175.62,-76.26"/>
</a>
</g>
</g>
<!-- Node5 -->
<g id="Node000005" class="node">
<title>Node5</title>
<g id="a_Node000005"><a xlink:title=" ">
<polygon fill="#e0e0e0" stroke="#999999" points="246,-19 200,-19 200,0 246,0 246,-19"/>
<text text-anchor="middle" x="223" y="-7" font-family="Helvetica,sans-Serif" font-size="10.00">cstring</text>
</a>
</g>
</g>
<!-- Node1&#45;&gt;Node5 -->
<g id="edge10_Node000001_Node000005" class="edge">
<title>Node1&#45;&gt;Node5</title>
<g id="a_edge10_Node000001_Node000005"><a xlink:title=" ">
<path fill="none" stroke="#63b8ff" d="M244.83,-109.63C240.34,-89.21 232.1,-51.81 227.13,-29.24"/>
<polygon fill="#63b8ff" stroke="#63b8ff" points="230.49,-28.24 224.92,-19.23 223.66,-29.75 230.49,-28.24"/>
</a>
</g>
</g>
<!-- Node7 -->
<g id="Node000007" class="node">
<title>Node7</title>
<g id="a_Node000007"><a xlink:href="security_8h.html" target="_top" xlink:title="Seyahat Gideri Takibi &#45; Güvenlik Fonksiyonları">
<polygon fill="white" stroke="#666666" points="88.5,-74 29.5,-74 29.5,-55 88.5,-55 88.5,-74"/>
<text text-anchor="middle" x="59" y="-62" font-family="Helvetica,sans-Serif" font-size="10.00">security.h</text>
</a>
</g>
</g>
<!-- Node1&#45;&gt;Node7 -->
<g id="edge6_Node000001_Node000007" class="edge">
<title>Node1&#45;&gt;Node7</title>
<g id="a_edge6_Node000001_Node000007"><a xlink:title=" ">
<path fill="none" stroke="#63b8ff" d="M202.73,-109.99C170.25,-99.94 127.01,-86.55 96.47,-77.1"/>
<polygon fill="#63b8ff" stroke="#63b8ff" points="97.22,-73.67 86.63,-74.05 95.15,-80.35 97.22,-73.67"/>
</a>
</g>
</g>
<!-- Node8 -->
<g id="Node000008" class="node">
<title>Node8</title>
<g id="a_Node000008"><a xlink:title=" ">
<polygon fill="#e0e0e0" stroke="#999999" points="296.5,-74 251.5,-74 251.5,-55 296.5,-55 296.5,-74"/>
<text text-anchor="middle" x="274" y="-62" font-family="Helvetica,sans-Serif" font-size="10.00">cstdlib</text>
</a>
</g>
</g>
<!-- Node1&#45;&gt;Node8 -->
<g id="edge9_Node000001_Node000008" class="edge">
<title>Node1&#45;&gt;Node8</title>
<g id="a_edge9_Node000001_Node000008"><a xlink:title=" ">
<path fill="none" stroke="#63b8ff" d="M254.29,-109.84C257.8,-101.95 262.2,-92.05 265.95,-83.61"/>
<polygon fill="#63b8ff" stroke="#63b8ff" points="269.24,-84.83 270.1,-74.27 262.84,-81.98 269.24,-84.83"/>
</a>
</g>
</g>
<!-- Node9 -->
<g id="Node000009" class="node">
<title>Node9</title>
<g id="a_Node000009"><a xlink:title=" ">
<polygon fill="#e0e0e0" stroke="#999999" points="371,-74 315,-74 315,-55 371,-55 371,-74"/>
<text text-anchor="middle" x="343" y="-62" font-family="Helvetica,sans-Serif" font-size="10.00">algorithm</text>
</a>
</g>
</g>
<!-- Node1&#45;&gt;Node9 -->
<g id="edge11_Node000001_Node000009" class="edge">
<title>Node1&#45;&gt;Node9</title>
<g id="a_edge11_Node000001_Node000009"><a xlink:title=" ">
<path fill="none" stroke="#63b8ff" d="M271,-109.84C286,-100.6 305.5,-88.59 320.43,-79.4"/>
<polygon fill="#63b8ff" stroke="#63b8ff" points="322.36,-82.32 329.04,-74.09 318.69,-76.36 322.36,-82.32"/>
</a>
</g>
</g>
<!-- Node10 -->
<g id="Node000010" class="node">
<title>Node10</title>
<g id="a_Node000010"><a xlink:title=" ">
<polygon fill="#e0e0e0" stroke="#999999" points="440.5,-74 389.5,-74 389.5,-55 440.5,-55 440.5,-74"/>
<text text-anchor="middle" x="415" y="-62" font-family="Helvetica,sans-Serif" font-size="10.00">unistd.h</text>
</a>
</g>
</g>
<!-- Node1&#45;&gt;Node10 -->
<g id="edge12_Node000001_Node000010" class="edge">
<title>Node1&#45;&gt;Node10</title>
<g id="a_edge12_Node000001_Node000010"><a xlink:title=" ">
<path fill="none" stroke="#63b8ff" d="M288,-109.99C316.24,-100.1 353.68,-86.98 380.58,-77.56"/>
<polygon fill="#63b8ff" stroke="#63b8ff" points="382.06,-80.75 390.34,-74.14 379.74,-74.14 382.06,-80.75"/>
</a>
</g>
</g>
<!-- Node3 -->
<g id="Node000003" class="node">
<title>Node3</title>
<g id="a_Node000003"><a xlink:title=" ">
<polygon fill="#e0e0e0" stroke="#999999" points="48,-19 0,-19 0,0 48,0 48,-19"/>
<text text-anchor="middle" x="24" y="-7" font-family="Helvetica,sans-Serif" font-size="10.00">cstddef</text>
</a>
</g>
</g>
<!-- Node2&#45;&gt;Node3 -->
<g id="edge2_Node000002_Node000003" class="edge">
<title>Node2&#45;&gt;Node3</title>
<g id="a_edge2_Node000002_Node000003"><a xlink:title=" ">
<path fill="none" stroke="#63b8ff" d="M130.6,-54.98C109.98,-46.38 77.89,-32.99 54.31,-23.15"/>
<polygon fill="#63b8ff" stroke="#63b8ff" points="55.35,-19.79 44.78,-19.17 52.66,-26.25 55.35,-19.79"/>
</a>
</g>
</g>
<!-- Node4 -->
<g id="Node000004" class="node">
<title>Node4</title>
<g id="a_Node000004"><a xlink:title=" ">
<polygon fill="#e0e0e0" stroke="#999999" points="182,-19 136,-19 136,0 182,0 182,-19"/>
<text text-anchor="middle" x="159" y="-7" font-family="Helvetica,sans-Serif" font-size="10.00">cstdint</text>
</a>
</g>
</g>
<!-- Node2&#45;&gt;Node4 -->
<g id="edge3_Node000002_Node000004" class="edge">
<title>Node2&#45;&gt;Node4</title>
<g id="a_edge3_Node000002_Node000004"><a xlink:title=" ">
<path fill="none" stroke="#63b8ff" d="M152.32,-54.75C153.37,-47.8 154.87,-37.85 156.19,-29.13"/>
<polygon fill="#63b8ff" stroke="#63b8ff" points="159.67,-29.5 157.7,-19.09 152.75,-28.45 159.67,-29.5"/>
</a>
</g>
</g>
<!-- Node2&#45;&gt;Node5 -->
<g id="edge4_Node000002_Node000005" class="edge">
<title>Node2&#45;&gt;Node5</title>
<g id="a_edge4_Node000002_Node000005"><a xlink:title=" ">
<path fill="none" stroke="#63b8ff" d="M162.57,-54.98C173.42,-47 189.88,-34.88 202.88,-25.31"/>
<polygon fill="#63b8ff" stroke="#63b8ff" points="205.24,-27.92 211.22,-19.17 201.09,-22.28 205.24,-27.92"/>
</a>
</g>
</g>
<!-- Node6 -->
<g id="Node000006" class="node">
<title>Node6</title>
<g id="a_Node000006"><a xlink:href="export_8h.html" target="_top" xlink:title="Seyahat Gideri Takibi &#45; DLL Export/Import Macros.">
<polygon fill="white" stroke="#666666" points="118,-19 66,-19 66,0 118,0 118,-19"/>
<text text-anchor="middle" x="92" y="-7" font-family="Helvetica,sans-Serif" font-size="10.00">export.h</text>
</a>
</g>
</g>
<!-- Node2&#45;&gt;Node6 -->
<g id="edge5_Node000002_Node000006" class="edge">
<title>Node2&#45;&gt;Node6</title>
<g id="a_edge5_Node000002_Node000006"><a xlink:title=" ">
<path fill="none" stroke="#63b8ff" d="M141.52,-54.98C132.8,-47.15 119.66,-35.34 109.1,-25.86"/>
<polygon fill="#63b8ff" stroke="#63b8ff" points="111.43,-23.25 101.65,-19.17 106.75,-28.46 111.43,-23.25"/>
</a>
</g>
</g>
<!-- Node7&#45;&gt;Node3 -->
<g id="edge7_Node000007_Node000003" class="edge">
<title>Node7&#45;&gt;Node3</title>
<g id="a_edge7_Node000007_Node000003"><a xlink:title=" ">
<path fill="none" stroke="#63b8ff" d="M53.22,-54.75C48.38,-47.42 41.32,-36.73 35.36,-27.7"/>
<polygon fill="#63b8ff" stroke="#63b8ff" points="38.1,-25.5 29.67,-19.09 32.26,-29.36 38.1,-25.5"/>
</a>
</g>
</g>
<!-- Node7&#45;&gt;Node6 -->
<g id="edge8_Node000007_Node000006" class="edge">
<title>Node7&#45;&gt;Node6</title>
<g id="a_edge8_Node000007_Node000006"><a xlink:title=" ">
<path fill="none" stroke="#63b8ff" d="M64.45,-54.75C69.01,-47.42 75.67,-36.73 81.29,-27.7"/>
<polygon fill="#63b8ff" stroke="#63b8ff" points="84.34,-29.43 86.65,-19.09 78.4,-25.73 84.34,-29.43"/>
</a>
</g>
</g>
</g>
</svg>
