<?xml version="1.0" encoding="UTF-8" standalone="no"?>
<!DOCTYPE svg PUBLIC "-//W3C//DTD SVG 1.1//EN"
 "http://www.w3.org/Graphics/SVG/1.1/DTD/svg11.dtd">
<!-- Generated by graphviz version 6.0.2 (20221011.1828)
 -->
<!-- Title: src/travelexpense/header/commonTypes.h Pages: 1 -->
<svg width="1982pt" height="170pt"
 viewBox="0.00 0.00 1982.00 170.00" xmlns="http://www.w3.org/2000/svg" xmlns:xlink="http://www.w3.org/1999/xlink">
<g id="graph0" class="graph" transform="scale(1 1) rotate(0) translate(4 166)">
<title>src/travelexpense/header/commonTypes.h</title>
<!-- Node1 -->
<g id="Node000001" class="node">
<title>Node1</title>
<g id="a_Node000001"><a xlink:title="Seyahat Gideri Takibi &#45; Ortak Veri Tipleri ve Modelleri.">
<polygon fill="#999999" stroke="#666666" points="1148,-162 1023,-162 1023,-132 1148,-132 1148,-162"/>
<text text-anchor="start" x="1031" y="-150" font-family="Helvetica,sans-Serif" font-size="10.00">src/travelexpense/header</text>
<text text-anchor="middle" x="1085.5" y="-139" font-family="Helvetica,sans-Serif" font-size="10.00">/commonTypes.h</text>
</a>
</g>
</g>
<!-- Node2 -->
<g id="Node000002" class="node">
<title>Node2</title>
<g id="a_Node000002"><a xlink:href="asset_manager_8h.html" target="_top" xlink:title="Seyahat Gideri Takibi &#45; Varlık Yönetimi.">
<polygon fill="white" stroke="#666666" points="362,-96 237,-96 237,-66 362,-66 362,-96"/>
<text text-anchor="start" x="245" y="-84" font-family="Helvetica,sans-Serif" font-size="10.00">src/travelexpense/header</text>
<text text-anchor="middle" x="299.5" y="-73" font-family="Helvetica,sans-Serif" font-size="10.00">/assetManager.h</text>
</a>
</g>
</g>
<!-- Node1&#45;&gt;Node2 -->
<g id="edge1_Node000001_Node000002" class="edge">
<title>Node1&#45;&gt;Node2</title>
<g id="a_edge1_Node000001_Node000002"><a xlink:title=" ">
<path fill="none" stroke="#63b8ff" d="M1012.38,-143.9C882.62,-139.5 603.79,-127.03 370.5,-96 367.76,-95.64 364.97,-95.23 362.15,-94.79"/>
<polygon fill="#63b8ff" stroke="#63b8ff" points="1012.48,-147.41 1022.59,-144.24 1012.71,-140.41 1012.48,-147.41"/>
</a>
</g>
</g>
<!-- Node3 -->
<g id="Node000003" class="node">
<title>Node3</title>
<g id="a_Node000003"><a xlink:href="travelexpense_8h.html" target="_top" xlink:title="Seyahat Gideri Takibi &#45; Ana Kütüphane Header Dosyası">
<polygon fill="white" stroke="#666666" points="1195,-30 1070,-30 1070,0 1195,0 1195,-30"/>
<text text-anchor="start" x="1078" y="-18" font-family="Helvetica,sans-Serif" font-size="10.00">src/travelexpense/header</text>
<text text-anchor="middle" x="1132.5" y="-7" font-family="Helvetica,sans-Serif" font-size="10.00">/travelexpense.h</text>
</a>
</g>
</g>
<!-- Node1&#45;&gt;Node3 -->
<g id="edge44_Node000001_Node000003" class="edge">
<title>Node1&#45;&gt;Node3</title>
<g id="a_edge44_Node000001_Node000003"><a xlink:title=" ">
<path fill="none" stroke="#63b8ff" d="M1158.21,-143.65C1234.06,-139.49 1345.63,-127.95 1372.5,-96 1381.08,-85.79 1380.91,-76.34 1372.5,-66 1361.29,-52.21 1262.57,-35.14 1195.29,-24.93"/>
<polygon fill="#63b8ff" stroke="#63b8ff" points="1158.03,-140.16 1148.22,-144.17 1158.39,-147.15 1158.03,-140.16"/>
</a>
</g>
</g>
<!-- Node5 -->
<g id="Node000005" class="node">
<title>Node5</title>
<g id="a_Node000005"><a xlink:href="budget_manager_8h.html" target="_top" xlink:title="Seyahat Gideri Takibi &#45; Bütçe Yönetimi Modülü">
<polygon fill="white" stroke="#666666" points="934,-96 809,-96 809,-66 934,-66 934,-96"/>
<text text-anchor="start" x="817" y="-84" font-family="Helvetica,sans-Serif" font-size="10.00">src/travelexpense/header</text>
<text text-anchor="middle" x="871.5" y="-73" font-family="Helvetica,sans-Serif" font-size="10.00">/budgetManager.h</text>
</a>
</g>
</g>
<!-- Node1&#45;&gt;Node5 -->
<g id="edge4_Node000001_Node000005" class="edge">
<title>Node1&#45;&gt;Node5</title>
<g id="a_edge4_Node000001_Node000005"><a xlink:title=" ">
<path fill="none" stroke="#63b8ff" d="M1028.62,-128.99C994.19,-118.69 950.8,-105.72 918.35,-96.01"/>
<polygon fill="#63b8ff" stroke="#63b8ff" points="1027.95,-132.44 1038.54,-131.95 1029.96,-125.74 1027.95,-132.44"/>
</a>
</g>
</g>
<!-- Node8 -->
<g id="Node000008" class="node">
<title>Node8</title>
<g id="a_Node000008"><a xlink:href="database_8h.html" target="_top" xlink:title="Seyahat Gideri Takibi &#45; SQLite Veritabanı Yönetimi.">
<polygon fill="white" stroke="#666666" points="219,-96 94,-96 94,-66 219,-66 219,-96"/>
<text text-anchor="start" x="102" y="-84" font-family="Helvetica,sans-Serif" font-size="10.00">src/travelexpense/header</text>
<text text-anchor="middle" x="156.5" y="-73" font-family="Helvetica,sans-Serif" font-size="10.00">/database.h</text>
</a>
</g>
</g>
<!-- Node1&#45;&gt;Node8 -->
<g id="edge8_Node000001_Node000008" class="edge">
<title>Node1&#45;&gt;Node8</title>
<g id="a_edge8_Node000001_Node000008"><a xlink:title=" ">
<path fill="none" stroke="#63b8ff" d="M1012.45,-145.1C863.99,-142.53 516.6,-132.75 227.5,-96 224.76,-95.65 221.96,-95.26 219.14,-94.83"/>
<polygon fill="#63b8ff" stroke="#63b8ff" points="1012.73,-148.6 1022.79,-145.27 1012.85,-141.6 1012.73,-148.6"/>
</a>
</g>
</g>
<!-- Node14 -->
<g id="Node000014" class="node">
<title>Node14</title>
<g id="a_Node000014"><a xlink:href="expense_manager_8h.html" target="_top" xlink:title="Seyahat Gideri Takibi &#45; Gider Yönetimi Modülü">
<polygon fill="white" stroke="#666666" points="791,-96 666,-96 666,-66 791,-66 791,-96"/>
<text text-anchor="start" x="674" y="-84" font-family="Helvetica,sans-Serif" font-size="10.00">src/travelexpense/header</text>
<text text-anchor="middle" x="728.5" y="-73" font-family="Helvetica,sans-Serif" font-size="10.00">/expenseManager.h</text>
</a>
</g>
</g>
<!-- Node1&#45;&gt;Node14 -->
<g id="edge17_Node000001_Node000014" class="edge">
<title>Node1&#45;&gt;Node14</title>
<g id="a_edge17_Node000001_Node000014"><a xlink:title=" ">
<path fill="none" stroke="#63b8ff" d="M1012.8,-133.74C954.95,-123.87 871.96,-109.48 799.5,-96 796.78,-95.49 794.01,-94.97 791.21,-94.44"/>
<polygon fill="#63b8ff" stroke="#63b8ff" points="1012.5,-137.24 1022.94,-135.46 1013.67,-130.33 1012.5,-137.24"/>
</a>
</g>
</g>
<!-- Node15 -->
<g id="Node000015" class="node">
<title>Node15</title>
<g id="a_Node000015"><a xlink:href="fingerprinting_8h.html" target="_top" xlink:title="Seyahat Gideri Takibi &#45; Cihaz ve Uygulama Fingerprinting.">
<polygon fill="white" stroke="#666666" points="1545,-96 1420,-96 1420,-66 1545,-66 1545,-96"/>
<text text-anchor="start" x="1428" y="-84" font-family="Helvetica,sans-Serif" font-size="10.00">src/travelexpense/header</text>
<text text-anchor="middle" x="1482.5" y="-73" font-family="Helvetica,sans-Serif" font-size="10.00">/fingerprinting.h</text>
</a>
</g>
</g>
<!-- Node1&#45;&gt;Node15 -->
<g id="edge21_Node000001_Node000015" class="edge">
<title>Node1&#45;&gt;Node15</title>
<g id="a_edge21_Node000001_Node000015"><a xlink:title=" ">
<path fill="none" stroke="#63b8ff" d="M1158.25,-135.16C1223.16,-125.36 1320.77,-110.32 1405.5,-96 1410.19,-95.21 1415.04,-94.37 1419.91,-93.51"/>
<polygon fill="#63b8ff" stroke="#63b8ff" points="1157.48,-131.74 1148.12,-136.69 1158.53,-138.66 1157.48,-131.74"/>
</a>
</g>
</g>
<!-- Node17 -->
<g id="Node000017" class="node">
<title>Node17</title>
<g id="a_Node000017"><a xlink:href="helpers_8h.html" target="_top" xlink:title="Seyahat Gideri Takibi &#45; Yard─▒mc─▒ Fonksiyonlar.">
<polygon fill="white" stroke="#666666" points="1363,-96 1238,-96 1238,-66 1363,-66 1363,-96"/>
<text text-anchor="start" x="1246" y="-84" font-family="Helvetica,sans-Serif" font-size="10.00">src/travelexpense/header</text>
<text text-anchor="middle" x="1300.5" y="-73" font-family="Helvetica,sans-Serif" font-size="10.00">/helpers.h</text>
</a>
</g>
</g>
<!-- Node1&#45;&gt;Node17 -->
<g id="edge24_Node000001_Node000017" class="edge">
<title>Node1&#45;&gt;Node17</title>
<g id="a_edge24_Node000001_Node000017"><a xlink:title=" ">
<path fill="none" stroke="#63b8ff" d="M1142.65,-128.99C1177.24,-118.69 1220.83,-105.72 1253.43,-96.01"/>
<polygon fill="#63b8ff" stroke="#63b8ff" points="1141.27,-125.75 1132.68,-131.95 1143.27,-132.46 1141.27,-125.75"/>
</a>
</g>
</g>
<!-- Node19 -->
<g id="Node000019" class="node">
<title>Node19</title>
<g id="a_Node000019"><a xlink:href="migration_8h.html" target="_top" xlink:title="Seyahat Gideri Takibi &#45; Binary → SQLite Migration Fonksiyonları">
<polygon fill="white" stroke="#666666" points="505,-96 380,-96 380,-66 505,-66 505,-96"/>
<text text-anchor="start" x="388" y="-84" font-family="Helvetica,sans-Serif" font-size="10.00">src/travelexpense/header</text>
<text text-anchor="middle" x="442.5" y="-73" font-family="Helvetica,sans-Serif" font-size="10.00">/migration.h</text>
</a>
</g>
</g>
<!-- Node1&#45;&gt;Node19 -->
<g id="edge28_Node000001_Node000019" class="edge">
<title>Node1&#45;&gt;Node19</title>
<g id="a_edge28_Node000001_Node000019"><a xlink:title=" ">
<path fill="none" stroke="#63b8ff" d="M1012.39,-142.13C903.34,-135.79 691.82,-121.3 513.5,-96 510.76,-95.61 507.97,-95.19 505.16,-94.73"/>
<polygon fill="#63b8ff" stroke="#63b8ff" points="1012.43,-145.64 1022.61,-142.72 1012.83,-138.65 1012.43,-145.64"/>
</a>
</g>
</g>
<!-- Node20 -->
<g id="Node000020" class="node">
<title>Node20</title>
<g id="a_Node000020"><a xlink:href="report_generator_8h.html" target="_top" xlink:title="Seyahat Gideri Takibi &#45; Rapor Oluşturma Modülü">
<polygon fill="white" stroke="#666666" points="1220,-96 1095,-96 1095,-66 1220,-66 1220,-96"/>
<text text-anchor="start" x="1103" y="-84" font-family="Helvetica,sans-Serif" font-size="10.00">src/travelexpense/header</text>
<text text-anchor="middle" x="1157.5" y="-73" font-family="Helvetica,sans-Serif" font-size="10.00">/reportGenerator.h</text>
</a>
</g>
</g>
<!-- Node1&#45;&gt;Node20 -->
<g id="edge31_Node000001_Node000020" class="edge">
<title>Node1&#45;&gt;Node20</title>
<g id="a_edge31_Node000001_Node000020"><a xlink:title=" ">
<path fill="none" stroke="#63b8ff" d="M1109.21,-124.92C1119.83,-115.49 1132.07,-104.61 1141.57,-96.16"/>
<polygon fill="#63b8ff" stroke="#63b8ff" points="1106.63,-122.54 1101.48,-131.8 1111.28,-127.77 1106.63,-122.54"/>
</a>
</g>
</g>
<!-- Node21 -->
<g id="Node000021" class="node">
<title>Node21</title>
<g id="a_Node000021"><a xlink:href="session_manager_8h.html" target="_top" xlink:title="Seyahat Gideri Takibi &#45; Oturum Yönetimi ve İletim Güvenliği.">
<polygon fill="white" stroke="#666666" points="1688,-96 1563,-96 1563,-66 1688,-66 1688,-96"/>
<text text-anchor="start" x="1571" y="-84" font-family="Helvetica,sans-Serif" font-size="10.00">src/travelexpense/header</text>
<text text-anchor="middle" x="1625.5" y="-73" font-family="Helvetica,sans-Serif" font-size="10.00">/sessionManager.h</text>
</a>
</g>
</g>
<!-- Node1&#45;&gt;Node21 -->
<g id="edge34_Node000001_Node000021" class="edge">
<title>Node1&#45;&gt;Node21</title>
<g id="a_edge34_Node000001_Node000021"><a xlink:title=" ">
<path fill="none" stroke="#63b8ff" d="M1158.4,-140.24C1250.85,-132.48 1415.01,-117.15 1554.5,-96 1557.23,-95.59 1560.02,-95.14 1562.83,-94.67"/>
<polygon fill="#63b8ff" stroke="#63b8ff" points="1157.99,-136.76 1148.31,-141.08 1158.57,-143.74 1157.99,-136.76"/>
</a>
</g>
</g>
<!-- Node23 -->
<g id="Node000023" class="node">
<title>Node23</title>
<g id="a_Node000023"><a xlink:href="softhsm_8h.html" target="_top" xlink:title="Seyahat Gideri Takibi &#45; SoftHSM (PKCS#11) Entegrasyonu.">
<polygon fill="white" stroke="#666666" points="1831,-96 1706,-96 1706,-66 1831,-66 1831,-96"/>
<text text-anchor="start" x="1714" y="-84" font-family="Helvetica,sans-Serif" font-size="10.00">src/travelexpense/header</text>
<text text-anchor="middle" x="1768.5" y="-73" font-family="Helvetica,sans-Serif" font-size="10.00">/softhsm.h</text>
</a>
</g>
</g>
<!-- Node1&#45;&gt;Node23 -->
<g id="edge38_Node000001_Node000023" class="edge">
<title>Node1&#45;&gt;Node23</title>
<g id="a_edge38_Node000001_Node000023"><a xlink:title=" ">
<path fill="none" stroke="#63b8ff" d="M1158.4,-142.72C1273.4,-136.94 1503.78,-122.92 1697.5,-96 1700.24,-95.62 1703.03,-95.2 1705.85,-94.75"/>
<polygon fill="#63b8ff" stroke="#63b8ff" points="1158.12,-139.23 1148.31,-143.22 1158.47,-146.22 1158.12,-139.23"/>
</a>
</g>
</g>
<!-- Node25 -->
<g id="Node000025" class="node">
<title>Node25</title>
<g id="a_Node000025"><a xlink:href="tls_8h.html" target="_top" xlink:title="Seyahat Gideri Takibi &#45; SSL/TLS ve Certificate Pinning.">
<polygon fill="white" stroke="#666666" points="1974,-96 1849,-96 1849,-66 1974,-66 1974,-96"/>
<text text-anchor="start" x="1857" y="-84" font-family="Helvetica,sans-Serif" font-size="10.00">src/travelexpense/header</text>
<text text-anchor="middle" x="1911.5" y="-73" font-family="Helvetica,sans-Serif" font-size="10.00">/tls.h</text>
</a>
</g>
</g>
<!-- Node1&#45;&gt;Node25 -->
<g id="edge41_Node000001_Node000025" class="edge">
<title>Node1&#45;&gt;Node25</title>
<g id="a_edge41_Node000001_Node000025"><a xlink:title=" ">
<path fill="none" stroke="#63b8ff" d="M1158.64,-144.28C1293.82,-140.4 1591.7,-128.63 1840.5,-96 1843.24,-95.64 1846.03,-95.24 1848.85,-94.81"/>
<polygon fill="#63b8ff" stroke="#63b8ff" points="1158.31,-140.79 1148.41,-144.57 1158.5,-147.78 1158.31,-140.79"/>
</a>
</g>
</g>
<!-- Node27 -->
<g id="Node000027" class="node">
<title>Node27</title>
<g id="a_Node000027"><a xlink:href="trip_manager_8h.html" target="_top" xlink:title="Seyahat Gideri Takibi &#45; Seyahat Yönetimi Modülü">
<polygon fill="white" stroke="#666666" points="648,-96 523,-96 523,-66 648,-66 648,-96"/>
<text text-anchor="start" x="531" y="-84" font-family="Helvetica,sans-Serif" font-size="10.00">src/travelexpense/header</text>
<text text-anchor="middle" x="585.5" y="-73" font-family="Helvetica,sans-Serif" font-size="10.00">/tripManager.h</text>
</a>
</g>
</g>
<!-- Node1&#45;&gt;Node27 -->
<g id="edge45_Node000001_Node000027" class="edge">
<title>Node1&#45;&gt;Node27</title>
<g id="a_edge45_Node000001_Node000027"><a xlink:title=" ">
<path fill="none" stroke="#63b8ff" d="M1012.64,-139.27C927.1,-130.96 781.08,-115.51 656.5,-96 653.77,-95.57 650.98,-95.11 648.17,-94.64"/>
<polygon fill="#63b8ff" stroke="#63b8ff" points="1012.48,-142.77 1022.77,-140.25 1013.15,-135.8 1012.48,-142.77"/>
</a>
</g>
</g>
<!-- Node28 -->
<g id="Node000028" class="node">
<title>Node28</title>
<g id="a_Node000028"><a xlink:href="user_auth_8h.html" target="_top" xlink:title="Seyahat Gideri Takibi &#45; Kullanıcı Kimlik Doğrulama Modülü">
<polygon fill="white" stroke="#666666" points="1077,-96 952,-96 952,-66 1077,-66 1077,-96"/>
<text text-anchor="start" x="960" y="-84" font-family="Helvetica,sans-Serif" font-size="10.00">src/travelexpense/header</text>
<text text-anchor="middle" x="1014.5" y="-73" font-family="Helvetica,sans-Serif" font-size="10.00">/userAuth.h</text>
</a>
</g>
</g>
<!-- Node1&#45;&gt;Node28 -->
<g id="edge49_Node000001_Node000028" class="edge">
<title>Node1&#45;&gt;Node28</title>
<g id="a_edge49_Node000001_Node000028"><a xlink:title=" ">
<path fill="none" stroke="#63b8ff" d="M1062.12,-124.92C1051.65,-115.49 1039.58,-104.61 1030.21,-96.16"/>
<polygon fill="#63b8ff" stroke="#63b8ff" points="1059.97,-127.7 1069.74,-131.8 1064.66,-122.5 1059.97,-127.7"/>
</a>
</g>
</g>
<!-- Node2&#45;&gt;Node3 -->
<g id="edge2_Node000002_Node000003" class="edge">
<title>Node2&#45;&gt;Node3</title>
<g id="a_edge2_Node000002_Node000003"><a xlink:title=" ">
<path fill="none" stroke="#63b8ff" d="M372.29,-65.89C654.91,-30.91 729.97,-53.97 1010.5,-30 1029.83,-28.35 1050.83,-26.1 1069.88,-23.89"/>
<polygon fill="#63b8ff" stroke="#63b8ff" points="371.63,-62.44 362.14,-67.16 372.5,-69.39 371.63,-62.44"/>
</a>
</g>
</g>
<!-- Node4 -->
<g id="Node000004" class="node">
<title>Node4</title>
<g id="a_Node000004"><a xlink:href="asset_manager_8cpp.html" target="_top" xlink:title="Seyahat Gideri Takibi &#45; Varlık Yönetimi Implementation.">
<polygon fill="white" stroke="#666666" points="236,-30 127,-30 127,0 236,0 236,-30"/>
<text text-anchor="start" x="135" y="-18" font-family="Helvetica,sans-Serif" font-size="10.00">src/travelexpense/src</text>
<text text-anchor="middle" x="181.5" y="-7" font-family="Helvetica,sans-Serif" font-size="10.00">/assetManager.cpp</text>
</a>
</g>
</g>
<!-- Node2&#45;&gt;Node4 -->
<g id="edge3_Node000002_Node000004" class="edge">
<title>Node2&#45;&gt;Node4</title>
<g id="a_edge3_Node000002_Node000004"><a xlink:title=" ">
<path fill="none" stroke="#63b8ff" d="M264.66,-61.11C246.3,-51.14 224.15,-39.13 207.34,-30.01"/>
<polygon fill="#63b8ff" stroke="#63b8ff" points="263.15,-64.26 273.6,-65.95 266.48,-58.11 263.15,-64.26"/>
</a>
</g>
</g>
<!-- Node5&#45;&gt;Node3 -->
<g id="edge5_Node000005_Node000003" class="edge">
<title>Node5&#45;&gt;Node3</title>
<g id="a_edge5_Node000005_Node000003"><a xlink:title=" ">
<path fill="none" stroke="#63b8ff" d="M938.72,-63.52C981.05,-53.14 1035.1,-39.88 1075.36,-30.01"/>
<polygon fill="#63b8ff" stroke="#63b8ff" points="937.66,-60.17 928.78,-65.95 939.32,-66.97 937.66,-60.17"/>
</a>
</g>
</g>
<!-- Node6 -->
<g id="Node000006" class="node">
<title>Node6</title>
<g id="a_Node000006"><a xlink:href="budget_manager_8cpp.html" target="_top" xlink:title="Seyahat Gideri Takibi &#45; Bütçe Yönetimi Implementation.">
<polygon fill="white" stroke="#666666" points="748,-30 639,-30 639,0 748,0 748,-30"/>
<text text-anchor="start" x="647" y="-18" font-family="Helvetica,sans-Serif" font-size="10.00">src/travelexpense/src</text>
<text text-anchor="middle" x="693.5" y="-7" font-family="Helvetica,sans-Serif" font-size="10.00">/budgetManager.cpp</text>
</a>
</g>
</g>
<!-- Node5&#45;&gt;Node6 -->
<g id="edge6_Node000005_Node000006" class="edge">
<title>Node5&#45;&gt;Node6</title>
<g id="a_edge6_Node000005_Node000006"><a xlink:title=" ">
<path fill="none" stroke="#63b8ff" d="M822.71,-62.46C794.31,-52.25 759,-39.55 732.47,-30.01"/>
<polygon fill="#63b8ff" stroke="#63b8ff" points="821.84,-65.86 832.44,-65.95 824.21,-59.28 821.84,-65.86"/>
</a>
</g>
</g>
<!-- Node7 -->
<g id="Node000007" class="node">
<title>Node7</title>
<g id="a_Node000007"><a xlink:href="report_generator_8cpp.html" target="_top" xlink:title="Seyahat Gideri Takibi &#45; Rapor Oluşturma Implementation.">
<polygon fill="white" stroke="#666666" points="1002,-30 893,-30 893,0 1002,0 1002,-30"/>
<text text-anchor="start" x="901" y="-18" font-family="Helvetica,sans-Serif" font-size="10.00">src/travelexpense/src</text>
<text text-anchor="middle" x="947.5" y="-7" font-family="Helvetica,sans-Serif" font-size="10.00">/reportGenerator.cpp</text>
</a>
</g>
</g>
<!-- Node5&#45;&gt;Node7 -->
<g id="edge7_Node000005_Node000007" class="edge">
<title>Node5&#45;&gt;Node7</title>
<g id="a_edge7_Node000005_Node000007"><a xlink:title=" ">
<path fill="none" stroke="#63b8ff" d="M896.2,-59.2C907.48,-49.7 920.55,-38.69 930.68,-30.16"/>
<polygon fill="#63b8ff" stroke="#63b8ff" points="893.76,-56.68 888.37,-65.8 898.27,-62.03 893.76,-56.68"/>
</a>
</g>
</g>
<!-- Node8&#45;&gt;Node3 -->
<g id="edge9_Node000008_Node000003" class="edge">
<title>Node8&#45;&gt;Node3</title>
<g id="a_edge9_Node000008_Node000003"><a xlink:title=" ">
<path fill="none" stroke="#63b8ff" d="M229.19,-65.92C575.08,-24.82 666.56,-57.61 1010.5,-30 1029.84,-28.45 1050.84,-26.23 1069.89,-24.02"/>
<polygon fill="#63b8ff" stroke="#63b8ff" points="228.65,-62.46 219.14,-67.12 229.48,-69.41 228.65,-62.46"/>
</a>
</g>
</g>
<!-- Node8&#45;&gt;Node4 -->
<g id="edge10_Node000008_Node000004" class="edge">
<title>Node8&#45;&gt;Node4</title>
<g id="a_edge10_Node000008_Node000004"><a xlink:title=" ">
<path fill="none" stroke="#63b8ff" d="M165.72,-56.39C169.16,-47.59 172.96,-37.86 175.97,-30.16"/>
<polygon fill="#63b8ff" stroke="#63b8ff" points="162.43,-55.21 162.05,-65.8 168.95,-57.76 162.43,-55.21"/>
</a>
</g>
</g>
<!-- Node8&#45;&gt;Node6 -->
<g id="edge11_Node000008_Node000006" class="edge">
<title>Node8&#45;&gt;Node6</title>
<g id="a_edge11_Node000008_Node000006"><a xlink:title=" ">
<path fill="none" stroke="#63b8ff" d="M229.1,-65.87C406.82,-41.2 455.4,-56.73 629.5,-30 632.54,-29.53 635.64,-29.01 638.77,-28.45"/>
<polygon fill="#63b8ff" stroke="#63b8ff" points="228.57,-62.41 219.16,-67.27 229.55,-69.34 228.57,-62.41"/>
</a>
</g>
</g>
<!-- Node9 -->
<g id="Node000009" class="node">
<title>Node9</title>
<g id="a_Node000009"><a xlink:href="database_8cpp.html" target="_top" xlink:title="Seyahat Gideri Takibi &#45; SQLite Veritabanı Yönetimi Implementation.">
<polygon fill="white" stroke="#666666" points="109,-30 0,-30 0,0 109,0 109,-30"/>
<text text-anchor="start" x="8" y="-18" font-family="Helvetica,sans-Serif" font-size="10.00">src/travelexpense/src</text>
<text text-anchor="middle" x="54.5" y="-7" font-family="Helvetica,sans-Serif" font-size="10.00">/database.cpp</text>
</a>
</g>
</g>
<!-- Node8&#45;&gt;Node9 -->
<g id="edge12_Node000008_Node000009" class="edge">
<title>Node8&#45;&gt;Node9</title>
<g id="a_edge12_Node000008_Node000009"><a xlink:title=" ">
<path fill="none" stroke="#63b8ff" d="M125.29,-60.42C109.64,-50.6 91.04,-38.93 76.83,-30.01"/>
<polygon fill="#63b8ff" stroke="#63b8ff" points="123.78,-63.6 134.12,-65.95 127.51,-57.68 123.78,-63.6"/>
</a>
</g>
</g>
<!-- Node10 -->
<g id="Node000010" class="node">
<title>Node10</title>
<g id="a_Node000010"><a xlink:href="expense_manager_8cpp.html" target="_top" xlink:title="Seyahat Gideri Takibi &#45; Gider Yönetimi Implementation.">
<polygon fill="white" stroke="#666666" points="621,-30 508,-30 508,0 621,0 621,-30"/>
<text text-anchor="start" x="516" y="-18" font-family="Helvetica,sans-Serif" font-size="10.00">src/travelexpense/src</text>
<text text-anchor="middle" x="564.5" y="-7" font-family="Helvetica,sans-Serif" font-size="10.00">/expenseManager.cpp</text>
</a>
</g>
</g>
<!-- Node8&#45;&gt;Node10 -->
<g id="edge13_Node000008_Node000010" class="edge">
<title>Node8&#45;&gt;Node10</title>
<g id="a_edge13_Node000008_Node000010"><a xlink:title=" ">
<path fill="none" stroke="#63b8ff" d="M229.12,-65.8C349.1,-46.45 381.92,-50.08 498.5,-30 501.5,-29.48 504.57,-28.93 507.67,-28.34"/>
<polygon fill="#63b8ff" stroke="#63b8ff" points="228.49,-62.35 219.18,-67.42 229.61,-69.26 228.49,-62.35"/>
</a>
</g>
</g>
<!-- Node11 -->
<g id="Node000011" class="node">
<title>Node11</title>
<g id="a_Node000011"><a xlink:href="migration_8cpp.html" target="_top" xlink:title="Seyahat Gideri Takibi &#45; Binary → SQLite Migration Implementation.">
<polygon fill="white" stroke="#666666" points="363,-30 254,-30 254,0 363,0 363,-30"/>
<text text-anchor="start" x="262" y="-18" font-family="Helvetica,sans-Serif" font-size="10.00">src/travelexpense/src</text>
<text text-anchor="middle" x="308.5" y="-7" font-family="Helvetica,sans-Serif" font-size="10.00">/migration.cpp</text>
</a>
</g>
</g>
<!-- Node8&#45;&gt;Node11 -->
<g id="edge14_Node000008_Node000011" class="edge">
<title>Node8&#45;&gt;Node11</title>
<g id="a_edge14_Node000008_Node000011"><a xlink:title=" ">
<path fill="none" stroke="#63b8ff" d="M199.12,-62.05C223.2,-51.91 252.86,-39.43 275.22,-30.01"/>
<polygon fill="#63b8ff" stroke="#63b8ff" points="197.72,-58.85 189.86,-65.95 200.43,-65.3 197.72,-58.85"/>
</a>
</g>
</g>
<!-- Node12 -->
<g id="Node000012" class="node">
<title>Node12</title>
<g id="a_Node000012"><a xlink:href="trip_manager_8cpp.html" target="_top" xlink:title="Seyahat Gideri Takibi &#45; Seyahat Yönetimi Implementation.">
<polygon fill="white" stroke="#666666" points="490,-30 381,-30 381,0 490,0 490,-30"/>
<text text-anchor="start" x="389" y="-18" font-family="Helvetica,sans-Serif" font-size="10.00">src/travelexpense/src</text>
<text text-anchor="middle" x="435.5" y="-7" font-family="Helvetica,sans-Serif" font-size="10.00">/tripManager.cpp</text>
</a>
</g>
</g>
<!-- Node8&#45;&gt;Node12 -->
<g id="edge15_Node000008_Node000012" class="edge">
<title>Node8&#45;&gt;Node12</title>
<g id="a_edge15_Node000008_Node000012"><a xlink:title=" ">
<path fill="none" stroke="#63b8ff" d="M227.65,-63.68C275.19,-52.77 336.79,-38.64 380.56,-28.6"/>
<polygon fill="#63b8ff" stroke="#63b8ff" points="226.69,-60.31 217.73,-65.95 228.26,-67.13 226.69,-60.31"/>
</a>
</g>
</g>
<!-- Node13 -->
<g id="Node000013" class="node">
<title>Node13</title>
<g id="a_Node000013"><a xlink:href="user_auth_8cpp.html" target="_top" xlink:title="Seyahat Gideri Takibi &#45; Kullanıcı Kimlik Doğrulama Implementation.">
<polygon fill="white" stroke="#666666" points="875,-30 766,-30 766,0 875,0 875,-30"/>
<text text-anchor="start" x="774" y="-18" font-family="Helvetica,sans-Serif" font-size="10.00">src/travelexpense/src</text>
<text text-anchor="middle" x="820.5" y="-7" font-family="Helvetica,sans-Serif" font-size="10.00">/userAuth.cpp</text>
</a>
</g>
</g>
<!-- Node8&#45;&gt;Node13 -->
<g id="edge16_Node000008_Node000013" class="edge">
<title>Node8&#45;&gt;Node13</title>
<g id="a_edge16_Node000008_Node000013"><a xlink:title=" ">
<path fill="none" stroke="#63b8ff" d="M229.32,-65.87C462.92,-35.93 526.51,-62.8 756.5,-30 759.54,-29.57 762.65,-29.07 765.78,-28.52"/>
<polygon fill="#63b8ff" stroke="#63b8ff" points="228.61,-62.44 219.15,-67.2 229.52,-69.38 228.61,-62.44"/>
</a>
</g>
</g>
<!-- Node14&#45;&gt;Node3 -->
<g id="edge18_Node000014_Node000003" class="edge">
<title>Node14&#45;&gt;Node3</title>
<g id="a_edge18_Node000014_Node000003"><a xlink:title=" ">
<path fill="none" stroke="#63b8ff" d="M801.09,-65.77C900.39,-48.69 1004.88,-33.59 1069.76,-24.55"/>
<polygon fill="#63b8ff" stroke="#63b8ff" points="800.45,-62.32 791.19,-67.48 801.64,-69.22 800.45,-62.32"/>
</a>
</g>
</g>
<!-- Node14&#45;&gt;Node7 -->
<g id="edge20_Node000014_Node000007" class="edge">
<title>Node14&#45;&gt;Node7</title>
<g id="a_edge20_Node000014_Node000007"><a xlink:title=" ">
<path fill="none" stroke="#63b8ff" d="M786.26,-63.12C821.57,-52.8 866.2,-39.76 899.55,-30.01"/>
<polygon fill="#63b8ff" stroke="#63b8ff" points="785.18,-59.79 776.56,-65.95 787.14,-66.51 785.18,-59.79"/>
</a>
</g>
</g>
<!-- Node14&#45;&gt;Node10 -->
<g id="edge19_Node000014_Node000010" class="edge">
<title>Node14&#45;&gt;Node10</title>
<g id="a_edge19_Node000014_Node000010"><a xlink:title=" ">
<path fill="none" stroke="#63b8ff" d="M682.86,-62.19C656.81,-52.02 624.63,-39.47 600.41,-30.01"/>
<polygon fill="#63b8ff" stroke="#63b8ff" points="681.92,-65.58 692.51,-65.95 684.47,-59.06 681.92,-65.58"/>
</a>
</g>
</g>
<!-- Node15&#45;&gt;Node3 -->
<g id="edge22_Node000015_Node000003" class="edge">
<title>Node15&#45;&gt;Node3</title>
<g id="a_edge22_Node000015_Node000003"><a xlink:title=" ">
<path fill="none" stroke="#63b8ff" d="M1410,-66.74C1346.58,-55.15 1255.42,-38.48 1195.12,-27.45"/>
<polygon fill="#63b8ff" stroke="#63b8ff" points="1409.46,-70.2 1419.93,-68.56 1410.72,-63.32 1409.46,-70.2"/>
</a>
</g>
</g>
<!-- Node16 -->
<g id="Node000016" class="node">
<title>Node16</title>
<g id="a_Node000016"><a xlink:href="fingerprinting_8cpp.html" target="_top" xlink:title="Seyahat Gideri Takibi &#45; Cihaz ve Uygulama Fingerprinting Implementation.">
<polygon fill="white" stroke="#666666" points="1544,-30 1435,-30 1435,0 1544,0 1544,-30"/>
<text text-anchor="start" x="1443" y="-18" font-family="Helvetica,sans-Serif" font-size="10.00">src/travelexpense/src</text>
<text text-anchor="middle" x="1489.5" y="-7" font-family="Helvetica,sans-Serif" font-size="10.00">/fingerprinting.cpp</text>
</a>
</g>
</g>
<!-- Node15&#45;&gt;Node16 -->
<g id="edge23_Node000015_Node000016" class="edge">
<title>Node15&#45;&gt;Node16</title>
<g id="a_edge23_Node000015_Node000016"><a xlink:title=" ">
<path fill="none" stroke="#63b8ff" d="M1485.14,-55.83C1486.09,-47.17 1487.13,-37.7 1487.95,-30.16"/>
<polygon fill="#63b8ff" stroke="#63b8ff" points="1481.66,-55.48 1484.05,-65.8 1488.62,-56.24 1481.66,-55.48"/>
</a>
</g>
</g>
<!-- Node17&#45;&gt;Node3 -->
<g id="edge25_Node000017_Node000003" class="edge">
<title>Node17&#45;&gt;Node3</title>
<g id="a_edge25_Node000017_Node000003"><a xlink:title=" ">
<path fill="none" stroke="#63b8ff" d="M1254.1,-62.32C1227.36,-52.14 1194.21,-39.51 1169.28,-30.01"/>
<polygon fill="#63b8ff" stroke="#63b8ff" points="1253.04,-65.67 1263.63,-65.95 1255.53,-59.12 1253.04,-65.67"/>
</a>
</g>
</g>
<!-- Node17&#45;&gt;Node7 -->
<g id="edge27_Node000017_Node000007" class="edge">
<title>Node17&#45;&gt;Node7</title>
<g id="a_edge27_Node000017_Node000007"><a xlink:title=" ">
<path fill="none" stroke="#63b8ff" d="M1227.65,-65.86C1143.06,-50.16 1056.71,-34.96 1002.2,-25.47"/>
<polygon fill="#63b8ff" stroke="#63b8ff" points="1227.21,-69.34 1237.68,-67.72 1228.49,-62.46 1227.21,-69.34"/>
</a>
</g>
</g>
<!-- Node18 -->
<g id="Node000018" class="node">
<title>Node18</title>
<g id="a_Node000018"><a xlink:href="helpers_8cpp.html" target="_top" xlink:title="Seyahat Gideri Takibi &#45; Yardımcı Fonksiyonlar Implementation.">
<polygon fill="white" stroke="#666666" points="1355,-30 1246,-30 1246,0 1355,0 1355,-30"/>
<text text-anchor="start" x="1254" y="-18" font-family="Helvetica,sans-Serif" font-size="10.00">src/travelexpense/src</text>
<text text-anchor="middle" x="1300.5" y="-7" font-family="Helvetica,sans-Serif" font-size="10.00">/helpers.cpp</text>
</a>
</g>
</g>
<!-- Node17&#45;&gt;Node18 -->
<g id="edge26_Node000017_Node000018" class="edge">
<title>Node17&#45;&gt;Node18</title>
<g id="a_edge26_Node000017_Node000018"><a xlink:title=" ">
<path fill="none" stroke="#63b8ff" d="M1300.5,-55.54C1300.5,-46.96 1300.5,-37.61 1300.5,-30.16"/>
<polygon fill="#63b8ff" stroke="#63b8ff" points="1297,-55.8 1300.5,-65.8 1304,-55.8 1297,-55.8"/>
</a>
</g>
</g>
<!-- Node19&#45;&gt;Node3 -->
<g id="edge29_Node000019_Node000003" class="edge">
<title>Node19&#45;&gt;Node3</title>
<g id="a_edge29_Node000019_Node000003"><a xlink:title=" ">
<path fill="none" stroke="#63b8ff" d="M515.38,-65.85C734.76,-36.94 793.33,-50.32 1010.5,-30 1029.82,-28.19 1050.82,-25.9 1069.86,-23.7"/>
<polygon fill="#63b8ff" stroke="#63b8ff" points="514.6,-62.42 505.15,-67.21 515.53,-69.36 514.6,-62.42"/>
</a>
</g>
</g>
<!-- Node19&#45;&gt;Node11 -->
<g id="edge30_Node000019_Node000011" class="edge">
<title>Node19&#45;&gt;Node11</title>
<g id="a_edge30_Node000019_Node000011"><a xlink:title=" ">
<path fill="none" stroke="#63b8ff" d="M403.79,-61.51C382.77,-51.47 357.2,-39.26 337.84,-30.01"/>
<polygon fill="#63b8ff" stroke="#63b8ff" points="402.56,-64.8 413.09,-65.95 405.58,-58.49 402.56,-64.8"/>
</a>
</g>
</g>
<!-- Node20&#45;&gt;Node3 -->
<g id="edge32_Node000020_Node000003" class="edge">
<title>Node20&#45;&gt;Node3</title>
<g id="a_edge32_Node000020_Node000003"><a xlink:title=" ">
<path fill="none" stroke="#63b8ff" d="M1148.28,-56.39C1144.84,-47.59 1141.04,-37.86 1138.03,-30.16"/>
<polygon fill="#63b8ff" stroke="#63b8ff" points="1145.05,-57.76 1151.95,-65.8 1151.57,-55.21 1145.05,-57.76"/>
</a>
</g>
</g>
<!-- Node20&#45;&gt;Node7 -->
<g id="edge33_Node000020_Node000007" class="edge">
<title>Node20&#45;&gt;Node7</title>
<g id="a_edge33_Node000020_Node000007"><a xlink:title=" ">
<path fill="none" stroke="#63b8ff" d="M1101.68,-62.99C1067.89,-52.69 1025.32,-39.72 993.48,-30.01"/>
<polygon fill="#63b8ff" stroke="#63b8ff" points="1100.83,-66.39 1111.41,-65.95 1102.87,-59.69 1100.83,-66.39"/>
</a>
</g>
</g>
<!-- Node21&#45;&gt;Node3 -->
<g id="edge35_Node000021_Node000003" class="edge">
<title>Node21&#45;&gt;Node3</title>
<g id="a_edge35_Node000021_Node000003"><a xlink:title=" ">
<path fill="none" stroke="#63b8ff" d="M1552.54,-65.77C1412.18,-44.37 1374.35,-47.08 1236.5,-30 1223.12,-28.34 1208.79,-26.47 1195.17,-24.65"/>
<polygon fill="#63b8ff" stroke="#63b8ff" points="1552.41,-69.29 1562.83,-67.35 1553.48,-62.37 1552.41,-69.29"/>
</a>
</g>
</g>
<!-- Node21&#45;&gt;Node16 -->
<g id="edge36_Node000021_Node000016" class="edge">
<title>Node21&#45;&gt;Node16</title>
<g id="a_edge36_Node000021_Node000016"><a xlink:title=" ">
<path fill="none" stroke="#63b8ff" d="M1586.5,-61.65C1565.11,-51.58 1539.01,-39.3 1519.28,-30.01"/>
<polygon fill="#63b8ff" stroke="#63b8ff" points="1585.12,-64.86 1595.65,-65.95 1588.1,-58.53 1585.12,-64.86"/>
</a>
</g>
</g>
<!-- Node22 -->
<g id="Node000022" class="node">
<title>Node22</title>
<g id="a_Node000022"><a xlink:href="session_manager_8cpp.html" target="_top" xlink:title="Seyahat Gideri Takibi &#45; Oturum Yönetimi ve İletim Güvenliği Implementation.">
<polygon fill="white" stroke="#666666" points="1680.5,-30 1570.5,-30 1570.5,0 1680.5,0 1680.5,-30"/>
<text text-anchor="start" x="1578.5" y="-18" font-family="Helvetica,sans-Serif" font-size="10.00">src/travelexpense/src</text>
<text text-anchor="middle" x="1625.5" y="-7" font-family="Helvetica,sans-Serif" font-size="10.00">/sessionManager.cpp</text>
</a>
</g>
</g>
<!-- Node21&#45;&gt;Node22 -->
<g id="edge37_Node000021_Node000022" class="edge">
<title>Node21&#45;&gt;Node22</title>
<g id="a_edge37_Node000021_Node000022"><a xlink:title=" ">
<path fill="none" stroke="#63b8ff" d="M1625.5,-55.54C1625.5,-46.96 1625.5,-37.61 1625.5,-30.16"/>
<polygon fill="#63b8ff" stroke="#63b8ff" points="1622,-55.8 1625.5,-65.8 1629,-55.8 1622,-55.8"/>
</a>
</g>
</g>
<!-- Node23&#45;&gt;Node3 -->
<g id="edge39_Node000023_Node000003" class="edge">
<title>Node23&#45;&gt;Node3</title>
<g id="a_edge39_Node000023_Node000003"><a xlink:title=" ">
<path fill="none" stroke="#63b8ff" d="M1695.72,-65.86C1492.15,-38.5 1437.57,-51.37 1236.5,-30 1223.09,-28.58 1208.75,-26.8 1195.13,-25.01"/>
<polygon fill="#63b8ff" stroke="#63b8ff" points="1695.47,-69.35 1705.85,-67.23 1696.41,-62.42 1695.47,-69.35"/>
</a>
</g>
</g>
<!-- Node24 -->
<g id="Node000024" class="node">
<title>Node24</title>
<g id="a_Node000024"><a xlink:href="softhsm_8cpp.html" target="_top" xlink:title="Seyahat Gideri Takibi &#45; SoftHSM (PKCS#11) Implementation.">
<polygon fill="white" stroke="#666666" points="1823,-30 1714,-30 1714,0 1823,0 1823,-30"/>
<text text-anchor="start" x="1722" y="-18" font-family="Helvetica,sans-Serif" font-size="10.00">src/travelexpense/src</text>
<text text-anchor="middle" x="1768.5" y="-7" font-family="Helvetica,sans-Serif" font-size="10.00">/softhsm.cpp</text>
</a>
</g>
</g>
<!-- Node23&#45;&gt;Node24 -->
<g id="edge40_Node000023_Node000024" class="edge">
<title>Node23&#45;&gt;Node24</title>
<g id="a_edge40_Node000023_Node000024"><a xlink:title=" ">
<path fill="none" stroke="#63b8ff" d="M1768.5,-55.54C1768.5,-46.96 1768.5,-37.61 1768.5,-30.16"/>
<polygon fill="#63b8ff" stroke="#63b8ff" points="1765,-55.8 1768.5,-65.8 1772,-55.8 1765,-55.8"/>
</a>
</g>
</g>
<!-- Node25&#45;&gt;Node3 -->
<g id="edge42_Node000025_Node000003" class="edge">
<title>Node25&#45;&gt;Node3</title>
<g id="a_edge42_Node000025_Node000003"><a xlink:title=" ">
<path fill="none" stroke="#63b8ff" d="M1838.87,-65.91C1572.02,-32.49 1500.9,-55.64 1236.5,-30 1223.08,-28.7 1208.73,-26.98 1195.11,-25.19"/>
<polygon fill="#63b8ff" stroke="#63b8ff" points="1838.49,-69.39 1848.86,-67.17 1839.37,-62.44 1838.49,-69.39"/>
</a>
</g>
</g>
<!-- Node26 -->
<g id="Node000026" class="node">
<title>Node26</title>
<g id="a_Node000026"><a xlink:href="tls_8cpp.html" target="_top" xlink:title="Seyahat Gideri Takibi &#45; SSL/TLS ve Certificate Pinning Implementation.">
<polygon fill="white" stroke="#666666" points="1966,-30 1857,-30 1857,0 1966,0 1966,-30"/>
<text text-anchor="start" x="1865" y="-18" font-family="Helvetica,sans-Serif" font-size="10.00">src/travelexpense/src</text>
<text text-anchor="middle" x="1911.5" y="-7" font-family="Helvetica,sans-Serif" font-size="10.00">/tls.cpp</text>
</a>
</g>
</g>
<!-- Node25&#45;&gt;Node26 -->
<g id="edge43_Node000025_Node000026" class="edge">
<title>Node25&#45;&gt;Node26</title>
<g id="a_edge43_Node000025_Node000026"><a xlink:title=" ">
<path fill="none" stroke="#63b8ff" d="M1911.5,-55.54C1911.5,-46.96 1911.5,-37.61 1911.5,-30.16"/>
<polygon fill="#63b8ff" stroke="#63b8ff" points="1908,-55.8 1911.5,-65.8 1915,-55.8 1908,-55.8"/>
</a>
</g>
</g>
<!-- Node27&#45;&gt;Node3 -->
<g id="edge46_Node000027_Node000003" class="edge">
<title>Node27&#45;&gt;Node3</title>
<g id="a_edge46_Node000027_Node000003"><a xlink:title=" ">
<path fill="none" stroke="#63b8ff" d="M658.15,-65.83C814.62,-42.85 856.5,-46.67 1010.5,-30 1029.79,-27.91 1050.78,-25.54 1069.83,-23.35"/>
<polygon fill="#63b8ff" stroke="#63b8ff" points="657.54,-62.39 648.16,-67.31 658.57,-69.31 657.54,-62.39"/>
</a>
</g>
</g>
<!-- Node27&#45;&gt;Node7 -->
<g id="edge47_Node000027_Node000007" class="edge">
<title>Node27&#45;&gt;Node7</title>
<g id="a_edge47_Node000027_Node000007"><a xlink:title=" ">
<path fill="none" stroke="#63b8ff" d="M658.17,-65.75C758.77,-48.15 786.26,-48.33 883.5,-30 886.52,-29.43 889.61,-28.83 892.73,-28.2"/>
<polygon fill="#63b8ff" stroke="#63b8ff" points="657.44,-62.32 648.2,-67.51 658.65,-69.21 657.44,-62.32"/>
</a>
</g>
</g>
<!-- Node27&#45;&gt;Node12 -->
<g id="edge48_Node000027_Node000012" class="edge">
<title>Node27&#45;&gt;Node12</title>
<g id="a_edge48_Node000027_Node000012"><a xlink:title=" ">
<path fill="none" stroke="#63b8ff" d="M543.12,-61.92C519.42,-51.8 490.31,-39.38 468.34,-30.01"/>
<polygon fill="#63b8ff" stroke="#63b8ff" points="542.01,-65.25 552.58,-65.95 544.76,-58.81 542.01,-65.25"/>
</a>
</g>
</g>
<!-- Node28&#45;&gt;Node3 -->
<g id="edge50_Node000028_Node000003" class="edge">
<title>Node28&#45;&gt;Node3</title>
<g id="a_edge50_Node000028_Node000003"><a xlink:title=" ">
<path fill="none" stroke="#63b8ff" d="M1049.34,-61.11C1067.7,-51.14 1089.85,-39.13 1106.66,-30.01"/>
<polygon fill="#63b8ff" stroke="#63b8ff" points="1047.52,-58.11 1040.4,-65.95 1050.85,-64.26 1047.52,-58.11"/>
</a>
</g>
</g>
<!-- Node28&#45;&gt;Node13 -->
<g id="edge51_Node000028_Node000013" class="edge">
<title>Node28&#45;&gt;Node13</title>
<g id="a_edge51_Node000028_Node000013"><a xlink:title=" ">
<path fill="none" stroke="#63b8ff" d="M962.13,-62.72C931.04,-52.47 892.14,-39.63 862.97,-30.01"/>
<polygon fill="#63b8ff" stroke="#63b8ff" points="961.33,-66.15 971.93,-65.95 963.53,-59.5 961.33,-66.15"/>
</a>
</g>
</g>
</g>
</svg>
