<?xml version="1.0" encoding="UTF-8" standalone="no"?>
<!DOCTYPE svg PUBLIC "-//W3C//DTD SVG 1.1//EN"
 "http://www.w3.org/Graphics/SVG/1.1/DTD/svg11.dtd">
<!-- Generated by graphviz version 6.0.2 (20221011.1828)
 -->
<!-- Title: src/travelexpense/header/database.h Pages: 1 -->
<svg width="1026pt" height="104pt"
 viewBox="0.00 0.00 1026.00 104.00" xmlns="http://www.w3.org/2000/svg" xmlns:xlink="http://www.w3.org/1999/xlink">
<g id="graph0" class="graph" transform="scale(1 1) rotate(0) translate(4 100)">
<title>src/travelexpense/header/database.h</title>
<!-- Node1 -->
<g id="Node000001" class="node">
<title>Node1</title>
<g id="a_Node000001"><a xlink:title="Seyahat Gideri Takibi &#45; SQLite Veritabanı Yönetimi.">
<polygon fill="#999999" stroke="#666666" points="578,-96 453,-96 453,-66 578,-66 578,-96"/>
<text text-anchor="start" x="461" y="-84" font-family="Helvetica,sans-Serif" font-size="10.00">src/travelexpense/header</text>
<text text-anchor="middle" x="515.5" y="-73" font-family="Helvetica,sans-Serif" font-size="10.00">/database.h</text>
</a>
</g>
</g>
<!-- Node2 -->
<g id="Node000002" class="node">
<title>Node2</title>
<g id="a_Node000002"><a xlink:href="travelexpense_8h.html" target="_top" xlink:title="Seyahat Gideri Takibi &#45; Ana Kütüphane Header Dosyası">
<polygon fill="white" stroke="#666666" points="125,-30 0,-30 0,0 125,0 125,-30"/>
<text text-anchor="start" x="8" y="-18" font-family="Helvetica,sans-Serif" font-size="10.00">src/travelexpense/header</text>
<text text-anchor="middle" x="62.5" y="-7" font-family="Helvetica,sans-Serif" font-size="10.00">/travelexpense.h</text>
</a>
</g>
</g>
<!-- Node1&#45;&gt;Node2 -->
<g id="edge1_Node000001_Node000002" class="edge">
<title>Node1&#45;&gt;Node2</title>
<g id="a_edge1_Node000001_Node000002"><a xlink:title=" ">
<path fill="none" stroke="#63b8ff" d="M442.71,-71.89C365.7,-62.98 240.73,-47.57 133.5,-30 130.77,-29.55 127.99,-29.08 125.18,-28.59"/>
<polygon fill="#63b8ff" stroke="#63b8ff" points="442.45,-75.38 452.79,-73.05 443.26,-68.43 442.45,-75.38"/>
</a>
</g>
</g>
<!-- Node3 -->
<g id="Node000003" class="node">
<title>Node3</title>
<g id="a_Node000003"><a xlink:href="asset_manager_8cpp.html" target="_top" xlink:title="Seyahat Gideri Takibi &#45; Varlık Yönetimi Implementation.">
<polygon fill="white" stroke="#666666" points="252,-30 143,-30 143,0 252,0 252,-30"/>
<text text-anchor="start" x="151" y="-18" font-family="Helvetica,sans-Serif" font-size="10.00">src/travelexpense/src</text>
<text text-anchor="middle" x="197.5" y="-7" font-family="Helvetica,sans-Serif" font-size="10.00">/assetManager.cpp</text>
</a>
</g>
</g>
<!-- Node1&#45;&gt;Node3 -->
<g id="edge2_Node000001_Node000003" class="edge">
<title>Node1&#45;&gt;Node3</title>
<g id="a_edge2_Node000001_Node000003"><a xlink:title=" ">
<path fill="none" stroke="#63b8ff" d="M442.84,-66.25C391.77,-56.47 321.87,-42.83 260.5,-30 257.76,-29.43 254.95,-28.83 252.12,-28.23"/>
<polygon fill="#63b8ff" stroke="#63b8ff" points="442.32,-69.72 452.8,-68.16 443.63,-62.84 442.32,-69.72"/>
</a>
</g>
</g>
<!-- Node4 -->
<g id="Node000004" class="node">
<title>Node4</title>
<g id="a_Node000004"><a xlink:href="budget_manager_8cpp.html" target="_top" xlink:title="Seyahat Gideri Takibi &#45; Bütçe Yönetimi Implementation.">
<polygon fill="white" stroke="#666666" points="379,-30 270,-30 270,0 379,0 379,-30"/>
<text text-anchor="start" x="278" y="-18" font-family="Helvetica,sans-Serif" font-size="10.00">src/travelexpense/src</text>
<text text-anchor="middle" x="324.5" y="-7" font-family="Helvetica,sans-Serif" font-size="10.00">/budgetManager.cpp</text>
</a>
</g>
</g>
<!-- Node1&#45;&gt;Node4 -->
<g id="edge3_Node000001_Node000004" class="edge">
<title>Node1&#45;&gt;Node4</title>
<g id="a_edge3_Node000001_Node000004"><a xlink:title=" ">
<path fill="none" stroke="#63b8ff" d="M463.94,-62.72C433.34,-52.47 395.03,-39.63 366.32,-30.01"/>
<polygon fill="#63b8ff" stroke="#63b8ff" points="462.99,-66.1 473.58,-65.95 465.21,-59.46 462.99,-66.1"/>
</a>
</g>
</g>
<!-- Node5 -->
<g id="Node000005" class="node">
<title>Node5</title>
<g id="a_Node000005"><a xlink:href="database_8cpp.html" target="_top" xlink:title="Seyahat Gideri Takibi &#45; SQLite Veritabanı Yönetimi Implementation.">
<polygon fill="white" stroke="#666666" points="506,-30 397,-30 397,0 506,0 506,-30"/>
<text text-anchor="start" x="405" y="-18" font-family="Helvetica,sans-Serif" font-size="10.00">src/travelexpense/src</text>
<text text-anchor="middle" x="451.5" y="-7" font-family="Helvetica,sans-Serif" font-size="10.00">/database.cpp</text>
</a>
</g>
</g>
<!-- Node1&#45;&gt;Node5 -->
<g id="edge4_Node000001_Node000005" class="edge">
<title>Node1&#45;&gt;Node5</title>
<g id="a_edge4_Node000001_Node000005"><a xlink:title=" ">
<path fill="none" stroke="#63b8ff" d="M494.15,-58.65C484.77,-49.27 474.03,-38.53 465.66,-30.16"/>
<polygon fill="#63b8ff" stroke="#63b8ff" points="491.75,-61.2 501.3,-65.8 496.7,-56.25 491.75,-61.2"/>
</a>
</g>
</g>
<!-- Node6 -->
<g id="Node000006" class="node">
<title>Node6</title>
<g id="a_Node000006"><a xlink:href="expense_manager_8cpp.html" target="_top" xlink:title="Seyahat Gideri Takibi &#45; Gider Yönetimi Implementation.">
<polygon fill="white" stroke="#666666" points="637,-30 524,-30 524,0 637,0 637,-30"/>
<text text-anchor="start" x="532" y="-18" font-family="Helvetica,sans-Serif" font-size="10.00">src/travelexpense/src</text>
<text text-anchor="middle" x="580.5" y="-7" font-family="Helvetica,sans-Serif" font-size="10.00">/expenseManager.cpp</text>
</a>
</g>
</g>
<!-- Node1&#45;&gt;Node6 -->
<g id="edge5_Node000001_Node000006" class="edge">
<title>Node1&#45;&gt;Node6</title>
<g id="a_edge5_Node000001_Node000006"><a xlink:title=" ">
<path fill="none" stroke="#63b8ff" d="M537.19,-58.65C546.71,-49.27 557.62,-38.53 566.11,-30.16"/>
<polygon fill="#63b8ff" stroke="#63b8ff" points="534.6,-56.29 529.93,-65.8 539.51,-61.27 534.6,-56.29"/>
</a>
</g>
</g>
<!-- Node7 -->
<g id="Node000007" class="node">
<title>Node7</title>
<g id="a_Node000007"><a xlink:href="migration_8cpp.html" target="_top" xlink:title="Seyahat Gideri Takibi &#45; Binary → SQLite Migration Implementation.">
<polygon fill="white" stroke="#666666" points="764,-30 655,-30 655,0 764,0 764,-30"/>
<text text-anchor="start" x="663" y="-18" font-family="Helvetica,sans-Serif" font-size="10.00">src/travelexpense/src</text>
<text text-anchor="middle" x="709.5" y="-7" font-family="Helvetica,sans-Serif" font-size="10.00">/migration.cpp</text>
</a>
</g>
</g>
<!-- Node1&#45;&gt;Node7 -->
<g id="edge6_Node000001_Node000007" class="edge">
<title>Node1&#45;&gt;Node7</title>
<g id="a_edge6_Node000001_Node000007"><a xlink:title=" ">
<path fill="none" stroke="#63b8ff" d="M567.87,-62.72C598.96,-52.47 637.86,-39.63 667.03,-30.01"/>
<polygon fill="#63b8ff" stroke="#63b8ff" points="566.47,-59.5 558.07,-65.95 568.67,-66.15 566.47,-59.5"/>
</a>
</g>
</g>
<!-- Node8 -->
<g id="Node000008" class="node">
<title>Node8</title>
<g id="a_Node000008"><a xlink:href="trip_manager_8cpp.html" target="_top" xlink:title="Seyahat Gideri Takibi &#45; Seyahat Yönetimi Implementation.">
<polygon fill="white" stroke="#666666" points="891,-30 782,-30 782,0 891,0 891,-30"/>
<text text-anchor="start" x="790" y="-18" font-family="Helvetica,sans-Serif" font-size="10.00">src/travelexpense/src</text>
<text text-anchor="middle" x="836.5" y="-7" font-family="Helvetica,sans-Serif" font-size="10.00">/tripManager.cpp</text>
</a>
</g>
</g>
<!-- Node1&#45;&gt;Node8 -->
<g id="edge7_Node000001_Node000008" class="edge">
<title>Node1&#45;&gt;Node8</title>
<g id="a_edge7_Node000001_Node000008"><a xlink:title=" ">
<path fill="none" stroke="#63b8ff" d="M588.24,-66.45C639.98,-56.68 711.1,-42.98 773.5,-30 776.24,-29.43 779.05,-28.84 781.88,-28.23"/>
<polygon fill="#63b8ff" stroke="#63b8ff" points="587.34,-63.06 578.16,-68.35 588.63,-69.94 587.34,-63.06"/>
</a>
</g>
</g>
<!-- Node9 -->
<g id="Node000009" class="node">
<title>Node9</title>
<g id="a_Node000009"><a xlink:href="user_auth_8cpp.html" target="_top" xlink:title="Seyahat Gideri Takibi &#45; Kullanıcı Kimlik Doğrulama Implementation.">
<polygon fill="white" stroke="#666666" points="1018,-30 909,-30 909,0 1018,0 1018,-30"/>
<text text-anchor="start" x="917" y="-18" font-family="Helvetica,sans-Serif" font-size="10.00">src/travelexpense/src</text>
<text text-anchor="middle" x="963.5" y="-7" font-family="Helvetica,sans-Serif" font-size="10.00">/userAuth.cpp</text>
</a>
</g>
</g>
<!-- Node1&#45;&gt;Node9 -->
<g id="edge8_Node000001_Node000009" class="edge">
<title>Node1&#45;&gt;Node9</title>
<g id="a_edge8_Node000001_Node000009"><a xlink:title=" ">
<path fill="none" stroke="#63b8ff" d="M588.26,-72.51C665.9,-64.07 792.34,-49 900.5,-30 903.26,-29.52 906.08,-28.99 908.92,-28.44"/>
<polygon fill="#63b8ff" stroke="#63b8ff" points="587.68,-69.06 578.11,-73.61 588.43,-76.02 587.68,-69.06"/>
</a>
</g>
</g>
</g>
</svg>
