<?xml version="1.0" encoding="UTF-8" standalone="no"?>
<!DOCTYPE svg PUBLIC "-//W3C//DTD SVG 1.1//EN"
 "http://www.w3.org/Graphics/SVG/1.1/DTD/svg11.dtd">
<!-- Generated by graphviz version 6.0.2 (20221011.1828)
 -->
<!-- Title: src/travelexpense/src/database.cpp Pages: 1 -->
<svg width="557pt" height="203pt"
 viewBox="0.00 0.00 557.08 203.00" xmlns="http://www.w3.org/2000/svg" xmlns:xlink="http://www.w3.org/1999/xlink">
<g id="graph0" class="graph" transform="scale(1 1) rotate(0) translate(4 199)">
<title>src/travelexpense/src/database.cpp</title>
<!-- Node1 -->
<g id="Node000001" class="node">
<title>Node1</title>
<g id="a_Node000001"><a xlink:title="Seyahat Gideri Takibi &#45; SQLite Veritabanı Yönetimi Implementation.">
<polygon fill="#999999" stroke="#666666" points="384.08,-195 275.08,-195 275.08,-165 384.08,-165 384.08,-195"/>
<text text-anchor="start" x="283.08" y="-183" font-family="Helvetica,sans-Serif" font-size="10.00">src/travelexpense/src</text>
<text text-anchor="middle" x="329.58" y="-172" font-family="Helvetica,sans-Serif" font-size="10.00">/database.cpp</text>
</a>
</g>
</g>
<!-- Node2 -->
<g id="Node000002" class="node">
<title>Node2</title>
<g id="a_Node000002"><a xlink:href="database_8h.html" target="_top" xlink:title="Seyahat Gideri Takibi &#45; SQLite Veritabanı Yönetimi.">
<polygon fill="white" stroke="#666666" points="238.58,-129 132.58,-129 132.58,-110 238.58,-110 238.58,-129"/>
<text text-anchor="middle" x="185.58" y="-117" font-family="Helvetica,sans-Serif" font-size="10.00">../header/database.h</text>
</a>
</g>
</g>
<!-- Node1&#45;&gt;Node2 -->
<g id="edge1_Node000001_Node000002" class="edge">
<title>Node1&#45;&gt;Node2</title>
<g id="a_edge1_Node000001_Node000002"><a xlink:title=" ">
<path fill="none" stroke="#63b8ff" d="M295.09,-164.99C271.07,-155.23 239.31,-142.33 216.18,-132.93"/>
<polygon fill="#63b8ff" stroke="#63b8ff" points="217.43,-129.66 206.85,-129.14 214.8,-136.15 217.43,-129.66"/>
</a>
</g>
</g>
<!-- Node6 -->
<g id="Node000006" class="node">
<title>Node6</title>
<g id="a_Node000006"><a xlink:title=" ">
<polygon fill="#e0e0e0" stroke="#999999" points="335.58,-19 289.58,-19 289.58,0 335.58,0 335.58,-19"/>
<text text-anchor="middle" x="312.58" y="-7" font-family="Helvetica,sans-Serif" font-size="10.00">cstring</text>
</a>
</g>
</g>
<!-- Node1&#45;&gt;Node6 -->
<g id="edge15_Node000001_Node000006" class="edge">
<title>Node1&#45;&gt;Node6</title>
<g id="a_edge15_Node000001_Node000006"><a xlink:title=" ">
<path fill="none" stroke="#63b8ff" d="M328.16,-164.92C325.11,-134.65 317.91,-63.35 314.48,-29.27"/>
<polygon fill="#63b8ff" stroke="#63b8ff" points="317.95,-28.85 313.47,-19.25 310.99,-29.56 317.95,-28.85"/>
</a>
</g>
</g>
<!-- Node9 -->
<g id="Node000009" class="node">
<title>Node9</title>
<g id="a_Node000009"><a xlink:title=" ">
<polygon fill="#e0e0e0" stroke="#999999" points="301.08,-74 248.08,-74 248.08,-55 301.08,-55 301.08,-74"/>
<text text-anchor="middle" x="274.58" y="-62" font-family="Helvetica,sans-Serif" font-size="10.00">sqlite3.h</text>
</a>
</g>
</g>
<!-- Node1&#45;&gt;Node9 -->
<g id="edge14_Node000001_Node000009" class="edge">
<title>Node1&#45;&gt;Node9</title>
<g id="a_edge14_Node000001_Node000009"><a xlink:title=" ">
<path fill="none" stroke="#63b8ff" d="M322.62,-164.63C312.59,-143.93 294.1,-105.78 283.22,-83.32"/>
<polygon fill="#63b8ff" stroke="#63b8ff" points="286.32,-81.7 278.81,-74.23 280.02,-84.75 286.32,-81.7"/>
</a>
</g>
</g>
<!-- Node11 -->
<g id="Node000011" class="node">
<title>Node11</title>
<g id="a_Node000011"><a xlink:href="file_i_o_8h.html" target="_top" xlink:title="Seyahat Gideri Takibi &#45; Dosya I/O Yardımcı Fonksiyonlar.">
<polygon fill="white" stroke="#666666" points="98.58,-129 10.58,-129 10.58,-110 98.58,-110 98.58,-129"/>
<text text-anchor="middle" x="54.58" y="-117" font-family="Helvetica,sans-Serif" font-size="10.00">../header/fileIO.h</text>
</a>
</g>
</g>
<!-- Node1&#45;&gt;Node11 -->
<g id="edge10_Node000001_Node000011" class="edge">
<title>Node1&#45;&gt;Node11</title>
<g id="a_edge10_Node000001_Node000011"><a xlink:title=" ">
<path fill="none" stroke="#63b8ff" d="M274.92,-167.37C225.35,-156.83 152.87,-141.41 104.75,-131.17"/>
<polygon fill="#63b8ff" stroke="#63b8ff" points="105.37,-127.73 94.86,-129.07 103.92,-134.57 105.37,-127.73"/>
</a>
</g>
</g>
<!-- Node12 -->
<g id="Node000012" class="node">
<title>Node12</title>
<g id="a_Node000012"><a xlink:title=" ">
<polygon fill="#e0e0e0" stroke="#999999" points="401.08,-129 358.08,-129 358.08,-110 401.08,-110 401.08,-129"/>
<text text-anchor="middle" x="379.58" y="-117" font-family="Helvetica,sans-Serif" font-size="10.00">cstdio</text>
</a>
</g>
</g>
<!-- Node1&#45;&gt;Node12 -->
<g id="edge16_Node000001_Node000012" class="edge">
<title>Node1&#45;&gt;Node12</title>
<g id="a_edge16_Node000001_Node000012"><a xlink:title=" ">
<path fill="none" stroke="#63b8ff" d="M341.69,-164.84C348.87,-156.43 358.01,-145.74 365.51,-136.96"/>
<polygon fill="#63b8ff" stroke="#63b8ff" points="368.25,-139.14 372.09,-129.27 362.93,-134.59 368.25,-139.14"/>
</a>
</g>
</g>
<!-- Node13 -->
<g id="Node000013" class="node">
<title>Node13</title>
<g id="a_Node000013"><a xlink:title=" ">
<polygon fill="#e0e0e0" stroke="#999999" points="479.58,-129 419.58,-129 419.58,-110 479.58,-110 479.58,-129"/>
<text text-anchor="middle" x="449.58" y="-117" font-family="Helvetica,sans-Serif" font-size="10.00">sys/stat.h</text>
</a>
</g>
</g>
<!-- Node1&#45;&gt;Node13 -->
<g id="edge17_Node000001_Node000013" class="edge">
<title>Node1&#45;&gt;Node13</title>
<g id="a_edge17_Node000001_Node000013"><a xlink:title=" ">
<path fill="none" stroke="#63b8ff" d="M358.33,-164.99C377.9,-155.45 403.63,-142.9 422.78,-133.57"/>
<polygon fill="#63b8ff" stroke="#63b8ff" points="424.41,-136.67 431.86,-129.14 421.34,-130.38 424.41,-136.67"/>
</a>
</g>
</g>
<!-- Node14 -->
<g id="Node000014" class="node">
<title>Node14</title>
<g id="a_Node000014"><a xlink:title=" ">
<polygon fill="#e0e0e0" stroke="#999999" points="549.08,-129 498.08,-129 498.08,-110 549.08,-110 549.08,-129"/>
<text text-anchor="middle" x="523.58" y="-117" font-family="Helvetica,sans-Serif" font-size="10.00">unistd.h</text>
</a>
</g>
</g>
<!-- Node1&#45;&gt;Node14 -->
<g id="edge18_Node000001_Node000014" class="edge">
<title>Node1&#45;&gt;Node14</title>
<g id="a_edge18_Node000001_Node000014"><a xlink:title=" ">
<path fill="none" stroke="#63b8ff" d="M376.05,-164.99C410.54,-154.59 456.86,-140.62 488.33,-131.13"/>
<polygon fill="#63b8ff" stroke="#63b8ff" points="489.43,-134.45 498,-128.22 487.41,-127.75 489.43,-134.45"/>
</a>
</g>
</g>
<!-- Node3 -->
<g id="Node000003" class="node">
<title>Node3</title>
<g id="a_Node000003"><a xlink:href="common_types_8h.html" target="_top" xlink:title="Seyahat Gideri Takibi &#45; Ortak Veri Tipleri ve Modelleri.">
<polygon fill="white" stroke="#666666" points="230.08,-74 141.08,-74 141.08,-55 230.08,-55 230.08,-74"/>
<text text-anchor="middle" x="185.58" y="-62" font-family="Helvetica,sans-Serif" font-size="10.00">commonTypes.h</text>
</a>
</g>
</g>
<!-- Node2&#45;&gt;Node3 -->
<g id="edge2_Node000002_Node000003" class="edge">
<title>Node2&#45;&gt;Node3</title>
<g id="a_edge2_Node000002_Node000003"><a xlink:title=" ">
<path fill="none" stroke="#63b8ff" d="M185.58,-109.75C185.58,-102.8 185.58,-92.85 185.58,-84.13"/>
<polygon fill="#63b8ff" stroke="#63b8ff" points="189.08,-84.09 185.58,-74.09 182.08,-84.09 189.08,-84.09"/>
</a>
</g>
</g>
<!-- Node8 -->
<g id="Node000008" class="node">
<title>Node8</title>
<g id="a_Node000008"><a xlink:href="export_8h.html" target="_top" xlink:title="Seyahat Gideri Takibi &#45; DLL Export/Import Macros.">
<polygon fill="white" stroke="#666666" points="63.58,-74 11.58,-74 11.58,-55 63.58,-55 63.58,-74"/>
<text text-anchor="middle" x="37.58" y="-62" font-family="Helvetica,sans-Serif" font-size="10.00">export.h</text>
</a>
</g>
</g>
<!-- Node2&#45;&gt;Node8 -->
<g id="edge7_Node000002_Node000008" class="edge">
<title>Node2&#45;&gt;Node8</title>
<g id="a_edge7_Node000002_Node000008"><a xlink:title=" ">
<path fill="none" stroke="#63b8ff" d="M161.8,-109.98C137.35,-101.23 99.05,-87.51 71.44,-77.62"/>
<polygon fill="#63b8ff" stroke="#63b8ff" points="72.39,-74.25 61.79,-74.17 70.03,-80.84 72.39,-74.25"/>
</a>
</g>
</g>
<!-- Node2&#45;&gt;Node9 -->
<g id="edge8_Node000002_Node000009" class="edge">
<title>Node2&#45;&gt;Node9</title>
<g id="a_edge8_Node000002_Node000009"><a xlink:title=" ">
<path fill="none" stroke="#63b8ff" d="M199.88,-109.98C213.68,-101.77 234.82,-89.18 251.1,-79.49"/>
<polygon fill="#63b8ff" stroke="#63b8ff" points="253.22,-82.29 260.02,-74.17 249.64,-76.28 253.22,-82.29"/>
</a>
</g>
</g>
<!-- Node10 -->
<g id="Node000010" class="node">
<title>Node10</title>
<g id="a_Node000010"><a xlink:title=" ">
<polygon fill="#e0e0e0" stroke="#999999" points="123.08,-74 82.08,-74 82.08,-55 123.08,-55 123.08,-74"/>
<text text-anchor="middle" x="102.58" y="-62" font-family="Helvetica,sans-Serif" font-size="10.00">string</text>
</a>
</g>
</g>
<!-- Node2&#45;&gt;Node10 -->
<g id="edge9_Node000002_Node000010" class="edge">
<title>Node2&#45;&gt;Node10</title>
<g id="a_edge9_Node000002_Node000010"><a xlink:title=" ">
<path fill="none" stroke="#63b8ff" d="M172.25,-109.98C159.5,-101.84 140.03,-89.41 124.91,-79.76"/>
<polygon fill="#63b8ff" stroke="#63b8ff" points="126.47,-76.6 116.16,-74.17 122.71,-82.5 126.47,-76.6"/>
</a>
</g>
</g>
<!-- Node4 -->
<g id="Node000004" class="node">
<title>Node4</title>
<g id="a_Node000004"><a xlink:title=" ">
<polygon fill="#e0e0e0" stroke="#999999" points="54.58,-19 8.58,-19 8.58,0 54.58,0 54.58,-19"/>
<text text-anchor="middle" x="31.58" y="-7" font-family="Helvetica,sans-Serif" font-size="10.00">cstdint</text>
</a>
</g>
</g>
<!-- Node3&#45;&gt;Node4 -->
<g id="edge3_Node000003_Node000004" class="edge">
<title>Node3&#45;&gt;Node4</title>
<g id="a_edge3_Node000003_Node000004"><a xlink:title=" ">
<path fill="none" stroke="#63b8ff" d="M160.84,-54.98C134.68,-45.98 93.27,-31.73 64.4,-21.79"/>
<polygon fill="#63b8ff" stroke="#63b8ff" points="65.35,-18.42 54.75,-18.47 63.07,-25.04 65.35,-18.42"/>
</a>
</g>
</g>
<!-- Node5 -->
<g id="Node000005" class="node">
<title>Node5</title>
<g id="a_Node000005"><a xlink:title=" ">
<polygon fill="#e0e0e0" stroke="#999999" points="145.08,-19 104.08,-19 104.08,0 145.08,0 145.08,-19"/>
<text text-anchor="middle" x="124.58" y="-7" font-family="Helvetica,sans-Serif" font-size="10.00">ctime</text>
</a>
</g>
</g>
<!-- Node3&#45;&gt;Node5 -->
<g id="edge4_Node000003_Node000005" class="edge">
<title>Node3&#45;&gt;Node5</title>
<g id="a_edge4_Node000003_Node000005"><a xlink:title=" ">
<path fill="none" stroke="#63b8ff" d="M175.78,-54.98C166.77,-47.15 153.18,-35.34 142.27,-25.86"/>
<polygon fill="#63b8ff" stroke="#63b8ff" points="144.41,-23.09 134.56,-19.17 139.82,-28.37 144.41,-23.09"/>
</a>
</g>
</g>
<!-- Node3&#45;&gt;Node6 -->
<g id="edge5_Node000003_Node000006" class="edge">
<title>Node3&#45;&gt;Node6</title>
<g id="a_edge5_Node000003_Node000006"><a xlink:title=" ">
<path fill="none" stroke="#63b8ff" d="M205.99,-54.98C226.6,-46.38 258.69,-32.99 282.28,-23.15"/>
<polygon fill="#63b8ff" stroke="#63b8ff" points="283.93,-26.25 291.81,-19.17 281.23,-19.79 283.93,-26.25"/>
</a>
</g>
</g>
<!-- Node7 -->
<g id="Node000007" class="node">
<title>Node7</title>
<g id="a_Node000007"><a xlink:href="error__codes_8h.html" target="_top" xlink:title="Seyahat Gideri Takibi &#45; Hata Kodları Enum&#39;u.">
<polygon fill="white" stroke="#666666" points="239.58,-19 163.58,-19 163.58,0 239.58,0 239.58,-19"/>
<text text-anchor="middle" x="201.58" y="-7" font-family="Helvetica,sans-Serif" font-size="10.00">error_codes.h</text>
</a>
</g>
</g>
<!-- Node3&#45;&gt;Node7 -->
<g id="edge6_Node000003_Node000007" class="edge">
<title>Node3&#45;&gt;Node7</title>
<g id="a_edge6_Node000003_Node000007"><a xlink:title=" ">
<path fill="none" stroke="#63b8ff" d="M188.23,-54.75C190.35,-47.72 193.39,-37.62 196.05,-28.84"/>
<polygon fill="#63b8ff" stroke="#63b8ff" points="199.45,-29.67 198.99,-19.09 192.75,-27.65 199.45,-29.67"/>
</a>
</g>
</g>
<!-- Node11&#45;&gt;Node4 -->
<g id="edge12_Node000011_Node000004" class="edge">
<title>Node11&#45;&gt;Node4</title>
<g id="a_edge12_Node000011_Node000004"><a xlink:title=" ">
<path fill="none" stroke="#63b8ff" d="M38.55,-109.95C26.17,-102.35 9.94,-89.97 2.58,-74 -4.82,-57.93 5.66,-39.53 16.03,-26.69"/>
<polygon fill="#63b8ff" stroke="#63b8ff" points="18.68,-28.97 22.63,-19.14 13.42,-24.36 18.68,-28.97"/>
</a>
</g>
</g>
<!-- Node11&#45;&gt;Node8 -->
<g id="edge11_Node000011_Node000008" class="edge">
<title>Node11&#45;&gt;Node8</title>
<g id="a_edge11_Node000011_Node000008"><a xlink:title=" ">
<path fill="none" stroke="#63b8ff" d="M51.78,-109.75C49.52,-102.72 46.28,-92.62 43.47,-83.84"/>
<polygon fill="#63b8ff" stroke="#63b8ff" points="46.73,-82.54 40.34,-74.09 40.06,-84.68 46.73,-82.54"/>
</a>
</g>
</g>
<!-- Node11&#45;&gt;Node10 -->
<g id="edge13_Node000011_Node000010" class="edge">
<title>Node11&#45;&gt;Node10</title>
<g id="a_edge13_Node000011_Node000010"><a xlink:title=" ">
<path fill="none" stroke="#63b8ff" d="M62.51,-109.75C69.43,-102.11 79.65,-90.82 88.04,-81.56"/>
<polygon fill="#63b8ff" stroke="#63b8ff" points="90.69,-83.85 94.8,-74.09 85.5,-79.15 90.69,-83.85"/>
</a>
</g>
</g>
</g>
</svg>
