<?xml version="1.0" encoding="UTF-8" standalone="no"?>
<!DOCTYPE svg PUBLIC "-//W3C//DTD SVG 1.1//EN"
 "http://www.w3.org/Graphics/SVG/1.1/DTD/svg11.dtd">
<!-- Generated by graphviz version 6.0.2 (20221011.1828)
 -->
<!-- Title: src/travelexpense/src/migration.cpp Pages: 1 -->
<svg width="766pt" height="203pt"
 viewBox="0.00 0.00 766.00 203.00" xmlns="http://www.w3.org/2000/svg" xmlns:xlink="http://www.w3.org/1999/xlink">
<g id="graph0" class="graph" transform="scale(1 1) rotate(0) translate(4 199)">
<title>src/travelexpense/src/migration.cpp</title>
<!-- Node1 -->
<g id="Node000001" class="node">
<title>Node1</title>
<g id="a_Node000001"><a xlink:title="Seyahat Gideri Takibi &#45; Binary → SQLite Migration Implementation.">
<polygon fill="#999999" stroke="#666666" points="488.5,-195 379.5,-195 379.5,-165 488.5,-165 488.5,-195"/>
<text text-anchor="start" x="387.5" y="-183" font-family="Helvetica,sans-Serif" font-size="10.00">src/travelexpense/src</text>
<text text-anchor="middle" x="434" y="-172" font-family="Helvetica,sans-Serif" font-size="10.00">/migration.cpp</text>
</a>
</g>
</g>
<!-- Node2 -->
<g id="Node000002" class="node">
<title>Node2</title>
<g id="a_Node000002"><a xlink:href="migration_8h.html" target="_top" xlink:title="Seyahat Gideri Takibi &#45; Binary → SQLite Migration Fonksiyonları">
<polygon fill="white" stroke="#666666" points="138,-129 32,-129 32,-110 138,-110 138,-129"/>
<text text-anchor="middle" x="85" y="-117" font-family="Helvetica,sans-Serif" font-size="10.00">../header/migration.h</text>
</a>
</g>
</g>
<!-- Node1&#45;&gt;Node2 -->
<g id="edge1_Node000001_Node000002" class="edge">
<title>Node1&#45;&gt;Node2</title>
<g id="a_edge1_Node000001_Node000002"><a xlink:title=" ">
<path fill="none" stroke="#63b8ff" d="M379.47,-169.86C316.14,-159.24 211.96,-141.78 145.99,-130.72"/>
<polygon fill="#63b8ff" stroke="#63b8ff" points="146.19,-127.21 135.75,-129.01 145.03,-134.11 146.19,-127.21"/>
</a>
</g>
</g>
<!-- Node6 -->
<g id="Node000006" class="node">
<title>Node6</title>
<g id="a_Node000006"><a xlink:title=" ">
<polygon fill="#e0e0e0" stroke="#999999" points="447,-19 401,-19 401,0 447,0 447,-19"/>
<text text-anchor="middle" x="424" y="-7" font-family="Helvetica,sans-Serif" font-size="10.00">cstring</text>
</a>
</g>
</g>
<!-- Node1&#45;&gt;Node6 -->
<g id="edge22_Node000001_Node000006" class="edge">
<title>Node1&#45;&gt;Node6</title>
<g id="a_edge22_Node000001_Node000006"><a xlink:title=" ">
<path fill="none" stroke="#63b8ff" d="M440.07,-164.97C449.28,-141.69 464.54,-93.83 453,-55 450.02,-44.98 444,-35.11 438.21,-27.22"/>
<polygon fill="#63b8ff" stroke="#63b8ff" points="440.87,-24.95 431.94,-19.25 435.37,-29.28 440.87,-24.95"/>
</a>
</g>
</g>
<!-- Node9 -->
<g id="Node000009" class="node">
<title>Node9</title>
<g id="a_Node000009"><a xlink:title=" ">
<polygon fill="#e0e0e0" stroke="#999999" points="42,-74 0,-74 0,-55 42,-55 42,-74"/>
<text text-anchor="middle" x="21" y="-62" font-family="Helvetica,sans-Serif" font-size="10.00">vector</text>
</a>
</g>
</g>
<!-- Node1&#45;&gt;Node9 -->
<g id="edge20_Node000001_Node000009" class="edge">
<title>Node1&#45;&gt;Node9</title>
<g id="a_edge20_Node000001_Node000009"><a xlink:title=" ">
<path fill="none" stroke="#63b8ff" d="M379.14,-176.24C272.74,-170.34 46.64,-154.86 23,-129 12.19,-117.18 13,-98.34 15.73,-84.25"/>
<polygon fill="#63b8ff" stroke="#63b8ff" points="19.21,-84.73 18.14,-74.19 12.4,-83.1 19.21,-84.73"/>
</a>
</g>
</g>
<!-- Node10 -->
<g id="Node000010" class="node">
<title>Node10</title>
<g id="a_Node000010"><a xlink:href="database_8h.html" target="_top" xlink:title="Seyahat Gideri Takibi &#45; SQLite Veritabanı Yönetimi.">
<polygon fill="white" stroke="#666666" points="368,-129 262,-129 262,-110 368,-110 368,-129"/>
<text text-anchor="middle" x="315" y="-117" font-family="Helvetica,sans-Serif" font-size="10.00">../header/database.h</text>
</a>
</g>
</g>
<!-- Node1&#45;&gt;Node10 -->
<g id="edge10_Node000001_Node000010" class="edge">
<title>Node1&#45;&gt;Node10</title>
<g id="a_edge10_Node000001_Node000010"><a xlink:title=" ">
<path fill="none" stroke="#63b8ff" d="M405.5,-164.99C386.09,-155.45 360.57,-142.9 341.58,-133.57"/>
<polygon fill="#63b8ff" stroke="#63b8ff" points="343.09,-130.41 332.57,-129.14 340,-136.69 343.09,-130.41"/>
</a>
</g>
</g>
<!-- Node11 -->
<g id="Node000011" class="node">
<title>Node11</title>
<g id="a_Node000011"><a xlink:title=" ">
<polygon fill="#e0e0e0" stroke="#999999" points="443.5,-74 390.5,-74 390.5,-55 443.5,-55 443.5,-74"/>
<text text-anchor="middle" x="417" y="-62" font-family="Helvetica,sans-Serif" font-size="10.00">sqlite3.h</text>
</a>
</g>
</g>
<!-- Node1&#45;&gt;Node11 -->
<g id="edge24_Node000001_Node000011" class="edge">
<title>Node1&#45;&gt;Node11</title>
<g id="a_edge24_Node000001_Node000011"><a xlink:title=" ">
<path fill="none" stroke="#63b8ff" d="M431.85,-164.63C428.79,-144.21 423.19,-106.81 419.81,-84.24"/>
<polygon fill="#63b8ff" stroke="#63b8ff" points="423.25,-83.6 418.31,-74.23 416.33,-84.64 423.25,-83.6"/>
</a>
</g>
</g>
<!-- Node12 -->
<g id="Node000012" class="node">
<title>Node12</title>
<g id="a_Node000012"><a xlink:title=" ">
<polygon fill="#e0e0e0" stroke="#999999" points="372.5,-74 331.5,-74 331.5,-55 372.5,-55 372.5,-74"/>
<text text-anchor="middle" x="352" y="-62" font-family="Helvetica,sans-Serif" font-size="10.00">string</text>
</a>
</g>
</g>
<!-- Node1&#45;&gt;Node12 -->
<g id="edge21_Node000001_Node000012" class="edge">
<title>Node1&#45;&gt;Node12</title>
<g id="a_edge21_Node000001_Node000012"><a xlink:title=" ">
<path fill="none" stroke="#63b8ff" d="M423.61,-164.63C408.46,-143.65 380.35,-104.75 364.23,-82.42"/>
<polygon fill="#63b8ff" stroke="#63b8ff" points="367,-80.29 358.31,-74.23 361.33,-84.38 367,-80.29"/>
</a>
</g>
</g>
<!-- Node13 -->
<g id="Node000013" class="node">
<title>Node13</title>
<g id="a_Node000013"><a xlink:href="file_i_o_8h.html" target="_top" xlink:title="Seyahat Gideri Takibi &#45; Dosya I/O Yardımcı Fonksiyonlar.">
<polygon fill="white" stroke="#666666" points="244,-129 156,-129 156,-110 244,-110 244,-129"/>
<text text-anchor="middle" x="200" y="-117" font-family="Helvetica,sans-Serif" font-size="10.00">../header/fileIO.h</text>
</a>
</g>
</g>
<!-- Node1&#45;&gt;Node13 -->
<g id="edge15_Node000001_Node000013" class="edge">
<title>Node1&#45;&gt;Node13</title>
<g id="a_edge15_Node000001_Node000013"><a xlink:title=" ">
<path fill="none" stroke="#63b8ff" d="M379.43,-165.36C338.27,-155.07 282.54,-141.13 244.16,-131.54"/>
<polygon fill="#63b8ff" stroke="#63b8ff" points="244.86,-128.11 234.31,-129.08 243.17,-134.9 244.86,-128.11"/>
</a>
</g>
</g>
<!-- Node14 -->
<g id="Node000014" class="node">
<title>Node14</title>
<g id="a_Node000014"><a xlink:title=" ">
<polygon fill="#e0e0e0" stroke="#999999" points="549.5,-129 500.5,-129 500.5,-110 549.5,-110 549.5,-129"/>
<text text-anchor="middle" x="525" y="-117" font-family="Helvetica,sans-Serif" font-size="10.00">fstream</text>
</a>
</g>
</g>
<!-- Node1&#45;&gt;Node14 -->
<g id="edge19_Node000001_Node000014" class="edge">
<title>Node1&#45;&gt;Node14</title>
<g id="a_edge19_Node000001_Node000014"><a xlink:title=" ">
<path fill="none" stroke="#63b8ff" d="M456.03,-164.84C470.27,-155.68 488.73,-143.82 502.97,-134.66"/>
<polygon fill="#63b8ff" stroke="#63b8ff" points="505.11,-137.45 511.63,-129.09 501.33,-131.56 505.11,-137.45"/>
</a>
</g>
</g>
<!-- Node15 -->
<g id="Node000015" class="node">
<title>Node15</title>
<g id="a_Node000015"><a xlink:title=" ">
<polygon fill="#e0e0e0" stroke="#999999" points="610.5,-129 567.5,-129 567.5,-110 610.5,-110 610.5,-129"/>
<text text-anchor="middle" x="589" y="-117" font-family="Helvetica,sans-Serif" font-size="10.00">cstdio</text>
</a>
</g>
</g>
<!-- Node1&#45;&gt;Node15 -->
<g id="edge23_Node000001_Node000015" class="edge">
<title>Node1&#45;&gt;Node15</title>
<g id="a_edge23_Node000001_Node000015"><a xlink:title=" ">
<path fill="none" stroke="#63b8ff" d="M471.13,-164.99C497.69,-154.96 533.04,-141.62 558.08,-132.17"/>
<polygon fill="#63b8ff" stroke="#63b8ff" points="559.34,-135.44 567.46,-128.63 556.87,-128.89 559.34,-135.44"/>
</a>
</g>
</g>
<!-- Node16 -->
<g id="Node000016" class="node">
<title>Node16</title>
<g id="a_Node000016"><a xlink:title=" ">
<polygon fill="#e0e0e0" stroke="#999999" points="679.5,-129 628.5,-129 628.5,-110 679.5,-110 679.5,-129"/>
<text text-anchor="middle" x="654" y="-117" font-family="Helvetica,sans-Serif" font-size="10.00">unistd.h</text>
</a>
</g>
</g>
<!-- Node1&#45;&gt;Node16 -->
<g id="edge25_Node000001_Node000016" class="edge">
<title>Node1&#45;&gt;Node16</title>
<g id="a_edge25_Node000001_Node000016"><a xlink:title=" ">
<path fill="none" stroke="#63b8ff" d="M486.7,-164.99C527.42,-154.16 582.69,-139.46 618.35,-129.98"/>
<polygon fill="#63b8ff" stroke="#63b8ff" points="619.54,-133.28 628.31,-127.33 617.74,-126.52 619.54,-133.28"/>
</a>
</g>
</g>
<!-- Node17 -->
<g id="Node000017" class="node">
<title>Node17</title>
<g id="a_Node000017"><a xlink:title=" ">
<polygon fill="#e0e0e0" stroke="#999999" points="758,-129 698,-129 698,-110 758,-110 758,-129"/>
<text text-anchor="middle" x="728" y="-117" font-family="Helvetica,sans-Serif" font-size="10.00">sys/stat.h</text>
</a>
</g>
</g>
<!-- Node1&#45;&gt;Node17 -->
<g id="edge26_Node000001_Node000017" class="edge">
<title>Node1&#45;&gt;Node17</title>
<g id="a_edge26_Node000001_Node000017"><a xlink:title=" ">
<path fill="none" stroke="#63b8ff" d="M488.78,-168.6C538.25,-159.14 613.29,-144.58 687.76,-129.22"/>
<polygon fill="#63b8ff" stroke="#63b8ff" points="688.7,-132.6 697.78,-127.15 687.28,-125.75 688.7,-132.6"/>
</a>
</g>
</g>
<!-- Node3 -->
<g id="Node000003" class="node">
<title>Node3</title>
<g id="a_Node000003"><a xlink:href="common_types_8h.html" target="_top" xlink:title="Seyahat Gideri Takibi &#45; Ortak Veri Tipleri ve Modelleri.">
<polygon fill="white" stroke="#666666" points="313.5,-74 224.5,-74 224.5,-55 313.5,-55 313.5,-74"/>
<text text-anchor="middle" x="269" y="-62" font-family="Helvetica,sans-Serif" font-size="10.00">commonTypes.h</text>
</a>
</g>
</g>
<!-- Node2&#45;&gt;Node3 -->
<g id="edge2_Node000002_Node000003" class="edge">
<title>Node2&#45;&gt;Node3</title>
<g id="a_edge2_Node000002_Node000003"><a xlink:title=" ">
<path fill="none" stroke="#63b8ff" d="M114.56,-109.98C145.72,-101.01 194.97,-86.82 229.46,-76.89"/>
<polygon fill="#63b8ff" stroke="#63b8ff" points="230.57,-80.21 239.21,-74.08 228.63,-73.49 230.57,-80.21"/>
</a>
</g>
</g>
<!-- Node4 -->
<g id="Node000004" class="node">
<title>Node4</title>
<g id="a_Node000004"><a xlink:title=" ">
<polygon fill="#e0e0e0" stroke="#999999" points="149,-19 103,-19 103,0 149,0 149,-19"/>
<text text-anchor="middle" x="126" y="-7" font-family="Helvetica,sans-Serif" font-size="10.00">cstdint</text>
</a>
</g>
</g>
<!-- Node2&#45;&gt;Node4 -->
<g id="edge8_Node000002_Node000004" class="edge">
<title>Node2&#45;&gt;Node4</title>
<g id="a_edge8_Node000002_Node000004"><a xlink:title=" ">
<path fill="none" stroke="#63b8ff" d="M88.36,-109.66C95.06,-92.01 110.21,-52.09 119.12,-28.64"/>
<polygon fill="#63b8ff" stroke="#63b8ff" points="122.44,-29.75 122.71,-19.16 115.89,-27.27 122.44,-29.75"/>
</a>
</g>
</g>
<!-- Node8 -->
<g id="Node000008" class="node">
<title>Node8</title>
<g id="a_Node000008"><a xlink:href="export_8h.html" target="_top" xlink:title="Seyahat Gideri Takibi &#45; DLL Export/Import Macros.">
<polygon fill="white" stroke="#666666" points="206,-74 154,-74 154,-55 206,-55 206,-74"/>
<text text-anchor="middle" x="180" y="-62" font-family="Helvetica,sans-Serif" font-size="10.00">export.h</text>
</a>
</g>
</g>
<!-- Node2&#45;&gt;Node8 -->
<g id="edge7_Node000002_Node000008" class="edge">
<title>Node2&#45;&gt;Node8</title>
<g id="a_edge7_Node000002_Node000008"><a xlink:title=" ">
<path fill="none" stroke="#63b8ff" d="M100.26,-109.98C115.13,-101.69 137.98,-88.94 155.42,-79.22"/>
<polygon fill="#63b8ff" stroke="#63b8ff" points="157.43,-82.1 164.46,-74.17 154.02,-75.99 157.43,-82.1"/>
</a>
</g>
</g>
<!-- Node2&#45;&gt;Node9 -->
<g id="edge9_Node000002_Node000009" class="edge">
<title>Node2&#45;&gt;Node9</title>
<g id="a_edge9_Node000002_Node000009"><a xlink:title=" ">
<path fill="none" stroke="#63b8ff" d="M74.72,-109.98C65.16,-102.07 50.72,-90.11 39.22,-80.58"/>
<polygon fill="#63b8ff" stroke="#63b8ff" points="41.4,-77.85 31.47,-74.17 36.94,-83.24 41.4,-77.85"/>
</a>
</g>
</g>
<!-- Node3&#45;&gt;Node4 -->
<g id="edge3_Node000003_Node000004" class="edge">
<title>Node3&#45;&gt;Node4</title>
<g id="a_edge3_Node000003_Node000004"><a xlink:title=" ">
<path fill="none" stroke="#63b8ff" d="M246.02,-54.98C222.5,-46.27 185.71,-32.63 159.06,-22.75"/>
<polygon fill="#63b8ff" stroke="#63b8ff" points="159.99,-19.36 149.39,-19.17 157.55,-25.93 159.99,-19.36"/>
</a>
</g>
</g>
<!-- Node5 -->
<g id="Node000005" class="node">
<title>Node5</title>
<g id="a_Node000005"><a xlink:title=" ">
<polygon fill="#e0e0e0" stroke="#999999" points="334.5,-19 293.5,-19 293.5,0 334.5,0 334.5,-19"/>
<text text-anchor="middle" x="314" y="-7" font-family="Helvetica,sans-Serif" font-size="10.00">ctime</text>
</a>
</g>
</g>
<!-- Node3&#45;&gt;Node5 -->
<g id="edge4_Node000003_Node000005" class="edge">
<title>Node3&#45;&gt;Node5</title>
<g id="a_edge4_Node000003_Node000005"><a xlink:title=" ">
<path fill="none" stroke="#63b8ff" d="M276.43,-54.75C282.85,-47.18 292.31,-36.05 300.12,-26.84"/>
<polygon fill="#63b8ff" stroke="#63b8ff" points="302.9,-28.98 306.71,-19.09 297.57,-24.45 302.9,-28.98"/>
</a>
</g>
</g>
<!-- Node3&#45;&gt;Node6 -->
<g id="edge5_Node000003_Node000006" class="edge">
<title>Node3&#45;&gt;Node6</title>
<g id="a_edge5_Node000003_Node000006"><a xlink:title=" ">
<path fill="none" stroke="#63b8ff" d="M293.9,-54.98C320.24,-45.98 361.91,-31.73 390.97,-21.79"/>
<polygon fill="#63b8ff" stroke="#63b8ff" points="392.35,-25.02 400.68,-18.47 390.09,-18.4 392.35,-25.02"/>
</a>
</g>
</g>
<!-- Node7 -->
<g id="Node000007" class="node">
<title>Node7</title>
<g id="a_Node000007"><a xlink:href="error__codes_8h.html" target="_top" xlink:title="Seyahat Gideri Takibi &#45; Hata Kodları Enum&#39;u.">
<polygon fill="white" stroke="#666666" points="275,-19 199,-19 199,0 275,0 275,-19"/>
<text text-anchor="middle" x="237" y="-7" font-family="Helvetica,sans-Serif" font-size="10.00">error_codes.h</text>
</a>
</g>
</g>
<!-- Node3&#45;&gt;Node7 -->
<g id="edge6_Node000003_Node000007" class="edge">
<title>Node3&#45;&gt;Node7</title>
<g id="a_edge6_Node000003_Node000007"><a xlink:title=" ">
<path fill="none" stroke="#63b8ff" d="M263.72,-54.75C259.29,-47.42 252.84,-36.73 247.38,-27.7"/>
<polygon fill="#63b8ff" stroke="#63b8ff" points="250.35,-25.84 242.19,-19.09 244.36,-29.46 250.35,-25.84"/>
</a>
</g>
</g>
<!-- Node10&#45;&gt;Node3 -->
<g id="edge11_Node000010_Node000003" class="edge">
<title>Node10&#45;&gt;Node3</title>
<g id="a_edge11_Node000010_Node000003"><a xlink:title=" ">
<path fill="none" stroke="#63b8ff" d="M307.4,-109.75C300.84,-102.18 291.18,-91.05 283.19,-81.84"/>
<polygon fill="#63b8ff" stroke="#63b8ff" points="285.65,-79.35 276.45,-74.09 280.37,-83.94 285.65,-79.35"/>
</a>
</g>
</g>
<!-- Node10&#45;&gt;Node8 -->
<g id="edge12_Node000010_Node000008" class="edge">
<title>Node10&#45;&gt;Node8</title>
<g id="a_edge12_Node000010_Node000008"><a xlink:title=" ">
<path fill="none" stroke="#63b8ff" d="M293.31,-109.98C271.2,-101.3 236.68,-87.75 211.55,-77.88"/>
<polygon fill="#63b8ff" stroke="#63b8ff" points="212.67,-74.57 202.08,-74.17 210.11,-81.08 212.67,-74.57"/>
</a>
</g>
</g>
<!-- Node10&#45;&gt;Node11 -->
<g id="edge13_Node000010_Node000011" class="edge">
<title>Node10&#45;&gt;Node11</title>
<g id="a_edge13_Node000010_Node000011"><a xlink:title=" ">
<path fill="none" stroke="#63b8ff" d="M331.39,-109.98C347.57,-101.57 372.57,-88.59 391.38,-78.81"/>
<polygon fill="#63b8ff" stroke="#63b8ff" points="393.05,-81.89 400.31,-74.17 389.83,-75.68 393.05,-81.89"/>
</a>
</g>
</g>
<!-- Node10&#45;&gt;Node12 -->
<g id="edge14_Node000010_Node000012" class="edge">
<title>Node10&#45;&gt;Node12</title>
<g id="a_edge14_Node000010_Node000012"><a xlink:title=" ">
<path fill="none" stroke="#63b8ff" d="M321.11,-109.75C326.28,-102.34 333.85,-91.5 340.19,-82.41"/>
<polygon fill="#63b8ff" stroke="#63b8ff" points="343.15,-84.29 346,-74.09 337.41,-80.29 343.15,-84.29"/>
</a>
</g>
</g>
<!-- Node13&#45;&gt;Node4 -->
<g id="edge17_Node000013_Node000004" class="edge">
<title>Node13&#45;&gt;Node4</title>
<g id="a_edge17_Node000013_Node000004"><a xlink:title=" ">
<path fill="none" stroke="#63b8ff" d="M184.8,-109.8C172.38,-101.95 155.26,-89.3 145,-74 135.99,-60.56 131.14,-42.72 128.61,-29.38"/>
<polygon fill="#63b8ff" stroke="#63b8ff" points="132.05,-28.72 126.98,-19.42 125.14,-29.85 132.05,-28.72"/>
</a>
</g>
</g>
<!-- Node13&#45;&gt;Node8 -->
<g id="edge16_Node000013_Node000008" class="edge">
<title>Node13&#45;&gt;Node8</title>
<g id="a_edge16_Node000013_Node000008"><a xlink:title=" ">
<path fill="none" stroke="#63b8ff" d="M196.7,-109.75C194.02,-102.65 190.15,-92.4 186.81,-83.56"/>
<polygon fill="#63b8ff" stroke="#63b8ff" points="190.05,-82.21 183.24,-74.09 183.5,-84.68 190.05,-82.21"/>
</a>
</g>
</g>
<!-- Node13&#45;&gt;Node12 -->
<g id="edge18_Node000013_Node000012" class="edge">
<title>Node13&#45;&gt;Node12</title>
<g id="a_edge18_Node000013_Node000012"><a xlink:title=" ">
<path fill="none" stroke="#63b8ff" d="M224.42,-109.98C250.85,-100.77 293.02,-86.07 321.58,-76.11"/>
<polygon fill="#63b8ff" stroke="#63b8ff" points="322.77,-79.4 331.06,-72.8 320.47,-72.79 322.77,-79.4"/>
</a>
</g>
</g>
</g>
</svg>
