<?xml version="1.0" encoding="UTF-8" standalone="no"?>
<!DOCTYPE svg PUBLIC "-//W3C//DTD SVG 1.1//EN"
 "http://www.w3.org/Graphics/SVG/1.1/DTD/svg11.dtd">
<!-- Generated by graphviz version 6.0.2 (20221011.1828)
 -->
<!-- Title: src/travelexpense/header/rasp.h Pages: 1 -->
<svg width="271pt" height="93pt"
 viewBox="0.00 0.00 270.50 93.00" xmlns="http://www.w3.org/2000/svg" xmlns:xlink="http://www.w3.org/1999/xlink">

<svg id="main" version="1.1" xmlns="http://www.w3.org/2000/svg" xmlns:xlink="http://www.w3.org/1999/xlink" xml:space="preserve" onload="init(evt)">
<style type="text/css"><![CDATA[
.node, .edge {opacity: 0.7;}
.node.selected, .edge.selected {opacity: 1;}
.edge:hover path { stroke: red; }
.edge:hover polygon { stroke: red; fill: red; }
]]></style>
<script type="application/ecmascript" xlink:href="svg.min.js"/>
<svg id="graph" class="graph">
<g id="graph0" class="graph" transform="scale(1 1) rotate(0) translate(4 89)">
<title>src/travelexpense/header/rasp.h</title>
<!-- Node1 -->
<g id="Node000001" class="node">
<title>Node1</title>
<g id="a_Node000001"><a xlink:title="Seyahat Gideri Takibi &#45; RASP (Runtime Application Self&#45;Protection) Fonksiyonları">
<polygon fill="#999999" stroke="#666666" points="191,-85 66,-85 66,-55 191,-55 191,-85"/>
<text text-anchor="start" x="74" y="-73" font-family="Helvetica,sans-Serif" font-size="10.00">src/travelexpense/header</text>
<text text-anchor="middle" x="128.5" y="-62" font-family="Helvetica,sans-Serif" font-size="10.00">/rasp.h</text>
</a>
</g>
</g>
<!-- Node2 -->
<g id="Node000002" class="node">
<title>Node2</title>
<g id="a_Node000002"><a xlink:title=" ">
<polygon fill="#e0e0e0" stroke="#999999" points="51,-19 0,-19 0,0 51,0 51,-19"/>
<text text-anchor="middle" x="25.5" y="-7" font-family="Helvetica,sans-Serif" font-size="10.00">stddef.h</text>
</a>
</g>
</g>
<!-- Node1&#45;&gt;Node2 -->
<g id="edge1_Node000001_Node000002" class="edge">
<title>Node1&#45;&gt;Node2</title>
<g id="a_edge1_Node000001_Node000002"><a xlink:title=" ">
<path fill="none" stroke="#63b8ff" d="M103.83,-54.99C87.41,-45.66 65.95,-33.47 49.64,-24.21"/>
<polygon fill="#63b8ff" stroke="#63b8ff" points="51.13,-21.03 40.71,-19.14 47.68,-27.12 51.13,-21.03"/>
</a>
</g>
</g>
<!-- Node3 -->
<g id="Node000003" class="node">
<title>Node3</title>
<g id="a_Node000003"><a xlink:title=" ">
<polygon fill="#e0e0e0" stroke="#999999" points="118,-19 69,-19 69,0 118,0 118,-19"/>
<text text-anchor="middle" x="93.5" y="-7" font-family="Helvetica,sans-Serif" font-size="10.00">stdint.h</text>
</a>
</g>
</g>
<!-- Node1&#45;&gt;Node3 -->
<g id="edge2_Node000001_Node000003" class="edge">
<title>Node1&#45;&gt;Node3</title>
<g id="a_edge2_Node000001_Node000003"><a xlink:title=" ">
<path fill="none" stroke="#63b8ff" d="M120.03,-54.84C115.21,-46.78 109.13,-36.62 104,-28.06"/>
<polygon fill="#63b8ff" stroke="#63b8ff" points="106.88,-26.05 98.74,-19.27 100.88,-29.64 106.88,-26.05"/>
</a>
</g>
</g>
<!-- Node4 -->
<g id="Node000004" class="node">
<title>Node4</title>
<g id="a_Node000004"><a xlink:title=" ">
<polygon fill="#e0e0e0" stroke="#999999" points="192.5,-19 136.5,-19 136.5,0 192.5,0 192.5,-19"/>
<text text-anchor="middle" x="164.5" y="-7" font-family="Helvetica,sans-Serif" font-size="10.00">stdbool.h</text>
</a>
</g>
</g>
<!-- Node1&#45;&gt;Node4 -->
<g id="edge3_Node000001_Node000004" class="edge">
<title>Node1&#45;&gt;Node4</title>
<g id="a_edge3_Node000001_Node000004"><a xlink:title=" ">
<path fill="none" stroke="#63b8ff" d="M137.21,-54.84C142.17,-46.78 148.43,-36.62 153.7,-28.06"/>
<polygon fill="#63b8ff" stroke="#63b8ff" points="156.85,-29.62 159.11,-19.27 150.88,-25.95 156.85,-29.62"/>
</a>
</g>
</g>
<!-- Node5 -->
<g id="Node000005" class="node">
<title>Node5</title>
<g id="a_Node000005"><a xlink:href="export_8h.html" target="_top" xlink:title="Seyahat Gideri Takibi &#45; DLL Export/Import Macros.">
<polygon fill="white" stroke="#666666" points="262.5,-19 210.5,-19 210.5,0 262.5,0 262.5,-19"/>
<text text-anchor="middle" x="236.5" y="-7" font-family="Helvetica,sans-Serif" font-size="10.00">export.h</text>
</a>
</g>
</g>
<!-- Node1&#45;&gt;Node5 -->
<g id="edge4_Node000001_Node000005" class="edge">
<title>Node1&#45;&gt;Node5</title>
<g id="a_edge4_Node000001_Node000005"><a xlink:title=" ">
<path fill="none" stroke="#63b8ff" d="M154.37,-54.99C171.74,-45.58 194.51,-33.24 211.67,-23.95"/>
<polygon fill="#63b8ff" stroke="#63b8ff" points="213.42,-26.98 220.55,-19.14 210.09,-20.82 213.42,-26.98"/>
</a>
</g>
</g>
</g>
</svg>
</svg>

<style type='text/css'>
<![CDATA[
[data-mouse-over-selected='false'] { opacity: 0.7; }
[data-mouse-over-selected='true']  { opacity: 1.0; }
]]>
</style>
<script type="application/ecmascript"><![CDATA[
document.addEventListener('DOMContentLoaded', (event) => {
  highlightEdges();
  highlightAdjacentNodes();
});
]]></script>
</svg>
