<?xml version="1.0" encoding="UTF-8" standalone="no"?>
<!DOCTYPE svg PUBLIC "-//W3C//DTD SVG 1.1//EN"
 "http://www.w3.org/Graphics/SVG/1.1/DTD/svg11.dtd">
<!-- Generated by graphviz version 6.0.2 (20221011.1828)
 -->
<!-- Title: src/travelexpense/src/rasp.cpp Pages: 1 -->
<svg width="1462pt" height="148pt"
 viewBox="0.00 0.00 1461.50 148.00" xmlns="http://www.w3.org/2000/svg" xmlns:xlink="http://www.w3.org/1999/xlink">
<g id="graph0" class="graph" transform="scale(1 1) rotate(0) translate(4 144)">
<title>src/travelexpense/src/rasp.cpp</title>
<!-- Node1 -->
<g id="Node000001" class="node">
<title>Node1</title>
<g id="a_Node000001"><a xlink:title="Seyahat Gideri Takibi &#45; RASP (Runtime Application Self&#45;Protection) Fonksiyonları">
<polygon fill="#999999" stroke="#666666" points="870,-140 761,-140 761,-110 870,-110 870,-140"/>
<text text-anchor="start" x="769" y="-128" font-family="Helvetica,sans-Serif" font-size="10.00">src/travelexpense/src</text>
<text text-anchor="middle" x="815.5" y="-117" font-family="Helvetica,sans-Serif" font-size="10.00">/rasp.cpp</text>
</a>
</g>
</g>
<!-- Node2 -->
<g id="Node000002" class="node">
<title>Node2</title>
<g id="a_Node000002"><a xlink:title=" ">
<polygon fill="#e0e0e0" stroke="#999999" points="607.5,-19 561.5,-19 561.5,0 607.5,0 607.5,-19"/>
<text text-anchor="middle" x="584.5" y="-7" font-family="Helvetica,sans-Serif" font-size="10.00">cstdint</text>
</a>
</g>
</g>
<!-- Node1&#45;&gt;Node2 -->
<g id="edge1_Node000001_Node000002" class="edge">
<title>Node1&#45;&gt;Node2</title>
<g id="a_edge1_Node000001_Node000002"><a xlink:title=" ">
<path fill="none" stroke="#63b8ff" d="M760.83,-123.97C611.09,-123.31 202.8,-117.5 162.5,-74 156.76,-67.81 156.85,-61.28 162.5,-55 188.39,-26.23 456.15,-14.71 551.23,-11.5"/>
<polygon fill="#63b8ff" stroke="#63b8ff" points="551.55,-14.99 561.43,-11.17 551.32,-8 551.55,-14.99"/>
</a>
</g>
</g>
<!-- Node3 -->
<g id="Node000003" class="node">
<title>Node3</title>
<g id="a_Node000003"><a xlink:title=" ">
<polygon fill="#e0e0e0" stroke="#999999" points="870.5,-19 824.5,-19 824.5,0 870.5,0 870.5,-19"/>
<text text-anchor="middle" x="847.5" y="-7" font-family="Helvetica,sans-Serif" font-size="10.00">cstring</text>
</a>
</g>
</g>
<!-- Node1&#45;&gt;Node3 -->
<g id="edge2_Node000001_Node000003" class="edge">
<title>Node1&#45;&gt;Node3</title>
<g id="a_edge2_Node000001_Node000003"><a xlink:title=" ">
<path fill="none" stroke="#63b8ff" d="M833.52,-109.89C843.54,-100.85 855.06,-88.17 860.5,-74 866.16,-59.24 861.7,-41.57 856.52,-28.61"/>
<polygon fill="#63b8ff" stroke="#63b8ff" points="859.66,-27.08 852.38,-19.38 853.28,-29.94 859.66,-27.08"/>
</a>
</g>
</g>
<!-- Node4 -->
<g id="Node000004" class="node">
<title>Node4</title>
<g id="a_Node000004"><a xlink:title=" ">
<polygon fill="#e0e0e0" stroke="#999999" points="223,-74 172,-74 172,-55 223,-55 223,-74"/>
<text text-anchor="middle" x="197.5" y="-62" font-family="Helvetica,sans-Serif" font-size="10.00">unistd.h</text>
</a>
</g>
</g>
<!-- Node1&#45;&gt;Node4 -->
<g id="edge3_Node000001_Node000004" class="edge">
<title>Node1&#45;&gt;Node4</title>
<g id="a_edge3_Node000001_Node000004"><a xlink:title=" ">
<path fill="none" stroke="#63b8ff" d="M760.79,-122.23C658.69,-118.29 432.15,-106.57 233.09,-74.01"/>
<polygon fill="#63b8ff" stroke="#63b8ff" points="233.47,-70.53 223.03,-72.35 232.32,-77.43 233.47,-70.53"/>
</a>
</g>
</g>
<!-- Node5 -->
<g id="Node000005" class="node">
<title>Node5</title>
<g id="a_Node000005"><a xlink:title=" ">
<polygon fill="#e0e0e0" stroke="#999999" points="312,-74 241,-74 241,-55 312,-55 312,-74"/>
<text text-anchor="middle" x="276.5" y="-62" font-family="Helvetica,sans-Serif" font-size="10.00">sys/ptrace.h</text>
</a>
</g>
</g>
<!-- Node1&#45;&gt;Node5 -->
<g id="edge4_Node000001_Node000005" class="edge">
<title>Node1&#45;&gt;Node5</title>
<g id="a_edge4_Node000001_Node000005"><a xlink:title=" ">
<path fill="none" stroke="#63b8ff" d="M760.73,-120.09C671.12,-113.34 487.4,-98.01 322.79,-74.23"/>
<polygon fill="#63b8ff" stroke="#63b8ff" points="322.87,-70.7 312.47,-72.72 321.86,-77.63 322.87,-70.7"/>
</a>
</g>
</g>
<!-- Node6 -->
<g id="Node000006" class="node">
<title>Node6</title>
<g id="a_Node000006"><a xlink:title=" ">
<polygon fill="#e0e0e0" stroke="#999999" points="391,-74 330,-74 330,-55 391,-55 391,-74"/>
<text text-anchor="middle" x="360.5" y="-62" font-family="Helvetica,sans-Serif" font-size="10.00">sys/wait.h</text>
</a>
</g>
</g>
<!-- Node1&#45;&gt;Node6 -->
<g id="edge5_Node000001_Node000006" class="edge">
<title>Node1&#45;&gt;Node6</title>
<g id="a_edge5_Node000001_Node000006"><a xlink:title=" ">
<path fill="none" stroke="#63b8ff" d="M760.9,-118.99C683.27,-111.53 536.4,-96.13 401.15,-73.96"/>
<polygon fill="#63b8ff" stroke="#63b8ff" points="401.46,-70.46 391.02,-72.28 400.32,-77.37 401.46,-70.46"/>
</a>
</g>
</g>
<!-- Node7 -->
<g id="Node000007" class="node">
<title>Node7</title>
<g id="a_Node000007"><a xlink:title=" ">
<polygon fill="#e0e0e0" stroke="#999999" points="469.5,-74 409.5,-74 409.5,-55 469.5,-55 469.5,-74"/>
<text text-anchor="middle" x="439.5" y="-62" font-family="Helvetica,sans-Serif" font-size="10.00">sys/stat.h</text>
</a>
</g>
</g>
<!-- Node1&#45;&gt;Node7 -->
<g id="edge6_Node000001_Node000007" class="edge">
<title>Node1&#45;&gt;Node7</title>
<g id="a_edge6_Node000001_Node000007"><a xlink:title=" ">
<path fill="none" stroke="#63b8ff" d="M760.74,-117.03C695.99,-108.53 584.78,-93.12 479.83,-74.14"/>
<polygon fill="#63b8ff" stroke="#63b8ff" points="480.16,-70.64 469.69,-72.29 478.9,-77.53 480.16,-70.64"/>
</a>
</g>
</g>
<!-- Node8 -->
<g id="Node000008" class="node">
<title>Node8</title>
<g id="a_Node000008"><a xlink:title=" ">
<polygon fill="#e0e0e0" stroke="#999999" points="531,-74 488,-74 488,-55 531,-55 531,-74"/>
<text text-anchor="middle" x="509.5" y="-62" font-family="Helvetica,sans-Serif" font-size="10.00">fcntl.h</text>
</a>
</g>
</g>
<!-- Node1&#45;&gt;Node8 -->
<g id="edge7_Node000001_Node000008" class="edge">
<title>Node1&#45;&gt;Node8</title>
<g id="a_edge7_Node000001_Node000008"><a xlink:title=" ">
<path fill="none" stroke="#63b8ff" d="M760.98,-115.72C707.26,-107.21 622.69,-92.84 541.01,-74.18"/>
<polygon fill="#63b8ff" stroke="#63b8ff" points="541.6,-70.72 531.07,-71.88 540.02,-77.54 541.6,-70.72"/>
</a>
</g>
</g>
<!-- Node9 -->
<g id="Node000009" class="node">
<title>Node9</title>
<g id="a_Node000009"><a xlink:title=" ">
<polygon fill="#e0e0e0" stroke="#999999" points="598,-74 549,-74 549,-55 598,-55 598,-74"/>
<text text-anchor="middle" x="573.5" y="-62" font-family="Helvetica,sans-Serif" font-size="10.00">dirent.h</text>
</a>
</g>
</g>
<!-- Node1&#45;&gt;Node9 -->
<g id="edge8_Node000001_Node000009" class="edge">
<title>Node1&#45;&gt;Node9</title>
<g id="a_edge8_Node000001_Node000009"><a xlink:title=" ">
<path fill="none" stroke="#63b8ff" d="M760.87,-111.2C720.97,-101.8 665.31,-88.54 608.27,-74.41"/>
<polygon fill="#63b8ff" stroke="#63b8ff" points="608.9,-70.96 598.35,-71.95 607.22,-77.76 608.9,-70.96"/>
</a>
</g>
</g>
<!-- Node10 -->
<g id="Node000010" class="node">
<title>Node10</title>
<g id="a_Node000010"><a xlink:title=" ">
<polygon fill="#e0e0e0" stroke="#999999" points="673,-74 616,-74 616,-55 673,-55 673,-74"/>
<text text-anchor="middle" x="644.5" y="-62" font-family="Helvetica,sans-Serif" font-size="10.00">pthread.h</text>
</a>
</g>
</g>
<!-- Node1&#45;&gt;Node10 -->
<g id="edge9_Node000001_Node000010" class="edge">
<title>Node1&#45;&gt;Node10</title>
<g id="a_edge9_Node000001_Node000010"><a xlink:title=" ">
<path fill="none" stroke="#63b8ff" d="M774.54,-109.99C745.5,-100.05 706.95,-86.86 679.38,-77.43"/>
<polygon fill="#63b8ff" stroke="#63b8ff" points="680.35,-74.06 669.75,-74.14 678.08,-80.69 680.35,-74.06"/>
</a>
</g>
</g>
<!-- Node11 -->
<g id="Node000011" class="node">
<title>Node11</title>
<g id="a_Node000011"><a xlink:href="rasp_8h.html" target="_top" xlink:title="Seyahat Gideri Takibi &#45; RASP (Runtime Application Self&#45;Protection) Fonksiyonları">
<polygon fill="white" stroke="#666666" points="115.5,-74 71.5,-74 71.5,-55 115.5,-55 115.5,-74"/>
<text text-anchor="middle" x="93.5" y="-62" font-family="Helvetica,sans-Serif" font-size="10.00">rasp.h</text>
</a>
</g>
</g>
<!-- Node1&#45;&gt;Node11 -->
<g id="edge10_Node000001_Node000011" class="edge">
<title>Node1&#45;&gt;Node11</title>
<g id="a_edge10_Node000001_Node000011"><a xlink:title=" ">
<path fill="none" stroke="#63b8ff" d="M760.92,-122.97C644.34,-120.11 362.61,-109.78 129.5,-74 128.25,-73.81 126.98,-73.6 125.7,-73.37"/>
<polygon fill="#63b8ff" stroke="#63b8ff" points="126.36,-69.93 115.86,-71.36 124.96,-76.79 126.36,-69.93"/>
</a>
</g>
</g>
<!-- Node16 -->
<g id="Node000016" class="node">
<title>Node16</title>
<g id="a_Node000016"><a xlink:href="encryption_8h.html" target="_top" xlink:title="Seyahat Gideri Takibi &#45; Şifreleme Fonksiyonları">
<polygon fill="white" stroke="#666666" points="761.5,-74 691.5,-74 691.5,-55 761.5,-55 761.5,-74"/>
<text text-anchor="middle" x="726.5" y="-62" font-family="Helvetica,sans-Serif" font-size="10.00">encryption.h</text>
</a>
</g>
</g>
<!-- Node1&#45;&gt;Node16 -->
<g id="edge15_Node000001_Node000016" class="edge">
<title>Node1&#45;&gt;Node16</title>
<g id="a_edge15_Node000001_Node000016"><a xlink:title=" ">
<path fill="none" stroke="#63b8ff" d="M793.96,-109.84C780.03,-100.68 761.97,-88.82 748.05,-79.66"/>
<polygon fill="#63b8ff" stroke="#63b8ff" points="749.85,-76.66 739.58,-74.09 746.01,-82.51 749.85,-76.66"/>
</a>
</g>
</g>
<!-- Node18 -->
<g id="Node000018" class="node">
<title>Node18</title>
<g id="a_Node000018"><a xlink:href="safe__string_8h.html" target="_top" xlink:title="Güvenli string işlemleri için yardımcı fonksiyonlar.">
<polygon fill="white" stroke="#666666" points="851.5,-74 779.5,-74 779.5,-55 851.5,-55 851.5,-74"/>
<text text-anchor="middle" x="815.5" y="-62" font-family="Helvetica,sans-Serif" font-size="10.00">safe_string.h</text>
</a>
</g>
</g>
<!-- Node1&#45;&gt;Node18 -->
<g id="edge19_Node000001_Node000018" class="edge">
<title>Node1&#45;&gt;Node18</title>
<g id="a_edge19_Node000001_Node000018"><a xlink:title=" ">
<path fill="none" stroke="#63b8ff" d="M815.5,-109.84C815.5,-102.21 815.5,-92.7 815.5,-84.45"/>
<polygon fill="#63b8ff" stroke="#63b8ff" points="819,-84.27 815.5,-74.27 812,-84.27 819,-84.27"/>
</a>
</g>
</g>
<!-- Node19 -->
<g id="Node000019" class="node">
<title>Node19</title>
<g id="a_Node000019"><a xlink:title=" ">
<polygon fill="#e0e0e0" stroke="#999999" points="953,-74 908,-74 908,-55 953,-55 953,-74"/>
<text text-anchor="middle" x="930.5" y="-62" font-family="Helvetica,sans-Serif" font-size="10.00">cstdlib</text>
</a>
</g>
</g>
<!-- Node1&#45;&gt;Node19 -->
<g id="edge22_Node000001_Node000019" class="edge">
<title>Node1&#45;&gt;Node19</title>
<g id="a_edge22_Node000001_Node000019"><a xlink:title=" ">
<path fill="none" stroke="#63b8ff" d="M843.05,-109.99C861.72,-100.49 886.24,-88.02 904.56,-78.69"/>
<polygon fill="#63b8ff" stroke="#63b8ff" points="906.19,-81.79 913.52,-74.14 903.02,-75.55 906.19,-81.79"/>
</a>
</g>
</g>
<!-- Node20 -->
<g id="Node000020" class="node">
<title>Node20</title>
<g id="a_Node000020"><a xlink:title=" ">
<polygon fill="#e0e0e0" stroke="#999999" points="1012,-74 971,-74 971,-55 1012,-55 1012,-74"/>
<text text-anchor="middle" x="991.5" y="-62" font-family="Helvetica,sans-Serif" font-size="10.00">ctime</text>
</a>
</g>
</g>
<!-- Node1&#45;&gt;Node20 -->
<g id="edge23_Node000001_Node000020" class="edge">
<title>Node1&#45;&gt;Node20</title>
<g id="a_edge23_Node000001_Node000020"><a xlink:title=" ">
<path fill="none" stroke="#63b8ff" d="M857.66,-109.99C889.54,-99.39 932.56,-85.09 961.12,-75.6"/>
<polygon fill="#63b8ff" stroke="#63b8ff" points="962.56,-78.81 970.94,-72.33 960.35,-72.17 962.56,-78.81"/>
</a>
</g>
</g>
<!-- Node21 -->
<g id="Node000021" class="node">
<title>Node21</title>
<g id="a_Node000021"><a xlink:title=" ">
<polygon fill="#e0e0e0" stroke="#999999" points="1079,-74 1030,-74 1030,-55 1079,-55 1079,-74"/>
<text text-anchor="middle" x="1054.5" y="-62" font-family="Helvetica,sans-Serif" font-size="10.00">fstream</text>
</a>
</g>
</g>
<!-- Node1&#45;&gt;Node21 -->
<g id="edge24_Node000001_Node000021" class="edge">
<title>Node1&#45;&gt;Node21</title>
<g id="a_edge24_Node000001_Node000021"><a xlink:title=" ">
<path fill="none" stroke="#63b8ff" d="M870.2,-110.94C909.47,-101.52 963.92,-88.35 1019.91,-74.38"/>
<polygon fill="#63b8ff" stroke="#63b8ff" points="1020.79,-77.76 1029.64,-71.94 1019.09,-70.97 1020.79,-77.76"/>
</a>
</g>
</g>
<!-- Node22 -->
<g id="Node000022" class="node">
<title>Node22</title>
<g id="a_Node000022"><a xlink:title=" ">
<polygon fill="#e0e0e0" stroke="#999999" points="1139.5,-74 1097.5,-74 1097.5,-55 1139.5,-55 1139.5,-74"/>
<text text-anchor="middle" x="1118.5" y="-62" font-family="Helvetica,sans-Serif" font-size="10.00">vector</text>
</a>
</g>
</g>
<!-- Node1&#45;&gt;Node22 -->
<g id="edge25_Node000001_Node000022" class="edge">
<title>Node1&#45;&gt;Node22</title>
<g id="a_edge25_Node000001_Node000022"><a xlink:title=" ">
<path fill="none" stroke="#63b8ff" d="M870.2,-115.55C923.38,-106.98 1006.6,-92.65 1087.42,-74.07"/>
<polygon fill="#63b8ff" stroke="#63b8ff" points="1088.31,-77.46 1097.26,-71.79 1086.73,-70.64 1088.31,-77.46"/>
</a>
</g>
</g>
<!-- Node23 -->
<g id="Node000023" class="node">
<title>Node23</title>
<g id="a_Node000023"><a xlink:title=" ">
<polygon fill="#e0e0e0" stroke="#999999" points="1199,-74 1158,-74 1158,-55 1199,-55 1199,-74"/>
<text text-anchor="middle" x="1178.5" y="-62" font-family="Helvetica,sans-Serif" font-size="10.00">string</text>
</a>
</g>
</g>
<!-- Node1&#45;&gt;Node23 -->
<g id="edge26_Node000001_Node000023" class="edge">
<title>Node1&#45;&gt;Node23</title>
<g id="a_edge26_Node000001_Node000023"><a xlink:title=" ">
<path fill="none" stroke="#63b8ff" d="M870.1,-117.96C934.31,-110.38 1044.22,-95.91 1147.92,-73.86"/>
<polygon fill="#63b8ff" stroke="#63b8ff" points="1148.89,-77.23 1157.93,-71.7 1147.42,-70.38 1148.89,-77.23"/>
</a>
</g>
</g>
<!-- Node24 -->
<g id="Node000024" class="node">
<title>Node24</title>
<g id="a_Node000024"><a xlink:title=" ">
<polygon fill="#e0e0e0" stroke="#999999" points="1261.5,-74 1217.5,-74 1217.5,-55 1261.5,-55 1261.5,-74"/>
<text text-anchor="middle" x="1239.5" y="-62" font-family="Helvetica,sans-Serif" font-size="10.00">thread</text>
</a>
</g>
</g>
<!-- Node1&#45;&gt;Node24 -->
<g id="edge27_Node000001_Node000024" class="edge">
<title>Node1&#45;&gt;Node24</title>
<g id="a_edge27_Node000001_Node000024"><a xlink:title=" ">
<path fill="none" stroke="#63b8ff" d="M870.25,-119.49C944.53,-112.84 1081.49,-98.65 1207.06,-74.03"/>
<polygon fill="#63b8ff" stroke="#63b8ff" points="1208.11,-77.39 1217.24,-72.01 1206.75,-70.52 1208.11,-77.39"/>
</a>
</g>
</g>
<!-- Node25 -->
<g id="Node000025" class="node">
<title>Node25</title>
<g id="a_Node000025"><a xlink:title=" ">
<polygon fill="#e0e0e0" stroke="#999999" points="1325.5,-74 1279.5,-74 1279.5,-55 1325.5,-55 1325.5,-74"/>
<text text-anchor="middle" x="1302.5" y="-62" font-family="Helvetica,sans-Serif" font-size="10.00">atomic</text>
</a>
</g>
</g>
<!-- Node1&#45;&gt;Node25 -->
<g id="edge28_Node000001_Node000025" class="edge">
<title>Node1&#45;&gt;Node25</title>
<g id="a_edge28_Node000001_Node000025"><a xlink:title=" ">
<path fill="none" stroke="#63b8ff" d="M870.17,-120.66C954.07,-114.94 1119.69,-101.35 1268.91,-74.03"/>
<polygon fill="#63b8ff" stroke="#63b8ff" points="1269.98,-77.4 1279.17,-72.13 1268.7,-70.51 1269.98,-77.4"/>
</a>
</g>
</g>
<!-- Node26 -->
<g id="Node000026" class="node">
<title>Node26</title>
<g id="a_Node000026"><a xlink:title=" ">
<polygon fill="#e0e0e0" stroke="#999999" points="1389.5,-74 1343.5,-74 1343.5,-55 1389.5,-55 1389.5,-74"/>
<text text-anchor="middle" x="1366.5" y="-62" font-family="Helvetica,sans-Serif" font-size="10.00">chrono</text>
</a>
</g>
</g>
<!-- Node1&#45;&gt;Node26 -->
<g id="edge29_Node000001_Node000026" class="edge">
<title>Node1&#45;&gt;Node26</title>
<g id="a_edge29_Node000001_Node000026"><a xlink:title=" ">
<path fill="none" stroke="#63b8ff" d="M870.07,-121.68C963.32,-117.08 1159.33,-104.62 1333.34,-73.93"/>
<polygon fill="#63b8ff" stroke="#63b8ff" points="1333.95,-77.37 1343.18,-72.17 1332.72,-70.48 1333.95,-77.37"/>
</a>
</g>
</g>
<!-- Node27 -->
<g id="Node000027" class="node">
<title>Node27</title>
<g id="a_Node000027"><a xlink:title=" ">
<polygon fill="#e0e0e0" stroke="#999999" points="1453.5,-74 1407.5,-74 1407.5,-55 1453.5,-55 1453.5,-74"/>
<text text-anchor="middle" x="1430.5" y="-62" font-family="Helvetica,sans-Serif" font-size="10.00">cctype</text>
</a>
</g>
</g>
<!-- Node1&#45;&gt;Node27 -->
<g id="edge30_Node000001_Node000027" class="edge">
<title>Node1&#45;&gt;Node27</title>
<g id="a_edge30_Node000001_Node000027"><a xlink:title=" ">
<path fill="none" stroke="#63b8ff" d="M870.16,-122.48C972.16,-118.96 1198.43,-107.92 1397.15,-73.94"/>
<polygon fill="#63b8ff" stroke="#63b8ff" points="1397.93,-77.35 1407.19,-72.2 1396.73,-70.45 1397.93,-77.35"/>
</a>
</g>
</g>
<!-- Node12 -->
<g id="Node000012" class="node">
<title>Node12</title>
<g id="a_Node000012"><a xlink:title=" ">
<polygon fill="#e0e0e0" stroke="#999999" points="51,-19 0,-19 0,0 51,0 51,-19"/>
<text text-anchor="middle" x="25.5" y="-7" font-family="Helvetica,sans-Serif" font-size="10.00">stddef.h</text>
</a>
</g>
</g>
<!-- Node11&#45;&gt;Node12 -->
<g id="edge11_Node000011_Node000012" class="edge">
<title>Node11&#45;&gt;Node12</title>
<g id="a_edge11_Node000011_Node000012"><a xlink:title=" ">
<path fill="none" stroke="#63b8ff" d="M82.57,-54.98C72.42,-47.07 57.08,-35.11 44.85,-25.58"/>
<polygon fill="#63b8ff" stroke="#63b8ff" points="46.66,-22.56 36.62,-19.17 42.36,-28.08 46.66,-22.56"/>
</a>
</g>
</g>
<!-- Node13 -->
<g id="Node000013" class="node">
<title>Node13</title>
<g id="a_Node000013"><a xlink:title=" ">
<polygon fill="#e0e0e0" stroke="#999999" points="118,-19 69,-19 69,0 118,0 118,-19"/>
<text text-anchor="middle" x="93.5" y="-7" font-family="Helvetica,sans-Serif" font-size="10.00">stdint.h</text>
</a>
</g>
</g>
<!-- Node11&#45;&gt;Node13 -->
<g id="edge12_Node000011_Node000013" class="edge">
<title>Node11&#45;&gt;Node13</title>
<g id="a_edge12_Node000011_Node000013"><a xlink:title=" ">
<path fill="none" stroke="#63b8ff" d="M93.5,-54.75C93.5,-47.8 93.5,-37.85 93.5,-29.13"/>
<polygon fill="#63b8ff" stroke="#63b8ff" points="97,-29.09 93.5,-19.09 90,-29.09 97,-29.09"/>
</a>
</g>
</g>
<!-- Node14 -->
<g id="Node000014" class="node">
<title>Node14</title>
<g id="a_Node000014"><a xlink:title=" ">
<polygon fill="#e0e0e0" stroke="#999999" points="192.5,-19 136.5,-19 136.5,0 192.5,0 192.5,-19"/>
<text text-anchor="middle" x="164.5" y="-7" font-family="Helvetica,sans-Serif" font-size="10.00">stdbool.h</text>
</a>
</g>
</g>
<!-- Node11&#45;&gt;Node14 -->
<g id="edge13_Node000011_Node000014" class="edge">
<title>Node11&#45;&gt;Node14</title>
<g id="a_edge13_Node000011_Node000014"><a xlink:title=" ">
<path fill="none" stroke="#63b8ff" d="M104.91,-54.98C115.61,-47 131.84,-34.88 144.66,-25.31"/>
<polygon fill="#63b8ff" stroke="#63b8ff" points="146.97,-27.96 152.89,-19.17 142.78,-22.35 146.97,-27.96"/>
</a>
</g>
</g>
<!-- Node15 -->
<g id="Node000015" class="node">
<title>Node15</title>
<g id="a_Node000015"><a xlink:href="export_8h.html" target="_top" xlink:title="Seyahat Gideri Takibi &#45; DLL Export/Import Macros.">
<polygon fill="white" stroke="#666666" points="364.5,-19 312.5,-19 312.5,0 364.5,0 364.5,-19"/>
<text text-anchor="middle" x="338.5" y="-7" font-family="Helvetica,sans-Serif" font-size="10.00">export.h</text>
</a>
</g>
</g>
<!-- Node11&#45;&gt;Node15 -->
<g id="edge14_Node000011_Node000015" class="edge">
<title>Node11&#45;&gt;Node15</title>
<g id="a_edge14_Node000011_Node000015"><a xlink:title=" ">
<path fill="none" stroke="#63b8ff" d="M115.57,-58.21C120.17,-57.13 124.99,-56.01 129.5,-55 190.07,-41.4 260.74,-26.57 302.44,-17.93"/>
<polygon fill="#63b8ff" stroke="#63b8ff" points="303.31,-21.32 312.39,-15.87 301.89,-14.47 303.31,-21.32"/>
</a>
</g>
</g>
<!-- Node16&#45;&gt;Node2 -->
<g id="edge16_Node000016_Node000002" class="edge">
<title>Node16&#45;&gt;Node2</title>
<g id="a_edge16_Node000016_Node000002"><a xlink:title=" ">
<path fill="none" stroke="#63b8ff" d="M703.69,-54.98C680.33,-46.27 643.8,-32.63 617.33,-22.75"/>
<polygon fill="#63b8ff" stroke="#63b8ff" points="618.32,-19.39 607.73,-19.17 615.87,-25.95 618.32,-19.39"/>
</a>
</g>
</g>
<!-- Node16&#45;&gt;Node15 -->
<g id="edge18_Node000016_Node000015" class="edge">
<title>Node16&#45;&gt;Node15</title>
<g id="a_edge18_Node000016_Node000015"><a xlink:title=" ">
<path fill="none" stroke="#63b8ff" d="M691.16,-56.63C687.9,-56.05 684.64,-55.5 681.5,-55 570.22,-37.29 437.79,-21.63 375,-14.54"/>
<polygon fill="#63b8ff" stroke="#63b8ff" points="375.15,-11.03 364.82,-13.39 374.37,-17.99 375.15,-11.03"/>
</a>
</g>
</g>
<!-- Node17 -->
<g id="Node000017" class="node">
<title>Node17</title>
<g id="a_Node000017"><a xlink:title=" ">
<polygon fill="#e0e0e0" stroke="#999999" points="762.5,-19 714.5,-19 714.5,0 762.5,0 762.5,-19"/>
<text text-anchor="middle" x="738.5" y="-7" font-family="Helvetica,sans-Serif" font-size="10.00">cstddef</text>
</a>
</g>
</g>
<!-- Node16&#45;&gt;Node17 -->
<g id="edge17_Node000016_Node000017" class="edge">
<title>Node16&#45;&gt;Node17</title>
<g id="a_edge17_Node000016_Node000017"><a xlink:title=" ">
<path fill="none" stroke="#63b8ff" d="M728.48,-54.75C730.07,-47.72 732.36,-37.62 734.35,-28.84"/>
<polygon fill="#63b8ff" stroke="#63b8ff" points="737.76,-29.62 736.56,-19.09 730.93,-28.07 737.76,-29.62"/>
</a>
</g>
</g>
<!-- Node18&#45;&gt;Node3 -->
<g id="edge20_Node000018_Node000003" class="edge">
<title>Node18&#45;&gt;Node3</title>
<g id="a_edge20_Node000018_Node000003"><a xlink:title=" ">
<path fill="none" stroke="#63b8ff" d="M820.78,-54.75C825.21,-47.42 831.66,-36.73 837.12,-27.7"/>
<polygon fill="#63b8ff" stroke="#63b8ff" points="840.14,-29.46 842.31,-19.09 834.15,-25.84 840.14,-29.46"/>
</a>
</g>
</g>
<!-- Node18&#45;&gt;Node17 -->
<g id="edge21_Node000018_Node000017" class="edge">
<title>Node18&#45;&gt;Node17</title>
<g id="a_edge21_Node000018_Node000017"><a xlink:title=" ">
<path fill="none" stroke="#63b8ff" d="M803.13,-54.98C791.41,-46.92 773.58,-34.65 759.61,-25.03"/>
<polygon fill="#63b8ff" stroke="#63b8ff" points="761.32,-21.96 751.1,-19.17 757.35,-27.72 761.32,-21.96"/>
</a>
</g>
</g>
</g>
</svg>
