<?xml version="1.0" encoding="UTF-8" standalone="no"?>
<!DOCTYPE svg PUBLIC "-//W3C//DTD SVG 1.1//EN"
 "http://www.w3.org/Graphics/SVG/1.1/DTD/svg11.dtd">
<!-- Generated by graphviz version 6.0.2 (20221011.1828)
 -->
<!-- Title: src/travelexpense/header/reportGenerator.h Pages: 1 -->
<svg width="359pt" height="148pt"
 viewBox="0.00 0.00 359.00 148.00" xmlns="http://www.w3.org/2000/svg" xmlns:xlink="http://www.w3.org/1999/xlink">
<g id="graph0" class="graph" transform="scale(1 1) rotate(0) translate(4 144)">
<title>src/travelexpense/header/reportGenerator.h</title>
<!-- Node1 -->
<g id="Node000001" class="node">
<title>Node1</title>
<g id="a_Node000001"><a xlink:title="Seyahat Gideri Takibi &#45; Rapor Oluşturma Modülü">
<polygon fill="#999999" stroke="#666666" points="299.5,-140 174.5,-140 174.5,-110 299.5,-110 299.5,-140"/>
<text text-anchor="start" x="182.5" y="-128" font-family="Helvetica,sans-Serif" font-size="10.00">src/travelexpense/header</text>
<text text-anchor="middle" x="237" y="-117" font-family="Helvetica,sans-Serif" font-size="10.00">/reportGenerator.h</text>
</a>
</g>
</g>
<!-- Node2 -->
<g id="Node000002" class="node">
<title>Node2</title>
<g id="a_Node000002"><a xlink:href="common_types_8h.html" target="_top" xlink:title="Seyahat Gideri Takibi &#45; Ortak Veri Tipleri ve Modelleri.">
<polygon fill="white" stroke="#666666" points="160.5,-74 71.5,-74 71.5,-55 160.5,-55 160.5,-74"/>
<text text-anchor="middle" x="116" y="-62" font-family="Helvetica,sans-Serif" font-size="10.00">commonTypes.h</text>
</a>
</g>
</g>
<!-- Node1&#45;&gt;Node2 -->
<g id="edge1_Node000001_Node000002" class="edge">
<title>Node1&#45;&gt;Node2</title>
<g id="a_edge1_Node000001_Node000002"><a xlink:title=" ">
<path fill="none" stroke="#63b8ff" d="M208.02,-109.99C188.28,-100.45 162.33,-87.9 143.03,-78.57"/>
<polygon fill="#63b8ff" stroke="#63b8ff" points="144.4,-75.34 133.87,-74.14 141.35,-81.64 144.4,-75.34"/>
</a>
</g>
</g>
<!-- Node7 -->
<g id="Node000007" class="node">
<title>Node7</title>
<g id="a_Node000007"><a xlink:href="export_8h.html" target="_top" xlink:title="Seyahat Gideri Takibi &#45; DLL Export/Import Macros.">
<polygon fill="white" stroke="#666666" points="231,-74 179,-74 179,-55 231,-55 231,-74"/>
<text text-anchor="middle" x="205" y="-62" font-family="Helvetica,sans-Serif" font-size="10.00">export.h</text>
</a>
</g>
</g>
<!-- Node1&#45;&gt;Node7 -->
<g id="edge6_Node000001_Node000007" class="edge">
<title>Node1&#45;&gt;Node7</title>
<g id="a_edge6_Node000001_Node000007"><a xlink:title=" ">
<path fill="none" stroke="#63b8ff" d="M229.25,-109.84C224.85,-101.78 219.29,-91.62 214.6,-83.06"/>
<polygon fill="#63b8ff" stroke="#63b8ff" points="217.66,-81.36 209.8,-74.27 211.52,-84.72 217.66,-81.36"/>
</a>
</g>
</g>
<!-- Node8 -->
<g id="Node000008" class="node">
<title>Node8</title>
<g id="a_Node000008"><a xlink:title=" ">
<polygon fill="#e0e0e0" stroke="#999999" points="290.5,-74 249.5,-74 249.5,-55 290.5,-55 290.5,-74"/>
<text text-anchor="middle" x="270" y="-62" font-family="Helvetica,sans-Serif" font-size="10.00">string</text>
</a>
</g>
</g>
<!-- Node1&#45;&gt;Node8 -->
<g id="edge7_Node000001_Node000008" class="edge">
<title>Node1&#45;&gt;Node8</title>
<g id="a_edge7_Node000001_Node000008"><a xlink:title=" ">
<path fill="none" stroke="#63b8ff" d="M244.99,-109.84C249.53,-101.78 255.27,-91.62 260.1,-83.06"/>
<polygon fill="#63b8ff" stroke="#63b8ff" points="263.19,-84.7 265.06,-74.27 257.09,-81.26 263.19,-84.7"/>
</a>
</g>
</g>
<!-- Node9 -->
<g id="Node000009" class="node">
<title>Node9</title>
<g id="a_Node000009"><a xlink:title=" ">
<polygon fill="#e0e0e0" stroke="#999999" points="351,-74 309,-74 309,-55 351,-55 351,-74"/>
<text text-anchor="middle" x="330" y="-62" font-family="Helvetica,sans-Serif" font-size="10.00">vector</text>
</a>
</g>
</g>
<!-- Node1&#45;&gt;Node9 -->
<g id="edge8_Node000001_Node000009" class="edge">
<title>Node1&#45;&gt;Node9</title>
<g id="a_edge8_Node000001_Node000009"><a xlink:title=" ">
<path fill="none" stroke="#63b8ff" d="M259.51,-109.84C274.06,-100.68 292.93,-88.82 307.49,-79.66"/>
<polygon fill="#63b8ff" stroke="#63b8ff" points="309.74,-82.38 316.34,-74.09 306.01,-76.46 309.74,-82.38"/>
</a>
</g>
</g>
<!-- Node3 -->
<g id="Node000003" class="node">
<title>Node3</title>
<g id="a_Node000003"><a xlink:title=" ">
<polygon fill="#e0e0e0" stroke="#999999" points="46,-19 0,-19 0,0 46,0 46,-19"/>
<text text-anchor="middle" x="23" y="-7" font-family="Helvetica,sans-Serif" font-size="10.00">cstdint</text>
</a>
</g>
</g>
<!-- Node2&#45;&gt;Node3 -->
<g id="edge2_Node000002_Node000003" class="edge">
<title>Node2&#45;&gt;Node3</title>
<g id="a_edge2_Node000002_Node000003"><a xlink:title=" ">
<path fill="none" stroke="#63b8ff" d="M101.06,-54.98C86.5,-46.69 64.13,-33.94 47.07,-24.22"/>
<polygon fill="#63b8ff" stroke="#63b8ff" points="48.64,-21.08 38.21,-19.17 45.17,-27.16 48.64,-21.08"/>
</a>
</g>
</g>
<!-- Node4 -->
<g id="Node000004" class="node">
<title>Node4</title>
<g id="a_Node000004"><a xlink:title=" ">
<polygon fill="#e0e0e0" stroke="#999999" points="105.5,-19 64.5,-19 64.5,0 105.5,0 105.5,-19"/>
<text text-anchor="middle" x="85" y="-7" font-family="Helvetica,sans-Serif" font-size="10.00">ctime</text>
</a>
</g>
</g>
<!-- Node2&#45;&gt;Node4 -->
<g id="edge3_Node000002_Node000004" class="edge">
<title>Node2&#45;&gt;Node4</title>
<g id="a_edge3_Node000002_Node000004"><a xlink:title=" ">
<path fill="none" stroke="#63b8ff" d="M110.88,-54.75C106.64,-47.49 100.47,-36.95 95.22,-27.98"/>
<polygon fill="#63b8ff" stroke="#63b8ff" points="98.09,-25.95 90.02,-19.09 92.05,-29.49 98.09,-25.95"/>
</a>
</g>
</g>
<!-- Node5 -->
<g id="Node000005" class="node">
<title>Node5</title>
<g id="a_Node000005"><a xlink:title=" ">
<polygon fill="#e0e0e0" stroke="#999999" points="170,-19 124,-19 124,0 170,0 170,-19"/>
<text text-anchor="middle" x="147" y="-7" font-family="Helvetica,sans-Serif" font-size="10.00">cstring</text>
</a>
</g>
</g>
<!-- Node2&#45;&gt;Node5 -->
<g id="edge4_Node000002_Node000005" class="edge">
<title>Node2&#45;&gt;Node5</title>
<g id="a_edge4_Node000002_Node000005"><a xlink:title=" ">
<path fill="none" stroke="#63b8ff" d="M121.12,-54.75C125.36,-47.49 131.53,-36.95 136.78,-27.98"/>
<polygon fill="#63b8ff" stroke="#63b8ff" points="139.95,-29.49 141.98,-19.09 133.91,-25.95 139.95,-29.49"/>
</a>
</g>
</g>
<!-- Node6 -->
<g id="Node000006" class="node">
<title>Node6</title>
<g id="a_Node000006"><a xlink:href="error__codes_8h.html" target="_top" xlink:title="Seyahat Gideri Takibi &#45; Hata Kodları Enum&#39;u.">
<polygon fill="white" stroke="#666666" points="264,-19 188,-19 188,0 264,0 264,-19"/>
<text text-anchor="middle" x="226" y="-7" font-family="Helvetica,sans-Serif" font-size="10.00">error_codes.h</text>
</a>
</g>
</g>
<!-- Node2&#45;&gt;Node6 -->
<g id="edge5_Node000002_Node000006" class="edge">
<title>Node2&#45;&gt;Node6</title>
<g id="a_edge5_Node000002_Node000006"><a xlink:title=" ">
<path fill="none" stroke="#63b8ff" d="M133.67,-54.98C151.29,-46.5 178.58,-33.35 198.93,-23.54"/>
<polygon fill="#63b8ff" stroke="#63b8ff" points="200.52,-26.66 208.01,-19.17 197.48,-20.36 200.52,-26.66"/>
</a>
</g>
</g>
</g>
</svg>
