<?xml version="1.0" encoding="UTF-8" standalone="no"?>
<!DOCTYPE svg PUBLIC "-//W3C//DTD SVG 1.1//EN"
 "http://www.w3.org/Graphics/SVG/1.1/DTD/svg11.dtd">
<!-- Generated by graphviz version 6.0.2 (20221011.1828)
 -->
<!-- Title: src/travelexpense/header/safe_string.h Pages: 1 -->
<!--zoomable 104 -->

<svg id="main" version="1.1" xmlns="http://www.w3.org/2000/svg" xmlns:xlink="http://www.w3.org/1999/xlink" xml:space="preserve" onload="init(evt)">
<style type="text/css"><![CDATA[
.node, .edge {opacity: 0.7;}
.node.selected, .edge.selected {opacity: 1;}
.edge:hover path { stroke: red; }
.edge:hover polygon { stroke: red; fill: red; }
]]></style>

<defs>
  <circle id="rim" cx="0" cy="0" r="7"/>
  <circle id="rim2" cx="0" cy="0" r="3.5"/>
  <g id="zoomPlus">
    <use xlink:href="#rim" fill="#404040"><set attributeName="fill" to="#808080" begin="zoomplus.mouseover" end="zoomplus.mouseout"/></use>
    <path d="M-4,0h8M0,-4v8" fill="none" stroke="white" stroke-width="1.5" pointer-events="none"/>
  </g>
  <g id="zoomMin">
    <use xlink:href="#rim" fill="#404040"><set attributeName="fill" to="#808080" begin="zoomminus.mouseover" end="zoomminus.mouseout"/></use>
    <path d="M-4,0h8" fill="none" stroke="white" stroke-width="1.5" pointer-events="none"/>
  </g>
  <g id="arrowUp" transform="translate(30 24)">
    <use xlink:href="#rim"/>
    <path pointer-events="none" fill="none" stroke="white" stroke-width="1.5" d="M0,-3.0v7 M-2.5,-0.5L0,-3.0L2.5,-0.5"/>
  </g>
  <g id="arrowRight" transform="rotate(90) translate(36 -43)">
    <use xlink:href="#rim"/>
    <path pointer-events="none" fill="none" stroke="white" stroke-width="1.5" d="M0,-3.0v7 M-2.5,-0.5L0,-3.0L2.5,-0.5"/>
  </g>
  <g id="arrowDown" transform="rotate(180) translate(-30 -48)">
    <use xlink:href="#rim"/>
    <path pointer-events="none" fill="none" stroke="white" stroke-width="1.5" d="M0,-3.0v7 M-2.5,-0.5L0,-3.0L2.5,-0.5"/>
  </g>
  <g id="arrowLeft" transform="rotate(270) translate(-36 17)">
    <use xlink:href="#rim"/>
    <path pointer-events="none" fill="none" stroke="white" stroke-width="1.5" d="M0,-3.0v7 M-2.5,-0.5L0,-3.0L2.5,-0.5"/>
  </g>
  <g id="resetDef">
    <use xlink:href="#rim2" fill="#404040"><set attributeName="fill" to="#808080" begin="reset.mouseover" end="reset.mouseout"/></use>
  </g>
</defs>
<script type="application/ecmascript">
var viewWidth = 1139;
var viewHeight = 104;
var sectionId = 'dynsection-1';
</script>
<script type="application/ecmascript" xlink:href="svg.min.js"/>
<svg id="graph" class="graph">
<g id="viewport">
<title>src/travelexpense/header/safe_string.h</title>
<!-- Node1 -->
<g id="Node000001" class="node">
<title>Node1</title>
<g id="a_Node000001"><a xlink:title="Güvenli string işlemleri için yardımcı fonksiyonlar.">
<polygon fill="#999999" stroke="#666666" points="629,-96 504,-96 504,-66 629,-66 629,-96"/>
<text text-anchor="start" x="512" y="-84" font-family="Helvetica,sans-Serif" font-size="10.00">src/travelexpense/header</text>
<text text-anchor="middle" x="566.5" y="-73" font-family="Helvetica,sans-Serif" font-size="10.00">/safe_string.h</text>
</a>
</g>
</g>
<!-- Node2 -->
<g id="Node000002" class="node">
<title>Node2</title>
<g id="a_Node000002"><a xlink:href="asset_manager_8cpp.html" target="_top" xlink:title="Seyahat Gideri Takibi &#45; Varlık Yönetimi Implementation.">
<polygon fill="white" stroke="#666666" points="109,-30 0,-30 0,0 109,0 109,-30"/>
<text text-anchor="start" x="8" y="-18" font-family="Helvetica,sans-Serif" font-size="10.00">src/travelexpense/src</text>
<text text-anchor="middle" x="54.5" y="-7" font-family="Helvetica,sans-Serif" font-size="10.00">/assetManager.cpp</text>
</a>
</g>
</g>
<!-- Node1&#45;&gt;Node2 -->
<g id="edge1_Node000001_Node000002" class="edge">
<title>Node1&#45;&gt;Node2</title>
<g id="a_edge1_Node000001_Node000002"><a xlink:title=" ">
<path fill="none" stroke="#63b8ff" d="M493.74,-74.33C404.66,-66.82 249.36,-51.93 117.5,-30 114.74,-29.54 111.91,-29.04 109.07,-28.5"/>
<polygon fill="#63b8ff" stroke="#63b8ff" points="493.48,-77.82 503.74,-75.16 494.07,-70.84 493.48,-77.82"/>
</a>
</g>
</g>
<!-- Node3 -->
<g id="Node000003" class="node">
<title>Node3</title>
<g id="a_Node000003"><a xlink:href="encryption_8cpp.html" target="_top" xlink:title="Seyahat Gideri Takibi &#45; Şifreleme Fonksiyonları Implementation.">
<polygon fill="white" stroke="#666666" points="236,-30 127,-30 127,0 236,0 236,-30"/>
<text text-anchor="start" x="135" y="-18" font-family="Helvetica,sans-Serif" font-size="10.00">src/travelexpense/src</text>
<text text-anchor="middle" x="181.5" y="-7" font-family="Helvetica,sans-Serif" font-size="10.00">/encryption.cpp</text>
</a>
</g>
</g>
<!-- Node1&#45;&gt;Node3 -->
<g id="edge2_Node000001_Node000003" class="edge">
<title>Node1&#45;&gt;Node3</title>
<g id="a_edge2_Node000001_Node000003"><a xlink:title=" ">
<path fill="none" stroke="#63b8ff" d="M493.76,-70.07C428.35,-60.82 329.72,-46.07 244.5,-30 241.75,-29.48 238.93,-28.93 236.09,-28.36"/>
<polygon fill="#63b8ff" stroke="#63b8ff" points="493.57,-73.58 503.96,-71.51 494.55,-66.65 493.57,-73.58"/>
</a>
</g>
</g>
<!-- Node4 -->
<g id="Node000004" class="node">
<title>Node4</title>
<g id="a_Node000004"><a xlink:href="expense_manager_8cpp.html" target="_top" xlink:title="Seyahat Gideri Takibi &#45; Gider Yönetimi Implementation.">
<polygon fill="white" stroke="#666666" points="367,-30 254,-30 254,0 367,0 367,-30"/>
<text text-anchor="start" x="262" y="-18" font-family="Helvetica,sans-Serif" font-size="10.00">src/travelexpense/src</text>
<text text-anchor="middle" x="310.5" y="-7" font-family="Helvetica,sans-Serif" font-size="10.00">/expenseManager.cpp</text>
</a>
</g>
</g>
<!-- Node1&#45;&gt;Node4 -->
<g id="edge3_Node000001_Node000004" class="edge">
<title>Node1&#45;&gt;Node4</title>
<g id="a_edge3_Node000001_Node000004"><a xlink:title=" ">
<path fill="none" stroke="#63b8ff" d="M500.57,-63.52C459.05,-53.14 406.03,-39.88 366.55,-30.01"/>
<polygon fill="#63b8ff" stroke="#63b8ff" points="499.77,-66.92 510.32,-65.95 501.47,-60.13 499.77,-66.92"/>
</a>
</g>
</g>
<!-- Node5 -->
<g id="Node000005" class="node">
<title>Node5</title>
<g id="a_Node000005"><a xlink:href="fingerprinting_8cpp.html" target="_top" xlink:title="Seyahat Gideri Takibi &#45; Cihaz ve Uygulama Fingerprinting Implementation.">
<polygon fill="white" stroke="#666666" points="494,-30 385,-30 385,0 494,0 494,-30"/>
<text text-anchor="start" x="393" y="-18" font-family="Helvetica,sans-Serif" font-size="10.00">src/travelexpense/src</text>
<text text-anchor="middle" x="439.5" y="-7" font-family="Helvetica,sans-Serif" font-size="10.00">/fingerprinting.cpp</text>
</a>
</g>
</g>
<!-- Node1&#45;&gt;Node5 -->
<g id="edge4_Node000001_Node000005" class="edge">
<title>Node1&#45;&gt;Node5</title>
<g id="a_edge4_Node000001_Node000005"><a xlink:title=" ">
<path fill="none" stroke="#63b8ff" d="M529.55,-61.38C509.67,-51.36 485.57,-39.22 467.31,-30.01"/>
<polygon fill="#63b8ff" stroke="#63b8ff" points="528.12,-64.58 538.63,-65.95 531.27,-58.33 528.12,-64.58"/>
</a>
</g>
</g>
<!-- Node6 -->
<g id="Node000006" class="node">
<title>Node6</title>
<g id="a_Node000006"><a xlink:href="rasp_8cpp.html" target="_top" xlink:title="Seyahat Gideri Takibi &#45; RASP (Runtime Application Self&#45;Protection) Fonksiyonları">
<polygon fill="white" stroke="#666666" points="621,-30 512,-30 512,0 621,0 621,-30"/>
<text text-anchor="start" x="520" y="-18" font-family="Helvetica,sans-Serif" font-size="10.00">src/travelexpense/src</text>
<text text-anchor="middle" x="566.5" y="-7" font-family="Helvetica,sans-Serif" font-size="10.00">/rasp.cpp</text>
</a>
</g>
</g>
<!-- Node1&#45;&gt;Node6 -->
<g id="edge5_Node000001_Node000006" class="edge">
<title>Node1&#45;&gt;Node6</title>
<g id="a_edge5_Node000001_Node000006"><a xlink:title=" ">
<path fill="none" stroke="#63b8ff" d="M566.5,-55.54C566.5,-46.96 566.5,-37.61 566.5,-30.16"/>
<polygon fill="#63b8ff" stroke="#63b8ff" points="563,-55.8 566.5,-65.8 570,-55.8 563,-55.8"/>
</a>
</g>
</g>
<!-- Node7 -->
<g id="Node000007" class="node">
<title>Node7</title>
<g id="a_Node000007"><a xlink:href="session_manager_8cpp.html" target="_top" xlink:title="Seyahat Gideri Takibi &#45; Oturum Yönetimi ve İletim Güvenliği Implementation.">
<polygon fill="white" stroke="#666666" points="749.5,-30 639.5,-30 639.5,0 749.5,0 749.5,-30"/>
<text text-anchor="start" x="647.5" y="-18" font-family="Helvetica,sans-Serif" font-size="10.00">src/travelexpense/src</text>
<text text-anchor="middle" x="694.5" y="-7" font-family="Helvetica,sans-Serif" font-size="10.00">/sessionManager.cpp</text>
</a>
</g>
</g>
<!-- Node1&#45;&gt;Node7 -->
<g id="edge6_Node000001_Node000007" class="edge">
<title>Node1&#45;&gt;Node7</title>
<g id="a_edge6_Node000001_Node000007"><a xlink:title=" ">
<path fill="none" stroke="#63b8ff" d="M603.74,-61.38C623.77,-51.36 648.07,-39.22 666.48,-30.01"/>
<polygon fill="#63b8ff" stroke="#63b8ff" points="601.97,-58.35 594.59,-65.95 605.1,-64.61 601.97,-58.35"/>
</a>
</g>
</g>
<!-- Node8 -->
<g id="Node000008" class="node">
<title>Node8</title>
<g id="a_Node000008"><a xlink:href="softhsm_8cpp.html" target="_top" xlink:title="Seyahat Gideri Takibi &#45; SoftHSM (PKCS#11) Implementation.">
<polygon fill="white" stroke="#666666" points="877,-30 768,-30 768,0 877,0 877,-30"/>
<text text-anchor="start" x="776" y="-18" font-family="Helvetica,sans-Serif" font-size="10.00">src/travelexpense/src</text>
<text text-anchor="middle" x="822.5" y="-7" font-family="Helvetica,sans-Serif" font-size="10.00">/softhsm.cpp</text>
</a>
</g>
</g>
<!-- Node1&#45;&gt;Node8 -->
<g id="edge7_Node000001_Node000008" class="edge">
<title>Node1&#45;&gt;Node8</title>
<g id="a_edge7_Node000001_Node000008"><a xlink:title=" ">
<path fill="none" stroke="#63b8ff" d="M632.53,-63.49C674.5,-53 728.18,-39.58 767.77,-29.68"/>
<polygon fill="#63b8ff" stroke="#63b8ff" points="631.53,-60.13 622.68,-65.95 633.23,-66.92 631.53,-60.13"/>
</a>
</g>
</g>
<!-- Node9 -->
<g id="Node000009" class="node">
<title>Node9</title>
<g id="a_Node000009"><a xlink:href="tls_8cpp.html" target="_top" xlink:title="Seyahat Gideri Takibi &#45; SSL/TLS ve Certificate Pinning Implementation.">
<polygon fill="white" stroke="#666666" points="1004,-30 895,-30 895,0 1004,0 1004,-30"/>
<text text-anchor="start" x="903" y="-18" font-family="Helvetica,sans-Serif" font-size="10.00">src/travelexpense/src</text>
<text text-anchor="middle" x="949.5" y="-7" font-family="Helvetica,sans-Serif" font-size="10.00">/tls.cpp</text>
</a>
</g>
</g>
<!-- Node1&#45;&gt;Node9 -->
<g id="edge8_Node000001_Node000009" class="edge">
<title>Node1&#45;&gt;Node9</title>
<g id="a_edge8_Node000001_Node000009"><a xlink:title=" ">
<path fill="none" stroke="#63b8ff" d="M639.39,-69.96C704.4,-60.68 802.06,-45.96 886.5,-30 889.25,-29.48 892.07,-28.93 894.91,-28.35"/>
<polygon fill="#63b8ff" stroke="#63b8ff" points="638.65,-66.53 629.25,-71.4 639.64,-73.46 638.65,-66.53"/>
</a>
</g>
</g>
<!-- Node10 -->
<g id="Node000010" class="node">
<title>Node10</title>
<g id="a_Node000010"><a xlink:href="trip_manager_8cpp.html" target="_top" xlink:title="Seyahat Gideri Takibi &#45; Seyahat Yönetimi Implementation.">
<polygon fill="white" stroke="#666666" points="1131,-30 1022,-30 1022,0 1131,0 1131,-30"/>
<text text-anchor="start" x="1030" y="-18" font-family="Helvetica,sans-Serif" font-size="10.00">src/travelexpense/src</text>
<text text-anchor="middle" x="1076.5" y="-7" font-family="Helvetica,sans-Serif" font-size="10.00">/tripManager.cpp</text>
</a>
</g>
</g>
<!-- Node1&#45;&gt;Node10 -->
<g id="edge9_Node000001_Node000010" class="edge">
<title>Node1&#45;&gt;Node10</title>
<g id="a_edge9_Node000001_Node000010"><a xlink:title=" ">
<path fill="none" stroke="#63b8ff" d="M639.58,-74.25C728.37,-66.7 882.54,-51.81 1013.5,-30 1016.26,-29.54 1019.09,-29.04 1021.93,-28.5"/>
<polygon fill="#63b8ff" stroke="#63b8ff" points="639.02,-70.78 629.35,-75.11 639.61,-77.76 639.02,-70.78"/>
</a>
</g>
</g>
</g>
</svg>

<g id="navigator" transform="translate(0 0)" fill="#404254">
  <rect fill="#f2f5e9" fill-opacity="0.5" stroke="#606060" stroke-width=".5" x="0" y="0" width="60" height="60"/>
  <use id="zoomplus" xlink:href="#zoomPlus" x="17" y="9" onmousedown="handleZoom(evt,'in')"/>
  <use id="zoomminus" xlink:href="#zoomMin" x="42" y="9" onmousedown="handleZoom(evt,'out')"/>
  <use id="reset" xlink:href="#resetDef" x="30" y="36" onmousedown="handleReset()"/>
   <use id="arrowup" xlink:href="#arrowUp" x="0" y="0" onmousedown="handlePan(0,-1)"/>
  <use id="arrowright" xlink:href="#arrowRight" x="0" y="0" onmousedown="handlePan(1,0)"/>
  <use id="arrowdown" xlink:href="#arrowDown" x="0" y="0" onmousedown="handlePan(0,1)"/>
  <use id="arrowleft" xlink:href="#arrowLeft" x="0" y="0" onmousedown="handlePan(-1,0)"/>
</g>
<svg viewBox="0 0 15 15" width="100%" height="30px" preserveAspectRatio="xMaxYMin meet">
 <g id="arrow_out" transform="scale(0.3 0.3)">
  <a xlink:href="safe__string_8h__dep__incl_org.svg" target="_base">
   <rect id="button" ry="5" rx="5" y="6" x="6" height="38" width="38"
        fill="#f2f5e9" fill-opacity="0.5" stroke="#606060" stroke-width="1.0"/>
   <path id="arrow"
     d="M 11.500037,31.436501 C 11.940474,20.09759 22.043105,11.32322 32.158766,21.979434 L 37.068811,17.246167 C 37.068811,17.246167 37.088388,32 37.088388,32 L 22.160133,31.978069 C 22.160133,31.978069 26.997745,27.140456 26.997745,27.140456 C 18.528582,18.264221 13.291696,25.230495 11.500037,31.436501 z"
     style="fill:#404040;"/>
  </a>
 </g>
</svg>

<style type='text/css'>
<![CDATA[
[data-mouse-over-selected='false'] { opacity: 0.7; }
[data-mouse-over-selected='true']  { opacity: 1.0; }
]]>
</style>
<script type="application/ecmascript"><![CDATA[
document.addEventListener('DOMContentLoaded', (event) => {
  highlightEdges();
  highlightAdjacentNodes();
});
]]></script>
</svg>
