<?xml version="1.0" encoding="UTF-8" standalone="no"?>
<!DOCTYPE svg PUBLIC "-//W3C//DTD SVG 1.1//EN"
 "http://www.w3.org/Graphics/SVG/1.1/DTD/svg11.dtd">
<!-- Generated by graphviz version 6.0.2 (20221011.1828)
 -->
<!-- Title: src/travelexpense/src/sessionManager.cpp Pages: 1 -->
<svg width="1024pt" height="203pt"
 viewBox="0.00 0.00 1024.00 203.00" xmlns="http://www.w3.org/2000/svg" xmlns:xlink="http://www.w3.org/1999/xlink">
<g id="graph0" class="graph" transform="scale(1 1) rotate(0) translate(4 199)">
<title>src/travelexpense/src/sessionManager.cpp</title>
<!-- Node1 -->
<g id="Node000001" class="node">
<title>Node1</title>
<g id="a_Node000001"><a xlink:title="Seyahat Gideri Takibi &#45; Oturum Yönetimi ve İletim Güvenliği Implementation.">
<polygon fill="#999999" stroke="#666666" points="664.5,-195 554.5,-195 554.5,-165 664.5,-165 664.5,-195"/>
<text text-anchor="start" x="562.5" y="-183" font-family="Helvetica,sans-Serif" font-size="10.00">src/travelexpense/src</text>
<text text-anchor="middle" x="609.5" y="-172" font-family="Helvetica,sans-Serif" font-size="10.00">/sessionManager.cpp</text>
</a>
</g>
</g>
<!-- Node2 -->
<g id="Node000002" class="node">
<title>Node2</title>
<g id="a_Node000002"><a xlink:href="session_manager_8h.html" target="_top" xlink:title="Seyahat Gideri Takibi &#45; Oturum Yönetimi ve İletim Güvenliği.">
<polygon fill="white" stroke="#666666" points="137,-129 0,-129 0,-110 137,-110 137,-129"/>
<text text-anchor="middle" x="68.5" y="-117" font-family="Helvetica,sans-Serif" font-size="10.00">../header/sessionManager.h</text>
</a>
</g>
</g>
<!-- Node1&#45;&gt;Node2 -->
<g id="edge1_Node000001_Node000002" class="edge">
<title>Node1&#45;&gt;Node2</title>
<g id="a_edge1_Node000001_Node000002"><a xlink:title=" ">
<path fill="none" stroke="#63b8ff" d="M554.5,-173.12C469.48,-164.02 300.75,-145.92 147.42,-129.21"/>
<polygon fill="#63b8ff" stroke="#63b8ff" points="147.67,-125.71 137.35,-128.11 146.91,-132.67 147.67,-125.71"/>
</a>
</g>
</g>
<!-- Node5 -->
<g id="Node000005" class="node">
<title>Node5</title>
<g id="a_Node000005"><a xlink:title=" ">
<polygon fill="#e0e0e0" stroke="#999999" points="347,-19 306,-19 306,0 347,0 347,-19"/>
<text text-anchor="middle" x="326.5" y="-7" font-family="Helvetica,sans-Serif" font-size="10.00">ctime</text>
</a>
</g>
</g>
<!-- Node1&#45;&gt;Node5 -->
<g id="edge21_Node000001_Node000005" class="edge">
<title>Node1&#45;&gt;Node5</title>
<g id="a_edge21_Node000001_Node000005"><a xlink:title=" ">
<path fill="none" stroke="#63b8ff" d="M594.51,-164.93C578.3,-150.14 551.3,-126.75 525.5,-110 468.75,-73.17 396.5,-40.16 356.52,-22.98"/>
<polygon fill="#63b8ff" stroke="#63b8ff" points="357.66,-19.66 347.09,-18.96 354.91,-26.1 357.66,-19.66"/>
</a>
</g>
</g>
<!-- Node6 -->
<g id="Node000006" class="node">
<title>Node6</title>
<g id="a_Node000006"><a xlink:title=" ">
<polygon fill="#e0e0e0" stroke="#999999" points="482.5,-19 436.5,-19 436.5,0 482.5,0 482.5,-19"/>
<text text-anchor="middle" x="459.5" y="-7" font-family="Helvetica,sans-Serif" font-size="10.00">cstring</text>
</a>
</g>
</g>
<!-- Node1&#45;&gt;Node6 -->
<g id="edge20_Node000001_Node000006" class="edge">
<title>Node1&#45;&gt;Node6</title>
<g id="a_edge20_Node000001_Node000006"><a xlink:title=" ">
<path fill="none" stroke="#63b8ff" d="M607.21,-164.86C602.46,-139.69 589.27,-86.77 558.5,-55 540.62,-36.53 513.69,-25.11 492.43,-18.47"/>
<polygon fill="#63b8ff" stroke="#63b8ff" points="493.39,-15.11 482.81,-15.67 491.43,-21.83 493.39,-15.11"/>
</a>
</g>
</g>
<!-- Node10 -->
<g id="Node000010" class="node">
<title>Node10</title>
<g id="a_Node000010"><a xlink:href="encryption_8h.html" target="_top" xlink:title="Seyahat Gideri Takibi &#45; Şifreleme Fonksiyonları">
<polygon fill="white" stroke="#666666" points="266,-129 155,-129 155,-110 266,-110 266,-129"/>
<text text-anchor="middle" x="210.5" y="-117" font-family="Helvetica,sans-Serif" font-size="10.00">../header/encryption.h</text>
</a>
</g>
</g>
<!-- Node1&#45;&gt;Node10 -->
<g id="edge10_Node000001_Node000010" class="edge">
<title>Node1&#45;&gt;Node10</title>
<g id="a_edge10_Node000001_Node000010"><a xlink:title=" ">
<path fill="none" stroke="#63b8ff" d="M554.44,-170.93C481.81,-160.28 354.12,-141.56 276.43,-130.17"/>
<polygon fill="#63b8ff" stroke="#63b8ff" points="276.68,-126.67 266.28,-128.68 275.67,-133.59 276.68,-126.67"/>
</a>
</g>
</g>
<!-- Node11 -->
<g id="Node000011" class="node">
<title>Node11</title>
<g id="a_Node000011"><a xlink:href="security_8h.html" target="_top" xlink:title="Seyahat Gideri Takibi &#45; Güvenlik Fonksiyonları">
<polygon fill="white" stroke="#666666" points="385,-129 284,-129 284,-110 385,-110 385,-129"/>
<text text-anchor="middle" x="334.5" y="-117" font-family="Helvetica,sans-Serif" font-size="10.00">../header/security.h</text>
</a>
</g>
</g>
<!-- Node1&#45;&gt;Node11 -->
<g id="edge14_Node000001_Node000011" class="edge">
<title>Node1&#45;&gt;Node11</title>
<g id="a_edge14_Node000001_Node000011"><a xlink:title=" ">
<path fill="none" stroke="#63b8ff" d="M554.18,-167.23C504.54,-156.67 432.33,-141.31 384.42,-131.12"/>
<polygon fill="#63b8ff" stroke="#63b8ff" points="385.09,-127.68 374.58,-129.03 383.64,-134.53 385.09,-127.68"/>
</a>
</g>
</g>
<!-- Node12 -->
<g id="Node000012" class="node">
<title>Node12</title>
<g id="a_Node000012"><a xlink:href="safe__string_8h.html" target="_top" xlink:title="Güvenli string işlemleri için yardımcı fonksiyonlar.">
<polygon fill="white" stroke="#666666" points="516,-129 403,-129 403,-110 516,-110 516,-129"/>
<text text-anchor="middle" x="459.5" y="-117" font-family="Helvetica,sans-Serif" font-size="10.00">../header/safe_string.h</text>
</a>
</g>
</g>
<!-- Node1&#45;&gt;Node12 -->
<g id="edge17_Node000001_Node000012" class="edge">
<title>Node1&#45;&gt;Node12</title>
<g id="a_edge17_Node000001_Node000012"><a xlink:title=" ">
<path fill="none" stroke="#63b8ff" d="M573.57,-164.99C548.43,-155.18 515.17,-142.21 491.05,-132.81"/>
<polygon fill="#63b8ff" stroke="#63b8ff" points="492.24,-129.51 481.65,-129.14 489.7,-136.03 492.24,-129.51"/>
</a>
</g>
</g>
<!-- Node13 -->
<g id="Node000013" class="node">
<title>Node13</title>
<g id="a_Node000013"><a xlink:title=" ">
<polygon fill="#e0e0e0" stroke="#999999" points="662.5,-129 610.5,-129 610.5,-110 662.5,-110 662.5,-129"/>
<text text-anchor="middle" x="636.5" y="-117" font-family="Helvetica,sans-Serif" font-size="10.00">sstream</text>
</a>
</g>
</g>
<!-- Node1&#45;&gt;Node13 -->
<g id="edge22_Node000001_Node000013" class="edge">
<title>Node1&#45;&gt;Node13</title>
<g id="a_edge22_Node000001_Node000013"><a xlink:title=" ">
<path fill="none" stroke="#63b8ff" d="M616.04,-164.84C619.68,-156.95 624.24,-147.05 628.14,-138.61"/>
<polygon fill="#63b8ff" stroke="#63b8ff" points="631.44,-139.81 632.45,-129.27 625.09,-136.88 631.44,-139.81"/>
</a>
</g>
</g>
<!-- Node14 -->
<g id="Node000014" class="node">
<title>Node14</title>
<g id="a_Node000014"><a xlink:title=" ">
<polygon fill="#e0e0e0" stroke="#999999" points="730.5,-129 680.5,-129 680.5,-110 730.5,-110 730.5,-129"/>
<text text-anchor="middle" x="705.5" y="-117" font-family="Helvetica,sans-Serif" font-size="10.00">iomanip</text>
</a>
</g>
</g>
<!-- Node1&#45;&gt;Node14 -->
<g id="edge23_Node000001_Node000014" class="edge">
<title>Node1&#45;&gt;Node14</title>
<g id="a_edge23_Node000001_Node000014"><a xlink:title=" ">
<path fill="none" stroke="#63b8ff" d="M632.74,-164.84C647.9,-155.6 667.61,-143.59 682.69,-134.4"/>
<polygon fill="#63b8ff" stroke="#63b8ff" points="684.68,-137.29 691.4,-129.09 681.04,-131.31 684.68,-137.29"/>
</a>
</g>
</g>
<!-- Node15 -->
<g id="Node000015" class="node">
<title>Node15</title>
<g id="a_Node000015"><a xlink:title=" ">
<polygon fill="#e0e0e0" stroke="#999999" points="800,-129 749,-129 749,-110 800,-110 800,-129"/>
<text text-anchor="middle" x="774.5" y="-117" font-family="Helvetica,sans-Serif" font-size="10.00">unistd.h</text>
</a>
</g>
</g>
<!-- Node1&#45;&gt;Node15 -->
<g id="edge24_Node000001_Node000015" class="edge">
<title>Node1&#45;&gt;Node15</title>
<g id="a_edge24_Node000001_Node000015"><a xlink:title=" ">
<path fill="none" stroke="#63b8ff" d="M649.02,-164.99C676.92,-155.1 713.91,-141.98 740.5,-132.56"/>
<polygon fill="#63b8ff" stroke="#63b8ff" points="741.88,-135.78 750.13,-129.14 739.54,-129.18 741.88,-135.78"/>
</a>
</g>
</g>
<!-- Node16 -->
<g id="Node000016" class="node">
<title>Node16</title>
<g id="a_Node000016"><a xlink:title=" ">
<polygon fill="#e0e0e0" stroke="#999999" points="880.5,-129 818.5,-129 818.5,-110 880.5,-110 880.5,-129"/>
<text text-anchor="middle" x="849.5" y="-117" font-family="Helvetica,sans-Serif" font-size="10.00">sys/ioctl.h</text>
</a>
</g>
</g>
<!-- Node1&#45;&gt;Node16 -->
<g id="edge25_Node000001_Node000016" class="edge">
<title>Node1&#45;&gt;Node16</title>
<g id="a_edge25_Node000001_Node000016"><a xlink:title=" ">
<path fill="none" stroke="#63b8ff" d="M664.56,-165.58C708.36,-154.9 768.66,-140.2 808.34,-130.53"/>
<polygon fill="#63b8ff" stroke="#63b8ff" points="809.32,-133.9 818.21,-128.13 807.66,-127.1 809.32,-133.9"/>
</a>
</g>
</g>
<!-- Node17 -->
<g id="Node000017" class="node">
<title>Node17</title>
<g id="a_Node000017"><a xlink:title=" ">
<polygon fill="#e0e0e0" stroke="#999999" points="944.5,-129 898.5,-129 898.5,-110 944.5,-110 944.5,-129"/>
<text text-anchor="middle" x="921.5" y="-117" font-family="Helvetica,sans-Serif" font-size="10.00">net/if.h</text>
</a>
</g>
</g>
<!-- Node1&#45;&gt;Node17 -->
<g id="edge26_Node000001_Node000017" class="edge">
<title>Node1&#45;&gt;Node17</title>
<g id="a_edge26_Node000001_Node000017"><a xlink:title=" ">
<path fill="none" stroke="#63b8ff" d="M664.76,-170.52C719.27,-161.84 805.15,-147.34 888.59,-129.05"/>
<polygon fill="#63b8ff" stroke="#63b8ff" points="889.48,-132.44 898.48,-126.86 887.96,-125.6 889.48,-132.44"/>
</a>
</g>
</g>
<!-- Node18 -->
<g id="Node000018" class="node">
<title>Node18</title>
<g id="a_Node000018"><a xlink:title=" ">
<polygon fill="#e0e0e0" stroke="#999999" points="1016,-129 963,-129 963,-110 1016,-110 1016,-129"/>
<text text-anchor="middle" x="989.5" y="-117" font-family="Helvetica,sans-Serif" font-size="10.00">ifaddrs.h</text>
</a>
</g>
</g>
<!-- Node1&#45;&gt;Node18 -->
<g id="edge27_Node000001_Node000018" class="edge">
<title>Node1&#45;&gt;Node18</title>
<g id="a_edge27_Node000001_Node000018"><a xlink:title=" ">
<path fill="none" stroke="#63b8ff" d="M664.56,-172.51C730.63,-164.38 844.94,-149.25 952.74,-128.99"/>
<polygon fill="#63b8ff" stroke="#63b8ff" points="953.65,-132.38 962.82,-127.07 952.34,-125.5 953.65,-132.38"/>
</a>
</g>
</g>
<!-- Node3 -->
<g id="Node000003" class="node">
<title>Node3</title>
<g id="a_Node000003"><a xlink:href="common_types_8h.html" target="_top" xlink:title="Seyahat Gideri Takibi &#45; Ortak Veri Tipleri ve Modelleri.">
<polygon fill="white" stroke="#666666" points="223,-74 134,-74 134,-55 223,-55 223,-74"/>
<text text-anchor="middle" x="178.5" y="-62" font-family="Helvetica,sans-Serif" font-size="10.00">commonTypes.h</text>
</a>
</g>
</g>
<!-- Node2&#45;&gt;Node3 -->
<g id="edge2_Node000002_Node000003" class="edge">
<title>Node2&#45;&gt;Node3</title>
<g id="a_edge2_Node000002_Node000003"><a xlink:title=" ">
<path fill="none" stroke="#63b8ff" d="M86.17,-109.98C103.79,-101.5 131.08,-88.35 151.43,-78.54"/>
<polygon fill="#63b8ff" stroke="#63b8ff" points="153.02,-81.66 160.51,-74.17 149.98,-75.36 153.02,-81.66"/>
</a>
</g>
</g>
<!-- Node4 -->
<g id="Node000004" class="node">
<title>Node4</title>
<g id="a_Node000004"><a xlink:title=" ">
<polygon fill="#e0e0e0" stroke="#999999" points="125.5,-19 79.5,-19 79.5,0 125.5,0 125.5,-19"/>
<text text-anchor="middle" x="102.5" y="-7" font-family="Helvetica,sans-Serif" font-size="10.00">cstdint</text>
</a>
</g>
</g>
<!-- Node2&#45;&gt;Node4 -->
<g id="edge8_Node000002_Node000004" class="edge">
<title>Node2&#45;&gt;Node4</title>
<g id="a_edge8_Node000002_Node000004"><a xlink:title=" ">
<path fill="none" stroke="#63b8ff" d="M71.28,-109.66C76.81,-92.09 89.29,-52.45 96.69,-28.95"/>
<polygon fill="#63b8ff" stroke="#63b8ff" points="100.11,-29.75 99.77,-19.16 93.43,-27.65 100.11,-29.75"/>
</a>
</g>
</g>
<!-- Node8 -->
<g id="Node000008" class="node">
<title>Node8</title>
<g id="a_Node000008"><a xlink:href="export_8h.html" target="_top" xlink:title="Seyahat Gideri Takibi &#45; DLL Export/Import Macros.">
<polygon fill="white" stroke="#666666" points="293.5,-74 241.5,-74 241.5,-55 293.5,-55 293.5,-74"/>
<text text-anchor="middle" x="267.5" y="-62" font-family="Helvetica,sans-Serif" font-size="10.00">export.h</text>
</a>
</g>
</g>
<!-- Node2&#45;&gt;Node8 -->
<g id="edge7_Node000002_Node000008" class="edge">
<title>Node2&#45;&gt;Node8</title>
<g id="a_edge7_Node000002_Node000008"><a xlink:title=" ">
<path fill="none" stroke="#63b8ff" d="M100.47,-109.98C136.22,-100.46 194,-85.08 231.36,-75.12"/>
<polygon fill="#63b8ff" stroke="#63b8ff" points="232.56,-78.43 241.32,-72.47 230.76,-71.66 232.56,-78.43"/>
</a>
</g>
</g>
<!-- Node9 -->
<g id="Node000009" class="node">
<title>Node9</title>
<g id="a_Node000009"><a xlink:title=" ">
<polygon fill="#e0e0e0" stroke="#999999" points="359.5,-74 311.5,-74 311.5,-55 359.5,-55 359.5,-74"/>
<text text-anchor="middle" x="335.5" y="-62" font-family="Helvetica,sans-Serif" font-size="10.00">cstddef</text>
</a>
</g>
</g>
<!-- Node2&#45;&gt;Node9 -->
<g id="edge9_Node000002_Node000009" class="edge">
<title>Node2&#45;&gt;Node9</title>
<g id="a_edge9_Node000002_Node000009"><a xlink:title=" ">
<path fill="none" stroke="#63b8ff" d="M118.45,-109.96C163.73,-102 232.52,-89.38 301.25,-74.16"/>
<polygon fill="#63b8ff" stroke="#63b8ff" points="302.4,-77.49 311.39,-71.9 300.87,-70.66 302.4,-77.49"/>
</a>
</g>
</g>
<!-- Node3&#45;&gt;Node4 -->
<g id="edge3_Node000003_Node000004" class="edge">
<title>Node3&#45;&gt;Node4</title>
<g id="a_edge3_Node000003_Node000004"><a xlink:title=" ">
<path fill="none" stroke="#63b8ff" d="M166.29,-54.98C154.72,-46.92 137.12,-34.65 123.34,-25.03"/>
<polygon fill="#63b8ff" stroke="#63b8ff" points="125.14,-22.02 114.93,-19.17 121.13,-27.76 125.14,-22.02"/>
</a>
</g>
</g>
<!-- Node3&#45;&gt;Node5 -->
<g id="edge4_Node000003_Node000005" class="edge">
<title>Node3&#45;&gt;Node5</title>
<g id="a_edge4_Node000003_Node000005"><a xlink:title=" ">
<path fill="none" stroke="#63b8ff" d="M202.28,-54.98C227.75,-45.86 268.25,-31.36 296.04,-21.41"/>
<polygon fill="#63b8ff" stroke="#63b8ff" points="297.42,-24.63 305.65,-17.97 295.06,-18.04 297.42,-24.63"/>
</a>
</g>
</g>
<!-- Node3&#45;&gt;Node6 -->
<g id="edge5_Node000003_Node000006" class="edge">
<title>Node3&#45;&gt;Node6</title>
<g id="a_edge5_Node000003_Node000006"><a xlink:title=" ">
<path fill="none" stroke="#63b8ff" d="M223.03,-55.1C279.52,-44.45 375.66,-26.31 426.2,-16.78"/>
<polygon fill="#63b8ff" stroke="#63b8ff" points="427.08,-20.18 436.26,-14.88 425.78,-13.3 427.08,-20.18"/>
</a>
</g>
</g>
<!-- Node7 -->
<g id="Node000007" class="node">
<title>Node7</title>
<g id="a_Node000007"><a xlink:href="error__codes_8h.html" target="_top" xlink:title="Seyahat Gideri Takibi &#45; Hata Kodları Enum&#39;u.">
<polygon fill="white" stroke="#666666" points="219.5,-19 143.5,-19 143.5,0 219.5,0 219.5,-19"/>
<text text-anchor="middle" x="181.5" y="-7" font-family="Helvetica,sans-Serif" font-size="10.00">error_codes.h</text>
</a>
</g>
</g>
<!-- Node3&#45;&gt;Node7 -->
<g id="edge6_Node000003_Node000007" class="edge">
<title>Node3&#45;&gt;Node7</title>
<g id="a_edge6_Node000003_Node000007"><a xlink:title=" ">
<path fill="none" stroke="#63b8ff" d="M179,-54.75C179.39,-47.8 179.95,-37.85 180.45,-29.13"/>
<polygon fill="#63b8ff" stroke="#63b8ff" points="183.94,-29.27 181.01,-19.09 176.95,-28.88 183.94,-29.27"/>
</a>
</g>
</g>
<!-- Node10&#45;&gt;Node4 -->
<g id="edge11_Node000010_Node000004" class="edge">
<title>Node10&#45;&gt;Node4</title>
<g id="a_edge11_Node000010_Node000004"><a xlink:title=" ">
<path fill="none" stroke="#63b8ff" d="M181.8,-109.88C163.14,-102.93 139.57,-91.41 124.5,-74 113.64,-61.46 108.06,-43.26 105.24,-29.55"/>
<polygon fill="#63b8ff" stroke="#63b8ff" points="108.62,-28.58 103.47,-19.33 101.73,-29.78 108.62,-28.58"/>
</a>
</g>
</g>
<!-- Node10&#45;&gt;Node8 -->
<g id="edge13_Node000010_Node000008" class="edge">
<title>Node10&#45;&gt;Node8</title>
<g id="a_edge13_Node000010_Node000008"><a xlink:title=" ">
<path fill="none" stroke="#63b8ff" d="M219.66,-109.98C228,-102.23 240.53,-90.58 250.68,-81.14"/>
<polygon fill="#63b8ff" stroke="#63b8ff" points="253.24,-83.54 258.18,-74.17 248.47,-78.42 253.24,-83.54"/>
</a>
</g>
</g>
<!-- Node10&#45;&gt;Node9 -->
<g id="edge12_Node000010_Node000009" class="edge">
<title>Node10&#45;&gt;Node9</title>
<g id="a_edge12_Node000010_Node000009"><a xlink:title=" ">
<path fill="none" stroke="#63b8ff" d="M230.58,-109.98C250.87,-101.38 282.46,-87.99 305.67,-78.15"/>
<polygon fill="#63b8ff" stroke="#63b8ff" points="307.21,-81.3 315.05,-74.17 304.48,-74.85 307.21,-81.3"/>
</a>
</g>
</g>
<!-- Node11&#45;&gt;Node8 -->
<g id="edge16_Node000011_Node000008" class="edge">
<title>Node11&#45;&gt;Node8</title>
<g id="a_edge16_Node000011_Node000008"><a xlink:title=" ">
<path fill="none" stroke="#63b8ff" d="M323.74,-109.98C313.73,-102.07 298.61,-90.11 286.57,-80.58"/>
<polygon fill="#63b8ff" stroke="#63b8ff" points="288.47,-77.63 278.46,-74.17 284.13,-83.12 288.47,-77.63"/>
</a>
</g>
</g>
<!-- Node11&#45;&gt;Node9 -->
<g id="edge15_Node000011_Node000009" class="edge">
<title>Node11&#45;&gt;Node9</title>
<g id="a_edge15_Node000011_Node000009"><a xlink:title=" ">
<path fill="none" stroke="#63b8ff" d="M334.67,-109.75C334.8,-102.8 334.98,-92.85 335.15,-84.13"/>
<polygon fill="#63b8ff" stroke="#63b8ff" points="338.65,-84.15 335.34,-74.09 331.65,-84.02 338.65,-84.15"/>
</a>
</g>
</g>
<!-- Node12&#45;&gt;Node6 -->
<g id="edge18_Node000012_Node000006" class="edge">
<title>Node12&#45;&gt;Node6</title>
<g id="a_edge18_Node000012_Node000006"><a xlink:title=" ">
<path fill="none" stroke="#63b8ff" d="M459.5,-109.66C459.5,-92.17 459.5,-52.8 459.5,-29.27"/>
<polygon fill="#63b8ff" stroke="#63b8ff" points="463,-29.16 459.5,-19.16 456,-29.16 463,-29.16"/>
</a>
</g>
</g>
<!-- Node12&#45;&gt;Node9 -->
<g id="edge19_Node000012_Node000009" class="edge">
<title>Node12&#45;&gt;Node9</title>
<g id="a_edge19_Node000012_Node000009"><a xlink:title=" ">
<path fill="none" stroke="#63b8ff" d="M439.58,-109.98C419.45,-101.38 388.12,-87.99 365.09,-78.15"/>
<polygon fill="#63b8ff" stroke="#63b8ff" points="366.36,-74.88 355.79,-74.17 363.6,-81.32 366.36,-74.88"/>
</a>
</g>
</g>
</g>
</svg>
