<?xml version="1.0" encoding="UTF-8" standalone="no"?>
<!DOCTYPE svg PUBLIC "-//W3C//DTD SVG 1.1//EN"
 "http://www.w3.org/Graphics/SVG/1.1/DTD/svg11.dtd">
<!-- Generated by graphviz version 6.0.2 (20221011.1828)
 -->
<!-- Title: src/travelexpense/src/tls.cpp Pages: 1 -->
<svg width="679pt" height="203pt"
 viewBox="0.00 0.00 678.50 203.00" xmlns="http://www.w3.org/2000/svg" xmlns:xlink="http://www.w3.org/1999/xlink">
<g id="graph0" class="graph" transform="scale(1 1) rotate(0) translate(4 199)">
<title>src/travelexpense/src/tls.cpp</title>
<!-- Node1 -->
<g id="Node000001" class="node">
<title>Node1</title>
<g id="a_Node000001"><a xlink:title="Seyahat Gideri Takibi &#45; SSL/TLS ve Certificate Pinning Implementation.">
<polygon fill="#999999" stroke="#666666" points="496,-195 387,-195 387,-165 496,-165 496,-195"/>
<text text-anchor="start" x="395" y="-183" font-family="Helvetica,sans-Serif" font-size="10.00">src/travelexpense/src</text>
<text text-anchor="middle" x="441.5" y="-172" font-family="Helvetica,sans-Serif" font-size="10.00">/tls.cpp</text>
</a>
</g>
</g>
<!-- Node2 -->
<g id="Node000002" class="node">
<title>Node2</title>
<g id="a_Node000002"><a xlink:href="tls_8h.html" target="_top" xlink:title="Seyahat Gideri Takibi &#45; SSL/TLS ve Certificate Pinning.">
<polygon fill="white" stroke="#666666" points="325,-129 248,-129 248,-110 325,-110 325,-129"/>
<text text-anchor="middle" x="286.5" y="-117" font-family="Helvetica,sans-Serif" font-size="10.00">../header/tls.h</text>
</a>
</g>
</g>
<!-- Node1&#45;&gt;Node2 -->
<g id="edge1_Node000001_Node000002" class="edge">
<title>Node1&#45;&gt;Node2</title>
<g id="a_edge1_Node000001_Node000002"><a xlink:title=" ">
<path fill="none" stroke="#63b8ff" d="M404.37,-164.99C378.28,-155.14 343.72,-142.1 318.77,-132.68"/>
<polygon fill="#63b8ff" stroke="#63b8ff" points="319.98,-129.4 309.39,-129.14 317.51,-135.94 319.98,-129.4"/>
</a>
</g>
</g>
<!-- Node6 -->
<g id="Node000006" class="node">
<title>Node6</title>
<g id="a_Node000006"><a xlink:title=" ">
<polygon fill="#e0e0e0" stroke="#999999" points="448.5,-19 402.5,-19 402.5,0 448.5,0 448.5,-19"/>
<text text-anchor="middle" x="425.5" y="-7" font-family="Helvetica,sans-Serif" font-size="10.00">cstring</text>
</a>
</g>
</g>
<!-- Node1&#45;&gt;Node6 -->
<g id="edge20_Node000001_Node000006" class="edge">
<title>Node1&#45;&gt;Node6</title>
<g id="a_edge20_Node000001_Node000006"><a xlink:title=" ">
<path fill="none" stroke="#63b8ff" d="M450.46,-164.76C456,-155.08 462.59,-141.77 465.5,-129 467.37,-120.77 467.1,-118.29 465.5,-110 459.69,-79.96 444.85,-47.48 434.97,-28.08"/>
<polygon fill="#63b8ff" stroke="#63b8ff" points="438.07,-26.44 430.34,-19.2 431.87,-29.69 438.07,-26.44"/>
</a>
</g>
</g>
<!-- Node10 -->
<g id="Node000010" class="node">
<title>Node10</title>
<g id="a_Node000010"><a xlink:href="encryption_8h.html" target="_top" xlink:title="Seyahat Gideri Takibi &#45; Şifreleme Fonksiyonları">
<polygon fill="white" stroke="#666666" points="111,-129 0,-129 0,-110 111,-110 111,-129"/>
<text text-anchor="middle" x="55.5" y="-117" font-family="Helvetica,sans-Serif" font-size="10.00">../header/encryption.h</text>
</a>
</g>
</g>
<!-- Node1&#45;&gt;Node10 -->
<g id="edge10_Node000001_Node000010" class="edge">
<title>Node1&#45;&gt;Node10</title>
<g id="a_edge10_Node000001_Node000010"><a xlink:title=" ">
<path fill="none" stroke="#63b8ff" d="M386.61,-170.68C316.73,-160.09 196.14,-141.81 121.38,-130.48"/>
<polygon fill="#63b8ff" stroke="#63b8ff" points="121.56,-126.97 111.14,-128.93 120.51,-133.89 121.56,-126.97"/>
</a>
</g>
</g>
<!-- Node11 -->
<g id="Node000011" class="node">
<title>Node11</title>
<g id="a_Node000011"><a xlink:href="security_8h.html" target="_top" xlink:title="Seyahat Gideri Takibi &#45; Güvenlik Fonksiyonları">
<polygon fill="white" stroke="#666666" points="230,-129 129,-129 129,-110 230,-110 230,-129"/>
<text text-anchor="middle" x="179.5" y="-117" font-family="Helvetica,sans-Serif" font-size="10.00">../header/security.h</text>
</a>
</g>
</g>
<!-- Node1&#45;&gt;Node11 -->
<g id="edge14_Node000001_Node000011" class="edge">
<title>Node1&#45;&gt;Node11</title>
<g id="a_edge14_Node000001_Node000011"><a xlink:title=" ">
<path fill="none" stroke="#63b8ff" d="M386.9,-166.81C339.91,-156.32 272.77,-141.32 227.73,-131.27"/>
<polygon fill="#63b8ff" stroke="#63b8ff" points="228.43,-127.84 217.91,-129.08 226.91,-134.67 228.43,-127.84"/>
</a>
</g>
</g>
<!-- Node12 -->
<g id="Node000012" class="node">
<title>Node12</title>
<g id="a_Node000012"><a xlink:href="safe__string_8h.html" target="_top" xlink:title="Güvenli string işlemleri için yardımcı fonksiyonlar.">
<polygon fill="white" stroke="#666666" points="456,-129 343,-129 343,-110 456,-110 456,-129"/>
<text text-anchor="middle" x="399.5" y="-117" font-family="Helvetica,sans-Serif" font-size="10.00">../header/safe_string.h</text>
</a>
</g>
</g>
<!-- Node1&#45;&gt;Node12 -->
<g id="edge17_Node000001_Node000012" class="edge">
<title>Node1&#45;&gt;Node12</title>
<g id="a_edge17_Node000001_Node000012"><a xlink:title=" ">
<path fill="none" stroke="#63b8ff" d="M431.33,-164.84C425.42,-156.61 417.94,-146.18 411.71,-137.51"/>
<polygon fill="#63b8ff" stroke="#63b8ff" points="414.47,-135.35 405.79,-129.27 408.78,-139.43 414.47,-135.35"/>
</a>
</g>
</g>
<!-- Node13 -->
<g id="Node000013" class="node">
<title>Node13</title>
<g id="a_Node000013"><a xlink:title=" ">
<polygon fill="#e0e0e0" stroke="#999999" points="554.5,-129 512.5,-129 512.5,-110 554.5,-110 554.5,-129"/>
<text text-anchor="middle" x="533.5" y="-117" font-family="Helvetica,sans-Serif" font-size="10.00">vector</text>
</a>
</g>
</g>
<!-- Node1&#45;&gt;Node13 -->
<g id="edge21_Node000001_Node000013" class="edge">
<title>Node1&#45;&gt;Node13</title>
<g id="a_edge21_Node000001_Node000013"><a xlink:title=" ">
<path fill="none" stroke="#63b8ff" d="M463.77,-164.84C478.17,-155.68 496.83,-143.82 511.23,-134.66"/>
<polygon fill="#63b8ff" stroke="#63b8ff" points="513.42,-137.41 519.98,-129.09 509.67,-131.51 513.42,-137.41"/>
</a>
</g>
</g>
<!-- Node14 -->
<g id="Node000014" class="node">
<title>Node14</title>
<g id="a_Node000014"><a xlink:title=" ">
<polygon fill="#e0e0e0" stroke="#999999" points="608,-129 573,-129 573,-110 608,-110 608,-129"/>
<text text-anchor="middle" x="590.5" y="-117" font-family="Helvetica,sans-Serif" font-size="10.00">map</text>
</a>
</g>
</g>
<!-- Node1&#45;&gt;Node14 -->
<g id="edge22_Node000001_Node000014" class="edge">
<title>Node1&#45;&gt;Node14</title>
<g id="a_edge22_Node000001_Node000014"><a xlink:title=" ">
<path fill="none" stroke="#63b8ff" d="M477.19,-164.99C503.56,-154.64 538.92,-140.75 563.09,-131.26"/>
<polygon fill="#63b8ff" stroke="#63b8ff" points="564.67,-134.4 572.7,-127.49 562.11,-127.89 564.67,-134.4"/>
</a>
</g>
</g>
<!-- Node15 -->
<g id="Node000015" class="node">
<title>Node15</title>
<g id="a_Node000015"><a xlink:title=" ">
<polygon fill="#e0e0e0" stroke="#999999" points="670.5,-129 626.5,-129 626.5,-110 670.5,-110 670.5,-129"/>
<text text-anchor="middle" x="648.5" y="-117" font-family="Helvetica,sans-Serif" font-size="10.00">mutex</text>
</a>
</g>
</g>
<!-- Node1&#45;&gt;Node15 -->
<g id="edge23_Node000001_Node000015" class="edge">
<title>Node1&#45;&gt;Node15</title>
<g id="a_edge23_Node000001_Node000015"><a xlink:title=" ">
<path fill="none" stroke="#63b8ff" d="M491.08,-164.99C530,-153.99 583.02,-139.01 616.5,-129.54"/>
<polygon fill="#63b8ff" stroke="#63b8ff" points="617.56,-132.88 626.23,-126.79 615.66,-126.14 617.56,-132.88"/>
</a>
</g>
</g>
<!-- Node3 -->
<g id="Node000003" class="node">
<title>Node3</title>
<g id="a_Node000003"><a xlink:href="common_types_8h.html" target="_top" xlink:title="Seyahat Gideri Takibi &#45; Ortak Veri Tipleri ve Modelleri.">
<polygon fill="white" stroke="#666666" points="387,-74 298,-74 298,-55 387,-55 387,-74"/>
<text text-anchor="middle" x="342.5" y="-62" font-family="Helvetica,sans-Serif" font-size="10.00">commonTypes.h</text>
</a>
</g>
</g>
<!-- Node2&#45;&gt;Node3 -->
<g id="edge2_Node000002_Node000003" class="edge">
<title>Node2&#45;&gt;Node3</title>
<g id="a_edge2_Node000002_Node000003"><a xlink:title=" ">
<path fill="none" stroke="#63b8ff" d="M295.5,-109.98C303.69,-102.23 316.01,-90.58 325.97,-81.14"/>
<polygon fill="#63b8ff" stroke="#63b8ff" points="328.48,-83.59 333.34,-74.17 323.67,-78.5 328.48,-83.59"/>
</a>
</g>
</g>
<!-- Node4 -->
<g id="Node000004" class="node">
<title>Node4</title>
<g id="a_Node000004"><a xlink:title=" ">
<polygon fill="#e0e0e0" stroke="#999999" points="230.5,-19 184.5,-19 184.5,0 230.5,0 230.5,-19"/>
<text text-anchor="middle" x="207.5" y="-7" font-family="Helvetica,sans-Serif" font-size="10.00">cstdint</text>
</a>
</g>
</g>
<!-- Node2&#45;&gt;Node4 -->
<g id="edge8_Node000002_Node000004" class="edge">
<title>Node2&#45;&gt;Node4</title>
<g id="a_edge8_Node000002_Node000004"><a xlink:title=" ">
<path fill="none" stroke="#63b8ff" d="M282.48,-109.86C276.41,-97.24 264.16,-73.27 250.5,-55 242.8,-44.7 232.89,-34.3 224.53,-26.15"/>
<polygon fill="#63b8ff" stroke="#63b8ff" points="226.77,-23.44 217.11,-19.09 221.95,-28.52 226.77,-23.44"/>
</a>
</g>
</g>
<!-- Node8 -->
<g id="Node000008" class="node">
<title>Node8</title>
<g id="a_Node000008"><a xlink:href="export_8h.html" target="_top" xlink:title="Seyahat Gideri Takibi &#45; DLL Export/Import Macros.">
<polygon fill="white" stroke="#666666" points="175.5,-74 123.5,-74 123.5,-55 175.5,-55 175.5,-74"/>
<text text-anchor="middle" x="149.5" y="-62" font-family="Helvetica,sans-Serif" font-size="10.00">export.h</text>
</a>
</g>
</g>
<!-- Node2&#45;&gt;Node8 -->
<g id="edge7_Node000002_Node000008" class="edge">
<title>Node2&#45;&gt;Node8</title>
<g id="a_edge7_Node000002_Node000008"><a xlink:title=" ">
<path fill="none" stroke="#63b8ff" d="M264.49,-109.98C242.05,-101.3 207.02,-87.75 181.51,-77.88"/>
<polygon fill="#63b8ff" stroke="#63b8ff" points="182.5,-74.51 171.91,-74.17 179.98,-81.04 182.5,-74.51"/>
</a>
</g>
</g>
<!-- Node9 -->
<g id="Node000009" class="node">
<title>Node9</title>
<g id="a_Node000009"><a xlink:title=" ">
<polygon fill="#e0e0e0" stroke="#999999" points="241.5,-74 193.5,-74 193.5,-55 241.5,-55 241.5,-74"/>
<text text-anchor="middle" x="217.5" y="-62" font-family="Helvetica,sans-Serif" font-size="10.00">cstddef</text>
</a>
</g>
</g>
<!-- Node2&#45;&gt;Node9 -->
<g id="edge9_Node000002_Node000009" class="edge">
<title>Node2&#45;&gt;Node9</title>
<g id="a_edge9_Node000002_Node000009"><a xlink:title=" ">
<path fill="none" stroke="#63b8ff" d="M275.41,-109.98C265.01,-102 249.24,-89.88 236.78,-80.31"/>
<polygon fill="#63b8ff" stroke="#63b8ff" points="238.85,-77.49 228.79,-74.17 234.59,-83.04 238.85,-77.49"/>
</a>
</g>
</g>
<!-- Node3&#45;&gt;Node4 -->
<g id="edge3_Node000003_Node000004" class="edge">
<title>Node3&#45;&gt;Node4</title>
<g id="a_edge3_Node000003_Node000004"><a xlink:title=" ">
<path fill="none" stroke="#63b8ff" d="M320.81,-54.98C298.7,-46.3 264.18,-32.75 239.05,-22.88"/>
<polygon fill="#63b8ff" stroke="#63b8ff" points="240.17,-19.57 229.58,-19.17 237.61,-26.08 240.17,-19.57"/>
</a>
</g>
</g>
<!-- Node5 -->
<g id="Node000005" class="node">
<title>Node5</title>
<g id="a_Node000005"><a xlink:title=" ">
<polygon fill="#e0e0e0" stroke="#999999" points="290,-19 249,-19 249,0 290,0 290,-19"/>
<text text-anchor="middle" x="269.5" y="-7" font-family="Helvetica,sans-Serif" font-size="10.00">ctime</text>
</a>
</g>
</g>
<!-- Node3&#45;&gt;Node5 -->
<g id="edge4_Node000003_Node000005" class="edge">
<title>Node3&#45;&gt;Node5</title>
<g id="a_edge4_Node000003_Node000005"><a xlink:title=" ">
<path fill="none" stroke="#63b8ff" d="M330.77,-54.98C319.77,-47 303.08,-34.88 289.9,-25.31"/>
<polygon fill="#63b8ff" stroke="#63b8ff" points="291.59,-22.21 281.44,-19.17 287.48,-27.88 291.59,-22.21"/>
</a>
</g>
</g>
<!-- Node3&#45;&gt;Node6 -->
<g id="edge5_Node000003_Node000006" class="edge">
<title>Node3&#45;&gt;Node6</title>
<g id="a_edge5_Node000003_Node000006"><a xlink:title=" ">
<path fill="none" stroke="#63b8ff" d="M355.84,-54.98C368.59,-46.84 388.05,-34.41 403.17,-24.76"/>
<polygon fill="#63b8ff" stroke="#63b8ff" points="405.38,-27.5 411.92,-19.17 401.61,-21.6 405.38,-27.5"/>
</a>
</g>
</g>
<!-- Node7 -->
<g id="Node000007" class="node">
<title>Node7</title>
<g id="a_Node000007"><a xlink:href="error__codes_8h.html" target="_top" xlink:title="Seyahat Gideri Takibi &#45; Hata Kodları Enum&#39;u.">
<polygon fill="white" stroke="#666666" points="384.5,-19 308.5,-19 308.5,0 384.5,0 384.5,-19"/>
<text text-anchor="middle" x="346.5" y="-7" font-family="Helvetica,sans-Serif" font-size="10.00">error_codes.h</text>
</a>
</g>
</g>
<!-- Node3&#45;&gt;Node7 -->
<g id="edge6_Node000003_Node000007" class="edge">
<title>Node3&#45;&gt;Node7</title>
<g id="a_edge6_Node000003_Node000007"><a xlink:title=" ">
<path fill="none" stroke="#63b8ff" d="M343.16,-54.75C343.68,-47.8 344.44,-37.85 345.09,-29.13"/>
<polygon fill="#63b8ff" stroke="#63b8ff" points="348.59,-29.32 345.85,-19.09 341.61,-28.8 348.59,-29.32"/>
</a>
</g>
</g>
<!-- Node10&#45;&gt;Node4 -->
<g id="edge11_Node000010_Node000004" class="edge">
<title>Node10&#45;&gt;Node4</title>
<g id="a_edge11_Node000010_Node000004"><a xlink:title=" ">
<path fill="none" stroke="#63b8ff" d="M61.91,-109.72C71.92,-96.48 92.44,-71.23 114.5,-55 133.04,-41.36 156.42,-30.2 175.1,-22.46"/>
<polygon fill="#63b8ff" stroke="#63b8ff" points="176.41,-25.71 184.39,-18.74 173.8,-19.21 176.41,-25.71"/>
</a>
</g>
</g>
<!-- Node10&#45;&gt;Node8 -->
<g id="edge13_Node000010_Node000008" class="edge">
<title>Node10&#45;&gt;Node8</title>
<g id="a_edge13_Node000010_Node000008"><a xlink:title=" ">
<path fill="none" stroke="#63b8ff" d="M70.6,-109.98C85.32,-101.69 107.92,-88.94 125.17,-79.22"/>
<polygon fill="#63b8ff" stroke="#63b8ff" points="127.13,-82.13 134.12,-74.17 123.69,-76.03 127.13,-82.13"/>
</a>
</g>
</g>
<!-- Node10&#45;&gt;Node9 -->
<g id="edge12_Node000010_Node000009" class="edge">
<title>Node10&#45;&gt;Node9</title>
<g id="a_edge12_Node000010_Node000009"><a xlink:title=" ">
<path fill="none" stroke="#63b8ff" d="M81.53,-109.98C109.25,-100.91 153.24,-86.52 183.64,-76.58"/>
<polygon fill="#63b8ff" stroke="#63b8ff" points="184.97,-79.82 193.39,-73.39 182.8,-73.17 184.97,-79.82"/>
</a>
</g>
</g>
<!-- Node11&#45;&gt;Node8 -->
<g id="edge16_Node000011_Node000008" class="edge">
<title>Node11&#45;&gt;Node8</title>
<g id="a_edge16_Node000011_Node000008"><a xlink:title=" ">
<path fill="none" stroke="#63b8ff" d="M174.55,-109.75C170.44,-102.49 164.47,-91.95 159.4,-82.98"/>
<polygon fill="#63b8ff" stroke="#63b8ff" points="162.33,-81.07 154.36,-74.09 156.24,-84.52 162.33,-81.07"/>
</a>
</g>
</g>
<!-- Node11&#45;&gt;Node9 -->
<g id="edge15_Node000011_Node000009" class="edge">
<title>Node11&#45;&gt;Node9</title>
<g id="a_edge15_Node000011_Node000009"><a xlink:title=" ">
<path fill="none" stroke="#63b8ff" d="M185.77,-109.75C191.09,-102.34 198.86,-91.5 205.38,-82.41"/>
<polygon fill="#63b8ff" stroke="#63b8ff" points="208.36,-84.26 211.34,-74.09 202.67,-80.18 208.36,-84.26"/>
</a>
</g>
</g>
<!-- Node12&#45;&gt;Node6 -->
<g id="edge18_Node000012_Node000006" class="edge">
<title>Node12&#45;&gt;Node6</title>
<g id="a_edge18_Node000012_Node000006"><a xlink:title=" ">
<path fill="none" stroke="#63b8ff" d="M401.63,-109.66C405.86,-92.09 415.4,-52.45 421.06,-28.95"/>
<polygon fill="#63b8ff" stroke="#63b8ff" points="424.48,-29.7 423.42,-19.16 417.67,-28.06 424.48,-29.7"/>
</a>
</g>
</g>
<!-- Node12&#45;&gt;Node9 -->
<g id="edge19_Node000012_Node000009" class="edge">
<title>Node12&#45;&gt;Node9</title>
<g id="a_edge19_Node000012_Node000009"><a xlink:title=" ">
<path fill="none" stroke="#63b8ff" d="M370.26,-109.98C337.93,-100.57 285.92,-85.42 251.72,-75.46"/>
<polygon fill="#63b8ff" stroke="#63b8ff" points="252.3,-71.99 241.72,-72.55 250.34,-78.71 252.3,-71.99"/>
</a>
</g>
</g>
</g>
</svg>
