<?xml version="1.0" encoding="UTF-8" standalone="no"?>
<!DOCTYPE svg PUBLIC "-//W3C//DTD SVG 1.1//EN"
 "http://www.w3.org/Graphics/SVG/1.1/DTD/svg11.dtd">
<!-- Generated by graphviz version 6.0.2 (20221011.1828)
 -->
<!-- Title: src/travelexpense/src/tripManager.cpp Pages: 1 -->
<svg width="559pt" height="203pt"
 viewBox="0.00 0.00 559.00 203.00" xmlns="http://www.w3.org/2000/svg" xmlns:xlink="http://www.w3.org/1999/xlink">
<g id="graph0" class="graph" transform="scale(1 1) rotate(0) translate(4 199)">
<title>src/travelexpense/src/tripManager.cpp</title>
<!-- Node1 -->
<g id="Node000001" class="node">
<title>Node1</title>
<g id="a_Node000001"><a xlink:title="Seyahat Gideri Takibi &#45; Seyahat Yönetimi Implementation.">
<polygon fill="#999999" stroke="#666666" points="368,-195 259,-195 259,-165 368,-165 368,-195"/>
<text text-anchor="start" x="267" y="-183" font-family="Helvetica,sans-Serif" font-size="10.00">src/travelexpense/src</text>
<text text-anchor="middle" x="313.5" y="-172" font-family="Helvetica,sans-Serif" font-size="10.00">/tripManager.cpp</text>
</a>
</g>
</g>
<!-- Node2 -->
<g id="Node000002" class="node">
<title>Node2</title>
<g id="a_Node000002"><a xlink:href="trip_manager_8h.html" target="_top" xlink:title="Seyahat Gideri Takibi &#45; Seyahat Yönetimi Modülü">
<polygon fill="white" stroke="#666666" points="198,-129 81,-129 81,-110 198,-110 198,-129"/>
<text text-anchor="middle" x="139.5" y="-117" font-family="Helvetica,sans-Serif" font-size="10.00">../header/tripManager.h</text>
</a>
</g>
</g>
<!-- Node1&#45;&gt;Node2 -->
<g id="edge1_Node000001_Node000002" class="edge">
<title>Node1&#45;&gt;Node2</title>
<g id="a_edge1_Node000001_Node000002"><a xlink:title=" ">
<path fill="none" stroke="#63b8ff" d="M271.82,-164.99C242.18,-155.02 202.81,-141.78 174.73,-132.35"/>
<polygon fill="#63b8ff" stroke="#63b8ff" points="175.54,-128.92 164.94,-129.05 173.3,-135.56 175.54,-128.92"/>
</a>
</g>
</g>
<!-- Node5 -->
<g id="Node000005" class="node">
<title>Node5</title>
<g id="a_Node000005"><a xlink:title=" ">
<polygon fill="#e0e0e0" stroke="#999999" points="41,-19 0,-19 0,0 41,0 41,-19"/>
<text text-anchor="middle" x="20.5" y="-7" font-family="Helvetica,sans-Serif" font-size="10.00">ctime</text>
</a>
</g>
</g>
<!-- Node1&#45;&gt;Node5 -->
<g id="edge19_Node000001_Node000005" class="edge">
<title>Node1&#45;&gt;Node5</title>
<g id="a_edge19_Node000001_Node000005"><a xlink:title=" ">
<path fill="none" stroke="#63b8ff" d="M258.67,-177.29C207.28,-173.54 129.82,-162.27 71.5,-129 42.8,-112.63 33.65,-104.72 21.5,-74 15.85,-59.73 16.05,-42.2 17.41,-29.18"/>
<polygon fill="#63b8ff" stroke="#63b8ff" points="20.9,-29.47 18.78,-19.09 13.97,-28.52 20.9,-29.47"/>
</a>
</g>
</g>
<!-- Node6 -->
<g id="Node000006" class="node">
<title>Node6</title>
<g id="a_Node000006"><a xlink:title=" ">
<polygon fill="#e0e0e0" stroke="#999999" points="432.5,-19 386.5,-19 386.5,0 432.5,0 432.5,-19"/>
<text text-anchor="middle" x="409.5" y="-7" font-family="Helvetica,sans-Serif" font-size="10.00">cstring</text>
</a>
</g>
</g>
<!-- Node1&#45;&gt;Node6 -->
<g id="edge18_Node000001_Node000006" class="edge">
<title>Node1&#45;&gt;Node6</title>
<g id="a_edge18_Node000001_Node000006"><a xlink:title=" ">
<path fill="none" stroke="#63b8ff" d="M326.6,-164.83C343.68,-145.63 373.38,-109.66 390.5,-74 397.43,-59.56 402.45,-42.04 405.57,-29.07"/>
<polygon fill="#63b8ff" stroke="#63b8ff" points="409.05,-29.56 407.84,-19.03 402.23,-28.01 409.05,-29.56"/>
</a>
</g>
</g>
<!-- Node10 -->
<g id="Node000010" class="node">
<title>Node10</title>
<g id="a_Node000010"><a xlink:href="database_8h.html" target="_top" xlink:title="Seyahat Gideri Takibi &#45; SQLite Veritabanı Yönetimi.">
<polygon fill="white" stroke="#666666" points="326.5,-129 220.5,-129 220.5,-110 326.5,-110 326.5,-129"/>
<text text-anchor="middle" x="273.5" y="-117" font-family="Helvetica,sans-Serif" font-size="10.00">../header/database.h</text>
</a>
</g>
</g>
<!-- Node1&#45;&gt;Node10 -->
<g id="edge9_Node000001_Node000010" class="edge">
<title>Node1&#45;&gt;Node10</title>
<g id="a_edge9_Node000001_Node000010"><a xlink:title=" ">
<path fill="none" stroke="#63b8ff" d="M303.82,-164.84C298.25,-156.69 291.21,-146.4 285.32,-137.78"/>
<polygon fill="#63b8ff" stroke="#63b8ff" points="288.03,-135.55 279.49,-129.27 282.25,-139.5 288.03,-135.55"/>
</a>
</g>
</g>
<!-- Node11 -->
<g id="Node000011" class="node">
<title>Node11</title>
<g id="a_Node000011"><a xlink:title=" ">
<polygon fill="#e0e0e0" stroke="#999999" points="381,-74 328,-74 328,-55 381,-55 381,-74"/>
<text text-anchor="middle" x="354.5" y="-62" font-family="Helvetica,sans-Serif" font-size="10.00">sqlite3.h</text>
</a>
</g>
</g>
<!-- Node1&#45;&gt;Node11 -->
<g id="edge17_Node000001_Node000011" class="edge">
<title>Node1&#45;&gt;Node11</title>
<g id="a_edge17_Node000001_Node000011"><a xlink:title=" ">
<path fill="none" stroke="#63b8ff" d="M320.33,-164.75C324.94,-154.85 330.98,-141.28 335.5,-129 340.97,-114.13 346.05,-96.89 349.58,-84.13"/>
<polygon fill="#63b8ff" stroke="#63b8ff" points="353.02,-84.81 352.25,-74.24 346.27,-82.98 353.02,-84.81"/>
</a>
</g>
</g>
<!-- Node13 -->
<g id="Node000013" class="node">
<title>Node13</title>
<g id="a_Node000013"><a xlink:href="safe__string_8h.html" target="_top" xlink:title="Güvenli string işlemleri için yardımcı fonksiyonlar.">
<polygon fill="white" stroke="#666666" points="551,-129 438,-129 438,-110 551,-110 551,-129"/>
<text text-anchor="middle" x="494.5" y="-117" font-family="Helvetica,sans-Serif" font-size="10.00">../header/safe_string.h</text>
</a>
</g>
</g>
<!-- Node1&#45;&gt;Node13 -->
<g id="edge14_Node000001_Node000013" class="edge">
<title>Node1&#45;&gt;Node13</title>
<g id="a_edge14_Node000001_Node000013"><a xlink:title=" ">
<path fill="none" stroke="#63b8ff" d="M356.85,-164.99C387.82,-154.98 429,-141.67 458.23,-132.22"/>
<polygon fill="#63b8ff" stroke="#63b8ff" points="459.6,-135.46 468.03,-129.05 457.44,-128.8 459.6,-135.46"/>
</a>
</g>
</g>
<!-- Node3 -->
<g id="Node000003" class="node">
<title>Node3</title>
<g id="a_Node000003"><a xlink:href="common_types_8h.html" target="_top" xlink:title="Seyahat Gideri Takibi &#45; Ortak Veri Tipleri ve Modelleri.">
<polygon fill="white" stroke="#666666" points="180,-74 91,-74 91,-55 180,-55 180,-74"/>
<text text-anchor="middle" x="135.5" y="-62" font-family="Helvetica,sans-Serif" font-size="10.00">commonTypes.h</text>
</a>
</g>
</g>
<!-- Node2&#45;&gt;Node3 -->
<g id="edge2_Node000002_Node000003" class="edge">
<title>Node2&#45;&gt;Node3</title>
<g id="a_edge2_Node000002_Node000003"><a xlink:title=" ">
<path fill="none" stroke="#63b8ff" d="M138.84,-109.75C138.32,-102.8 137.56,-92.85 136.91,-84.13"/>
<polygon fill="#63b8ff" stroke="#63b8ff" points="140.39,-83.8 136.15,-74.09 133.41,-84.32 140.39,-83.8"/>
</a>
</g>
</g>
<!-- Node8 -->
<g id="Node000008" class="node">
<title>Node8</title>
<g id="a_Node000008"><a xlink:href="export_8h.html" target="_top" xlink:title="Seyahat Gideri Takibi &#45; DLL Export/Import Macros.">
<polygon fill="white" stroke="#666666" points="250.5,-74 198.5,-74 198.5,-55 250.5,-55 250.5,-74"/>
<text text-anchor="middle" x="224.5" y="-62" font-family="Helvetica,sans-Serif" font-size="10.00">export.h</text>
</a>
</g>
</g>
<!-- Node2&#45;&gt;Node8 -->
<g id="edge7_Node000002_Node000008" class="edge">
<title>Node2&#45;&gt;Node8</title>
<g id="a_edge7_Node000002_Node000008"><a xlink:title=" ">
<path fill="none" stroke="#63b8ff" d="M153.16,-109.98C166.34,-101.77 186.53,-89.18 202.07,-79.49"/>
<polygon fill="#63b8ff" stroke="#63b8ff" points="203.96,-82.43 210.59,-74.17 200.26,-76.49 203.96,-82.43"/>
</a>
</g>
</g>
<!-- Node9 -->
<g id="Node000009" class="node">
<title>Node9</title>
<g id="a_Node000009"><a xlink:title=" ">
<polygon fill="#e0e0e0" stroke="#999999" points="72.5,-74 30.5,-74 30.5,-55 72.5,-55 72.5,-74"/>
<text text-anchor="middle" x="51.5" y="-62" font-family="Helvetica,sans-Serif" font-size="10.00">vector</text>
</a>
</g>
</g>
<!-- Node2&#45;&gt;Node9 -->
<g id="edge8_Node000002_Node000009" class="edge">
<title>Node2&#45;&gt;Node9</title>
<g id="a_edge8_Node000002_Node000009"><a xlink:title=" ">
<path fill="none" stroke="#63b8ff" d="M125.36,-109.98C111.71,-101.77 90.81,-89.18 74.72,-79.49"/>
<polygon fill="#63b8ff" stroke="#63b8ff" points="76.27,-76.33 65.9,-74.17 72.66,-82.33 76.27,-76.33"/>
</a>
</g>
</g>
<!-- Node4 -->
<g id="Node000004" class="node">
<title>Node4</title>
<g id="a_Node000004"><a xlink:title=" ">
<polygon fill="#e0e0e0" stroke="#999999" points="123.5,-19 77.5,-19 77.5,0 123.5,0 123.5,-19"/>
<text text-anchor="middle" x="100.5" y="-7" font-family="Helvetica,sans-Serif" font-size="10.00">cstdint</text>
</a>
</g>
</g>
<!-- Node3&#45;&gt;Node4 -->
<g id="edge3_Node000003_Node000004" class="edge">
<title>Node3&#45;&gt;Node4</title>
<g id="a_edge3_Node000003_Node000004"><a xlink:title=" ">
<path fill="none" stroke="#63b8ff" d="M129.72,-54.75C124.88,-47.42 117.82,-36.73 111.86,-27.7"/>
<polygon fill="#63b8ff" stroke="#63b8ff" points="114.6,-25.5 106.17,-19.09 108.76,-29.36 114.6,-25.5"/>
</a>
</g>
</g>
<!-- Node3&#45;&gt;Node5 -->
<g id="edge4_Node000003_Node000005" class="edge">
<title>Node3&#45;&gt;Node5</title>
<g id="a_edge4_Node000003_Node000005"><a xlink:title=" ">
<path fill="none" stroke="#63b8ff" d="M117.02,-54.98C98.52,-46.46 69.82,-33.23 48.52,-23.41"/>
<polygon fill="#63b8ff" stroke="#63b8ff" points="49.86,-20.18 39.31,-19.17 46.93,-26.53 49.86,-20.18"/>
</a>
</g>
</g>
<!-- Node3&#45;&gt;Node6 -->
<g id="edge5_Node000003_Node000006" class="edge">
<title>Node3&#45;&gt;Node6</title>
<g id="a_edge5_Node000003_Node000006"><a xlink:title=" ">
<path fill="none" stroke="#63b8ff" d="M179.52,-54.98C234.46,-44.36 327.17,-26.43 376.43,-16.9"/>
<polygon fill="#63b8ff" stroke="#63b8ff" points="377.09,-20.33 386.25,-15 375.77,-13.46 377.09,-20.33"/>
</a>
</g>
</g>
<!-- Node7 -->
<g id="Node000007" class="node">
<title>Node7</title>
<g id="a_Node000007"><a xlink:href="error__codes_8h.html" target="_top" xlink:title="Seyahat Gideri Takibi &#45; Hata Kodları Enum&#39;u.">
<polygon fill="white" stroke="#666666" points="217.5,-19 141.5,-19 141.5,0 217.5,0 217.5,-19"/>
<text text-anchor="middle" x="179.5" y="-7" font-family="Helvetica,sans-Serif" font-size="10.00">error_codes.h</text>
</a>
</g>
</g>
<!-- Node3&#45;&gt;Node7 -->
<g id="edge6_Node000003_Node000007" class="edge">
<title>Node3&#45;&gt;Node7</title>
<g id="a_edge6_Node000003_Node000007"><a xlink:title=" ">
<path fill="none" stroke="#63b8ff" d="M142.77,-54.75C149.04,-47.18 158.29,-36.05 165.93,-26.84"/>
<polygon fill="#63b8ff" stroke="#63b8ff" points="168.67,-29.02 172.37,-19.09 163.29,-24.55 168.67,-29.02"/>
</a>
</g>
</g>
<!-- Node10&#45;&gt;Node3 -->
<g id="edge10_Node000010_Node000003" class="edge">
<title>Node10&#45;&gt;Node3</title>
<g id="a_edge10_Node000010_Node000003"><a xlink:title=" ">
<path fill="none" stroke="#63b8ff" d="M251.33,-109.98C228.73,-101.3 193.44,-87.75 167.75,-77.88"/>
<polygon fill="#63b8ff" stroke="#63b8ff" points="168.67,-74.49 158.08,-74.17 166.16,-81.02 168.67,-74.49"/>
</a>
</g>
</g>
<!-- Node10&#45;&gt;Node8 -->
<g id="edge11_Node000010_Node000008" class="edge">
<title>Node10&#45;&gt;Node8</title>
<g id="a_edge11_Node000010_Node000008"><a xlink:title=" ">
<path fill="none" stroke="#63b8ff" d="M265.41,-109.75C258.34,-102.11 247.91,-90.82 239.35,-81.56"/>
<polygon fill="#63b8ff" stroke="#63b8ff" points="241.8,-79.06 232.44,-74.09 236.66,-83.81 241.8,-79.06"/>
</a>
</g>
</g>
<!-- Node10&#45;&gt;Node11 -->
<g id="edge12_Node000010_Node000011" class="edge">
<title>Node10&#45;&gt;Node11</title>
<g id="a_edge12_Node000010_Node000011"><a xlink:title=" ">
<path fill="none" stroke="#63b8ff" d="M286.51,-109.98C298.96,-101.84 317.96,-89.41 332.71,-79.76"/>
<polygon fill="#63b8ff" stroke="#63b8ff" points="334.8,-82.57 341.25,-74.17 330.96,-76.72 334.8,-82.57"/>
</a>
</g>
</g>
<!-- Node12 -->
<g id="Node000012" class="node">
<title>Node12</title>
<g id="a_Node000012"><a xlink:title=" ">
<polygon fill="#e0e0e0" stroke="#999999" points="310,-74 269,-74 269,-55 310,-55 310,-74"/>
<text text-anchor="middle" x="289.5" y="-62" font-family="Helvetica,sans-Serif" font-size="10.00">string</text>
</a>
</g>
</g>
<!-- Node10&#45;&gt;Node12 -->
<g id="edge13_Node000010_Node000012" class="edge">
<title>Node10&#45;&gt;Node12</title>
<g id="a_edge13_Node000010_Node000012"><a xlink:title=" ">
<path fill="none" stroke="#63b8ff" d="M276.14,-109.75C278.26,-102.72 281.31,-92.62 283.96,-83.84"/>
<polygon fill="#63b8ff" stroke="#63b8ff" points="287.37,-84.67 286.91,-74.09 280.67,-82.65 287.37,-84.67"/>
</a>
</g>
</g>
<!-- Node13&#45;&gt;Node6 -->
<g id="edge15_Node000013_Node000006" class="edge">
<title>Node13&#45;&gt;Node6</title>
<g id="a_edge15_Node000013_Node000006"><a xlink:title=" ">
<path fill="none" stroke="#63b8ff" d="M497.1,-109.95C500.51,-97.02 504.89,-72.17 494.5,-55 483.17,-36.28 461.08,-25.05 442.26,-18.56"/>
<polygon fill="#63b8ff" stroke="#63b8ff" points="443.1,-15.15 432.51,-15.5 441,-21.83 443.1,-15.15"/>
</a>
</g>
</g>
<!-- Node14 -->
<g id="Node000014" class="node">
<title>Node14</title>
<g id="a_Node000014"><a xlink:title=" ">
<polygon fill="#e0e0e0" stroke="#999999" points="485.5,-74 437.5,-74 437.5,-55 485.5,-55 485.5,-74"/>
<text text-anchor="middle" x="461.5" y="-62" font-family="Helvetica,sans-Serif" font-size="10.00">cstddef</text>
</a>
</g>
</g>
<!-- Node13&#45;&gt;Node14 -->
<g id="edge16_Node000013_Node000014" class="edge">
<title>Node13&#45;&gt;Node14</title>
<g id="a_edge16_Node000013_Node000014"><a xlink:title=" ">
<path fill="none" stroke="#63b8ff" d="M489.05,-109.75C484.49,-102.42 477.83,-91.73 472.21,-82.7"/>
<polygon fill="#63b8ff" stroke="#63b8ff" points="475.1,-80.73 466.85,-74.09 469.16,-84.43 475.1,-80.73"/>
</a>
</g>
</g>
</g>
</svg>
