<?xml version="1.0" encoding="UTF-8" standalone="no"?>
<!DOCTYPE svg PUBLIC "-//W3C//DTD SVG 1.1//EN"
 "http://www.w3.org/Graphics/SVG/1.1/DTD/svg11.dtd">
<!-- Generated by graphviz version 6.0.2 (20221011.1828)
 -->
<!-- Title: src/travelexpense/src/userAuth.cpp Pages: 1 -->
<svg width="656pt" height="203pt"
 viewBox="0.00 0.00 655.50 203.00" xmlns="http://www.w3.org/2000/svg" xmlns:xlink="http://www.w3.org/1999/xlink">
<g id="graph0" class="graph" transform="scale(1 1) rotate(0) translate(4 199)">
<title>src/travelexpense/src/userAuth.cpp</title>
<!-- Node1 -->
<g id="Node000001" class="node">
<title>Node1</title>
<g id="a_Node000001"><a xlink:title="Seyahat Gideri Takibi &#45; Kullanıcı Kimlik Doğrulama Implementation.">
<polygon fill="#999999" stroke="#666666" points="269,-195 160,-195 160,-165 269,-165 269,-195"/>
<text text-anchor="start" x="168" y="-183" font-family="Helvetica,sans-Serif" font-size="10.00">src/travelexpense/src</text>
<text text-anchor="middle" x="214.5" y="-172" font-family="Helvetica,sans-Serif" font-size="10.00">/userAuth.cpp</text>
</a>
</g>
</g>
<!-- Node2 -->
<g id="Node000002" class="node">
<title>Node2</title>
<g id="a_Node000002"><a xlink:href="user_auth_8h.html" target="_top" xlink:title="Seyahat Gideri Takibi &#45; Kullanıcı Kimlik Doğrulama Modülü">
<polygon fill="white" stroke="#666666" points="329,-129 224,-129 224,-110 329,-110 329,-129"/>
<text text-anchor="middle" x="276.5" y="-117" font-family="Helvetica,sans-Serif" font-size="10.00">../header/userAuth.h</text>
</a>
</g>
</g>
<!-- Node1&#45;&gt;Node2 -->
<g id="edge1_Node000001_Node000002" class="edge">
<title>Node1&#45;&gt;Node2</title>
<g id="a_edge1_Node000001_Node000002"><a xlink:title=" ">
<path fill="none" stroke="#63b8ff" d="M229.51,-164.84C238.69,-156.17 250.45,-145.08 259.91,-136.15"/>
<polygon fill="#63b8ff" stroke="#63b8ff" points="262.34,-138.67 267.21,-129.27 257.53,-133.58 262.34,-138.67"/>
</a>
</g>
</g>
<!-- Node5 -->
<g id="Node000005" class="node">
<title>Node5</title>
<g id="a_Node000005"><a xlink:title=" ">
<polygon fill="#e0e0e0" stroke="#999999" points="41,-19 0,-19 0,0 41,0 41,-19"/>
<text text-anchor="middle" x="20.5" y="-7" font-family="Helvetica,sans-Serif" font-size="10.00">ctime</text>
</a>
</g>
</g>
<!-- Node1&#45;&gt;Node5 -->
<g id="edge23_Node000001_Node000005" class="edge">
<title>Node1&#45;&gt;Node5</title>
<g id="a_edge23_Node000001_Node000005"><a xlink:title=" ">
<path fill="none" stroke="#63b8ff" d="M159.64,-173.76C126.66,-167.88 86.07,-155.41 59.5,-129 32.19,-101.85 24.01,-55.27 21.55,-29.33"/>
<polygon fill="#63b8ff" stroke="#63b8ff" points="25.01,-28.72 20.78,-19.01 18.03,-29.24 25.01,-28.72"/>
</a>
</g>
</g>
<!-- Node6 -->
<g id="Node000006" class="node">
<title>Node6</title>
<g id="a_Node000006"><a xlink:title=" ">
<polygon fill="#e0e0e0" stroke="#999999" points="155.5,-19 109.5,-19 109.5,0 155.5,0 155.5,-19"/>
<text text-anchor="middle" x="132.5" y="-7" font-family="Helvetica,sans-Serif" font-size="10.00">cstring</text>
</a>
</g>
</g>
<!-- Node1&#45;&gt;Node6 -->
<g id="edge21_Node000001_Node000006" class="edge">
<title>Node1&#45;&gt;Node6</title>
<g id="a_edge21_Node000001_Node000006"><a xlink:title=" ">
<path fill="none" stroke="#63b8ff" d="M159.87,-169.32C132.67,-162.11 100.9,-149.79 78.5,-129 58.82,-110.73 59.18,-100.24 53.5,-74 51.71,-65.75 49.24,-62.29 53.5,-55 63.46,-37.96 82.62,-26.94 99.57,-20.12"/>
<polygon fill="#63b8ff" stroke="#63b8ff" points="101.03,-23.32 109.21,-16.58 98.62,-16.74 101.03,-23.32"/>
</a>
</g>
</g>
<!-- Node9 -->
<g id="Node000009" class="node">
<title>Node9</title>
<g id="a_Node000009"><a xlink:href="database_8h.html" target="_top" xlink:title="Seyahat Gideri Takibi &#45; SQLite Veritabanı Yönetimi.">
<polygon fill="white" stroke="#666666" points="205.5,-129 99.5,-129 99.5,-110 205.5,-110 205.5,-129"/>
<text text-anchor="middle" x="152.5" y="-117" font-family="Helvetica,sans-Serif" font-size="10.00">../header/database.h</text>
</a>
</g>
</g>
<!-- Node1&#45;&gt;Node9 -->
<g id="edge8_Node000001_Node000009" class="edge">
<title>Node1&#45;&gt;Node9</title>
<g id="a_edge8_Node000001_Node000009"><a xlink:title=" ">
<path fill="none" stroke="#63b8ff" d="M199.49,-164.84C190.31,-156.17 178.55,-145.08 169.09,-136.15"/>
<polygon fill="#63b8ff" stroke="#63b8ff" points="171.47,-133.58 161.79,-129.27 166.66,-138.67 171.47,-133.58"/>
</a>
</g>
</g>
<!-- Node10 -->
<g id="Node000010" class="node">
<title>Node10</title>
<g id="a_Node000010"><a xlink:title=" ">
<polygon fill="#e0e0e0" stroke="#999999" points="115,-74 62,-74 62,-55 115,-55 115,-74"/>
<text text-anchor="middle" x="88.5" y="-62" font-family="Helvetica,sans-Serif" font-size="10.00">sqlite3.h</text>
</a>
</g>
</g>
<!-- Node1&#45;&gt;Node10 -->
<g id="edge20_Node000001_Node000010" class="edge">
<title>Node1&#45;&gt;Node10</title>
<g id="a_edge20_Node000001_Node000010"><a xlink:title=" ">
<path fill="none" stroke="#63b8ff" d="M159.88,-170.91C134.45,-164.15 106.38,-151.74 90.5,-129 81.52,-116.14 81.9,-97.98 84.01,-84.37"/>
<polygon fill="#63b8ff" stroke="#63b8ff" points="87.51,-84.71 86.02,-74.22 80.64,-83.35 87.51,-84.71"/>
</a>
</g>
</g>
<!-- Node12 -->
<g id="Node000012" class="node">
<title>Node12</title>
<g id="a_Node000012"><a xlink:href="encryption_8h.html" target="_top" xlink:title="Seyahat Gideri Takibi &#45; Şifreleme Fonksiyonları">
<polygon fill="white" stroke="#666666" points="577,-129 466,-129 466,-110 577,-110 577,-129"/>
<text text-anchor="middle" x="521.5" y="-117" font-family="Helvetica,sans-Serif" font-size="10.00">../header/encryption.h</text>
</a>
</g>
</g>
<!-- Node1&#45;&gt;Node12 -->
<g id="edge13_Node000001_Node000012" class="edge">
<title>Node1&#45;&gt;Node12</title>
<g id="a_edge13_Node000001_Node000012"><a xlink:title=" ">
<path fill="none" stroke="#63b8ff" d="M269.03,-168.61C324.67,-158.01 410.55,-141.64 466.39,-131"/>
<polygon fill="#63b8ff" stroke="#63b8ff" points="467.29,-134.39 476.46,-129.08 465.98,-127.52 467.29,-134.39"/>
</a>
</g>
</g>
<!-- Node14 -->
<g id="Node000014" class="node">
<title>Node14</title>
<g id="a_Node000014"><a xlink:href="security_8h.html" target="_top" xlink:title="Seyahat Gideri Takibi &#45; Güvenlik Fonksiyonları">
<polygon fill="white" stroke="#666666" points="448,-129 347,-129 347,-110 448,-110 448,-129"/>
<text text-anchor="middle" x="397.5" y="-117" font-family="Helvetica,sans-Serif" font-size="10.00">../header/security.h</text>
</a>
</g>
</g>
<!-- Node1&#45;&gt;Node14 -->
<g id="edge17_Node000001_Node000014" class="edge">
<title>Node1&#45;&gt;Node14</title>
<g id="a_edge17_Node000001_Node000014"><a xlink:title=" ">
<path fill="none" stroke="#63b8ff" d="M258.33,-164.99C289.64,-154.98 331.28,-141.67 360.83,-132.22"/>
<polygon fill="#63b8ff" stroke="#63b8ff" points="362.28,-135.43 370.74,-129.05 360.15,-128.76 362.28,-135.43"/>
</a>
</g>
</g>
<!-- Node15 -->
<g id="Node000015" class="node">
<title>Node15</title>
<g id="a_Node000015"><a xlink:title=" ">
<polygon fill="#e0e0e0" stroke="#999999" points="647.5,-129 595.5,-129 595.5,-110 647.5,-110 647.5,-129"/>
<text text-anchor="middle" x="621.5" y="-117" font-family="Helvetica,sans-Serif" font-size="10.00">sstream</text>
</a>
</g>
</g>
<!-- Node1&#45;&gt;Node15 -->
<g id="edge22_Node000001_Node000015" class="edge">
<title>Node1&#45;&gt;Node15</title>
<g id="a_edge22_Node000001_Node000015"><a xlink:title=" ">
<path fill="none" stroke="#63b8ff" d="M269.31,-173.45C340.13,-165.87 467.39,-150.9 585.27,-129.06"/>
<polygon fill="#63b8ff" stroke="#63b8ff" points="586.01,-132.48 595.19,-127.2 584.72,-125.6 586.01,-132.48"/>
</a>
</g>
</g>
<!-- Node3 -->
<g id="Node000003" class="node">
<title>Node3</title>
<g id="a_Node000003"><a xlink:href="common_types_8h.html" target="_top" xlink:title="Seyahat Gideri Takibi &#45; Ortak Veri Tipleri ve Modelleri.">
<polygon fill="white" stroke="#666666" points="281,-74 192,-74 192,-55 281,-55 281,-74"/>
<text text-anchor="middle" x="236.5" y="-62" font-family="Helvetica,sans-Serif" font-size="10.00">commonTypes.h</text>
</a>
</g>
</g>
<!-- Node2&#45;&gt;Node3 -->
<g id="edge2_Node000002_Node000003" class="edge">
<title>Node2&#45;&gt;Node3</title>
<g id="a_edge2_Node000002_Node000003"><a xlink:title=" ">
<path fill="none" stroke="#63b8ff" d="M269.89,-109.75C264.24,-102.26 255.96,-91.28 249.05,-82.13"/>
<polygon fill="#63b8ff" stroke="#63b8ff" points="251.8,-79.96 242.98,-74.09 246.21,-84.18 251.8,-79.96"/>
</a>
</g>
</g>
<!-- Node8 -->
<g id="Node000008" class="node">
<title>Node8</title>
<g id="a_Node000008"><a xlink:href="export_8h.html" target="_top" xlink:title="Seyahat Gideri Takibi &#45; DLL Export/Import Macros.">
<polygon fill="white" stroke="#666666" points="371.5,-74 319.5,-74 319.5,-55 371.5,-55 371.5,-74"/>
<text text-anchor="middle" x="345.5" y="-62" font-family="Helvetica,sans-Serif" font-size="10.00">export.h</text>
</a>
</g>
</g>
<!-- Node2&#45;&gt;Node8 -->
<g id="edge7_Node000002_Node000008" class="edge">
<title>Node2&#45;&gt;Node8</title>
<g id="a_edge7_Node000002_Node000008"><a xlink:title=" ">
<path fill="none" stroke="#63b8ff" d="M287.59,-109.98C297.99,-102 313.76,-89.88 326.22,-80.31"/>
<polygon fill="#63b8ff" stroke="#63b8ff" points="328.41,-83.04 334.21,-74.17 324.15,-77.49 328.41,-83.04"/>
</a>
</g>
</g>
<!-- Node4 -->
<g id="Node000004" class="node">
<title>Node4</title>
<g id="a_Node000004"><a xlink:title=" ">
<polygon fill="#e0e0e0" stroke="#999999" points="405.5,-19 359.5,-19 359.5,0 405.5,0 405.5,-19"/>
<text text-anchor="middle" x="382.5" y="-7" font-family="Helvetica,sans-Serif" font-size="10.00">cstdint</text>
</a>
</g>
</g>
<!-- Node3&#45;&gt;Node4 -->
<g id="edge3_Node000003_Node000004" class="edge">
<title>Node3&#45;&gt;Node4</title>
<g id="a_edge3_Node000003_Node000004"><a xlink:title=" ">
<path fill="none" stroke="#63b8ff" d="M259.96,-54.98C284.22,-46.18 322.32,-32.35 349.59,-22.45"/>
<polygon fill="#63b8ff" stroke="#63b8ff" points="350.9,-25.7 359.1,-18.99 348.51,-19.12 350.9,-25.7"/>
</a>
</g>
</g>
<!-- Node3&#45;&gt;Node5 -->
<g id="edge4_Node000003_Node000005" class="edge">
<title>Node3&#45;&gt;Node5</title>
<g id="a_edge4_Node000003_Node000005"><a xlink:title=" ">
<path fill="none" stroke="#63b8ff" d="M201.8,-54.98C160.09,-44.75 90.76,-27.74 51.02,-17.99"/>
<polygon fill="#63b8ff" stroke="#63b8ff" points="51.65,-14.54 41.11,-15.56 49.99,-21.34 51.65,-14.54"/>
</a>
</g>
</g>
<!-- Node3&#45;&gt;Node6 -->
<g id="edge5_Node000003_Node000006" class="edge">
<title>Node3&#45;&gt;Node6</title>
<g id="a_edge5_Node000003_Node000006"><a xlink:title=" ">
<path fill="none" stroke="#63b8ff" d="M219.79,-54.98C203.29,-46.57 177.8,-33.59 158.62,-23.81"/>
<polygon fill="#63b8ff" stroke="#63b8ff" points="160.01,-20.59 149.51,-19.17 156.83,-26.83 160.01,-20.59"/>
</a>
</g>
</g>
<!-- Node7 -->
<g id="Node000007" class="node">
<title>Node7</title>
<g id="a_Node000007"><a xlink:href="error__codes_8h.html" target="_top" xlink:title="Seyahat Gideri Takibi &#45; Hata Kodları Enum&#39;u.">
<polygon fill="white" stroke="#666666" points="274.5,-19 198.5,-19 198.5,0 274.5,0 274.5,-19"/>
<text text-anchor="middle" x="236.5" y="-7" font-family="Helvetica,sans-Serif" font-size="10.00">error_codes.h</text>
</a>
</g>
</g>
<!-- Node3&#45;&gt;Node7 -->
<g id="edge6_Node000003_Node000007" class="edge">
<title>Node3&#45;&gt;Node7</title>
<g id="a_edge6_Node000003_Node000007"><a xlink:title=" ">
<path fill="none" stroke="#63b8ff" d="M236.5,-54.75C236.5,-47.8 236.5,-37.85 236.5,-29.13"/>
<polygon fill="#63b8ff" stroke="#63b8ff" points="240,-29.09 236.5,-19.09 233,-29.09 240,-29.09"/>
</a>
</g>
</g>
<!-- Node9&#45;&gt;Node3 -->
<g id="edge9_Node000009_Node000003" class="edge">
<title>Node9&#45;&gt;Node3</title>
<g id="a_edge9_Node000009_Node000003"><a xlink:title=" ">
<path fill="none" stroke="#63b8ff" d="M166,-109.98C178.9,-101.84 198.6,-89.41 213.9,-79.76"/>
<polygon fill="#63b8ff" stroke="#63b8ff" points="216.17,-82.47 222.76,-74.17 212.43,-76.55 216.17,-82.47"/>
</a>
</g>
</g>
<!-- Node9&#45;&gt;Node8 -->
<g id="edge10_Node000009_Node000008" class="edge">
<title>Node9&#45;&gt;Node8</title>
<g id="a_edge10_Node000009_Node000008"><a xlink:title=" ">
<path fill="none" stroke="#63b8ff" d="M183.51,-109.98C217.89,-100.54 273.27,-85.33 309.53,-75.38"/>
<polygon fill="#63b8ff" stroke="#63b8ff" points="310.5,-78.74 319.22,-72.72 308.65,-71.99 310.5,-78.74"/>
</a>
</g>
</g>
<!-- Node9&#45;&gt;Node10 -->
<g id="edge11_Node000009_Node000010" class="edge">
<title>Node9&#45;&gt;Node10</title>
<g id="a_edge11_Node000009_Node000010"><a xlink:title=" ">
<path fill="none" stroke="#63b8ff" d="M142.22,-109.98C132.66,-102.07 118.22,-90.11 106.72,-80.58"/>
<polygon fill="#63b8ff" stroke="#63b8ff" points="108.9,-77.85 98.97,-74.17 104.44,-83.24 108.9,-77.85"/>
</a>
</g>
</g>
<!-- Node11 -->
<g id="Node000011" class="node">
<title>Node11</title>
<g id="a_Node000011"><a xlink:title=" ">
<polygon fill="#e0e0e0" stroke="#999999" points="174,-74 133,-74 133,-55 174,-55 174,-74"/>
<text text-anchor="middle" x="153.5" y="-62" font-family="Helvetica,sans-Serif" font-size="10.00">string</text>
</a>
</g>
</g>
<!-- Node9&#45;&gt;Node11 -->
<g id="edge12_Node000009_Node000011" class="edge">
<title>Node9&#45;&gt;Node11</title>
<g id="a_edge12_Node000009_Node000011"><a xlink:title=" ">
<path fill="none" stroke="#63b8ff" d="M152.67,-109.75C152.8,-102.8 152.98,-92.85 153.15,-84.13"/>
<polygon fill="#63b8ff" stroke="#63b8ff" points="156.65,-84.15 153.34,-74.09 149.65,-84.02 156.65,-84.15"/>
</a>
</g>
</g>
<!-- Node12&#45;&gt;Node4 -->
<g id="edge14_Node000012_Node000004" class="edge">
<title>Node12&#45;&gt;Node4</title>
<g id="a_edge14_Node000012_Node000004"><a xlink:title=" ">
<path fill="none" stroke="#63b8ff" d="M512.36,-109.9C498.83,-97.32 472.49,-73.41 448.5,-55 434.47,-44.24 417.98,-33.12 404.99,-24.68"/>
<polygon fill="#63b8ff" stroke="#63b8ff" points="406.54,-21.52 396.24,-19.06 402.76,-27.41 406.54,-21.52"/>
</a>
</g>
</g>
<!-- Node12&#45;&gt;Node8 -->
<g id="edge16_Node000012_Node000008" class="edge">
<title>Node12&#45;&gt;Node8</title>
<g id="a_edge16_Node000012_Node000008"><a xlink:title=" ">
<path fill="none" stroke="#63b8ff" d="M493.22,-109.98C462.84,-100.84 414.48,-86.27 381.43,-76.32"/>
<polygon fill="#63b8ff" stroke="#63b8ff" points="382.28,-72.92 371.7,-73.39 380.26,-79.62 382.28,-72.92"/>
</a>
</g>
</g>
<!-- Node13 -->
<g id="Node000013" class="node">
<title>Node13</title>
<g id="a_Node000013"><a xlink:title=" ">
<polygon fill="#e0e0e0" stroke="#999999" points="439.5,-74 391.5,-74 391.5,-55 439.5,-55 439.5,-74"/>
<text text-anchor="middle" x="415.5" y="-62" font-family="Helvetica,sans-Serif" font-size="10.00">cstddef</text>
</a>
</g>
</g>
<!-- Node12&#45;&gt;Node13 -->
<g id="edge15_Node000012_Node000013" class="edge">
<title>Node12&#45;&gt;Node13</title>
<g id="a_edge15_Node000012_Node000013"><a xlink:title=" ">
<path fill="none" stroke="#63b8ff" d="M504.47,-109.98C487.57,-101.54 461.44,-88.47 441.86,-78.68"/>
<polygon fill="#63b8ff" stroke="#63b8ff" points="443.35,-75.51 432.84,-74.17 440.22,-81.77 443.35,-75.51"/>
</a>
</g>
</g>
<!-- Node14&#45;&gt;Node8 -->
<g id="edge19_Node000014_Node000008" class="edge">
<title>Node14&#45;&gt;Node8</title>
<g id="a_edge19_Node000014_Node000008"><a xlink:title=" ">
<path fill="none" stroke="#63b8ff" d="M388.91,-109.75C381.34,-102.03 370.12,-90.6 360.99,-81.28"/>
<polygon fill="#63b8ff" stroke="#63b8ff" points="363.43,-78.78 353.93,-74.09 358.43,-83.68 363.43,-78.78"/>
</a>
</g>
</g>
<!-- Node14&#45;&gt;Node13 -->
<g id="edge18_Node000014_Node000013" class="edge">
<title>Node14&#45;&gt;Node13</title>
<g id="a_edge18_Node000014_Node000013"><a xlink:title=" ">
<path fill="none" stroke="#63b8ff" d="M400.47,-109.75C402.86,-102.72 406.29,-92.62 409.27,-83.84"/>
<polygon fill="#63b8ff" stroke="#63b8ff" points="412.68,-84.68 412.58,-74.09 406.05,-82.43 412.68,-84.68"/>
</a>
</g>
</g>
</g>
</svg>
