<?xml version="1.0" encoding="UTF-8" standalone="no"?>
<!DOCTYPE svg PUBLIC "-//W3C//DTD SVG 1.1//EN"
 "http://www.w3.org/Graphics/SVG/1.1/DTD/svg11.dtd">
<!-- Generated by graphviz version 6.0.2 (20221011.1828)
 -->
<!-- Title: src/travelexpense/header/userAuth.h Pages: 1 -->
<svg width="260pt" height="104pt"
 viewBox="0.00 0.00 260.00 104.00" xmlns="http://www.w3.org/2000/svg" xmlns:xlink="http://www.w3.org/1999/xlink">
<g id="graph0" class="graph" transform="scale(1 1) rotate(0) translate(4 100)">
<title>src/travelexpense/header/userAuth.h</title>
<!-- Node1 -->
<g id="Node000001" class="node">
<title>Node1</title>
<g id="a_Node000001"><a xlink:title="Seyahat Gideri Takibi &#45; Kullanıcı Kimlik Doğrulama Modülü">
<polygon fill="#999999" stroke="#666666" points="192,-96 67,-96 67,-66 192,-66 192,-96"/>
<text text-anchor="start" x="75" y="-84" font-family="Helvetica,sans-Serif" font-size="10.00">src/travelexpense/header</text>
<text text-anchor="middle" x="129.5" y="-73" font-family="Helvetica,sans-Serif" font-size="10.00">/userAuth.h</text>
</a>
</g>
</g>
<!-- Node2 -->
<g id="Node000002" class="node">
<title>Node2</title>
<g id="a_Node000002"><a xlink:href="travelexpense_8h.html" target="_top" xlink:title="Seyahat Gideri Takibi &#45; Ana Kütüphane Header Dosyası">
<polygon fill="white" stroke="#666666" points="125,-30 0,-30 0,0 125,0 125,-30"/>
<text text-anchor="start" x="8" y="-18" font-family="Helvetica,sans-Serif" font-size="10.00">src/travelexpense/header</text>
<text text-anchor="middle" x="62.5" y="-7" font-family="Helvetica,sans-Serif" font-size="10.00">/travelexpense.h</text>
</a>
</g>
</g>
<!-- Node1&#45;&gt;Node2 -->
<g id="edge1_Node000001_Node000002" class="edge">
<title>Node1&#45;&gt;Node2</title>
<g id="a_edge1_Node000001_Node000002"><a xlink:title=" ">
<path fill="none" stroke="#63b8ff" d="M107.15,-58.65C97.33,-49.27 86.08,-38.53 77.33,-30.16"/>
<polygon fill="#63b8ff" stroke="#63b8ff" points="104.98,-61.42 114.63,-65.8 109.82,-56.36 104.98,-61.42"/>
</a>
</g>
</g>
<!-- Node3 -->
<g id="Node000003" class="node">
<title>Node3</title>
<g id="a_Node000003"><a xlink:href="user_auth_8cpp.html" target="_top" xlink:title="Seyahat Gideri Takibi &#45; Kullanıcı Kimlik Doğrulama Implementation.">
<polygon fill="white" stroke="#666666" points="252,-30 143,-30 143,0 252,0 252,-30"/>
<text text-anchor="start" x="151" y="-18" font-family="Helvetica,sans-Serif" font-size="10.00">src/travelexpense/src</text>
<text text-anchor="middle" x="197.5" y="-7" font-family="Helvetica,sans-Serif" font-size="10.00">/userAuth.cpp</text>
</a>
</g>
</g>
<!-- Node1&#45;&gt;Node3 -->
<g id="edge2_Node000001_Node000003" class="edge">
<title>Node1&#45;&gt;Node3</title>
<g id="a_edge2_Node000001_Node000003"><a xlink:title=" ">
<path fill="none" stroke="#63b8ff" d="M151.89,-58.92C161.92,-49.49 173.48,-38.61 182.45,-30.16"/>
<polygon fill="#63b8ff" stroke="#63b8ff" points="149.47,-56.39 144.59,-65.8 154.27,-61.49 149.47,-56.39"/>
</a>
</g>
</g>
</g>
</svg>
