<?xml version="1.0" encoding="UTF-8" standalone="no"?>
<!DOCTYPE svg PUBLIC "-//W3C//DTD SVG 1.1//EN"
 "http://www.w3.org/Graphics/SVG/1.1/DTD/svg11.dtd">
<!-- Generated by graphviz version 6.0.2 (20221011.1828)
 -->
<!-- Title: src/travelexpense/src/assetManager.cpp Pages: 1 -->
<svg width="601pt" height="203pt"
 viewBox="0.00 0.00 601.13 203.00" xmlns="http://www.w3.org/2000/svg" xmlns:xlink="http://www.w3.org/1999/xlink">
<g id="graph0" class="graph" transform="scale(1 1) rotate(0) translate(4 199)">
<title>src/travelexpense/src/assetManager.cpp</title>
<!-- Node1 -->
<g id="Node000001" class="node">
<title>Node1</title>
<g id="a_Node000001"><a xlink:title="Seyahat Gideri Takibi &#45; Varlık Yönetimi Implementation.">
<polygon fill="#999999" stroke="#666666" points="365.1,-195 256.1,-195 256.1,-165 365.1,-165 365.1,-195"/>
<text text-anchor="start" x="264.1" y="-183" font-family="Helvetica,sans-Serif" font-size="10.00">src/travelexpense/src</text>
<text text-anchor="middle" x="310.6" y="-172" font-family="Helvetica,sans-Serif" font-size="10.00">/assetManager.cpp</text>
</a>
</g>
</g>
<!-- Node2 -->
<g id="Node000002" class="node">
<title>Node2</title>
<g id="a_Node000002"><a xlink:href="$asset_manager_8h.html" xlink:title="Seyahat Gideri Takibi &#45; Varlık Yönetimi.">
<polygon fill="white" stroke="#666666" points="235.6,-129 107.6,-129 107.6,-110 235.6,-110 235.6,-129"/>
<text text-anchor="middle" x="171.6" y="-117" font-family="Helvetica,sans-Serif" font-size="10.00">../header/assetManager.h</text>
</a>
</g>
</g>
<!-- Node1&#45;&gt;Node2 -->
<g id="edge49_Node000001_Node000002" class="edge">
<title>Node1&#45;&gt;Node2</title>
<g id="a_edge49_Node000001_Node000002"><a xlink:title=" ">
<path fill="none" stroke="#63b8ff" d="M277.31,-164.99C254.22,-155.27 223.74,-142.44 201.44,-133.06"/>
<polygon fill="#63b8ff" stroke="#63b8ff" points="202.7,-129.79 192.13,-129.14 199.99,-136.24 202.7,-129.79"/>
</a>
</g>
</g>
<!-- Node5 -->
<g id="Node000005" class="node">
<title>Node5</title>
<g id="a_Node000005"><a xlink:title=" ">
<polygon fill="#e0e0e0" stroke="#999999" points="102.1,-19 61.1,-19 61.1,0 102.1,0 102.1,-19"/>
<text text-anchor="middle" x="81.6" y="-7" font-family="Helvetica,sans-Serif" font-size="10.00">ctime</text>
</a>
</g>
</g>
<!-- Node1&#45;&gt;Node5 -->
<g id="edge71_Node000001_Node000005" class="edge">
<title>Node1&#45;&gt;Node5</title>
<g id="a_edge71_Node000001_Node000005"><a xlink:title=" ">
<path fill="none" stroke="#63b8ff" d="M255.78,-175.33C205.07,-170.2 128.69,-157.97 68.6,-129 34.21,-112.42 18.8,-108.58 2.6,-74 -9.3,-48.6 24.26,-30.21 51.27,-19.95"/>
<polygon fill="#63b8ff" stroke="#63b8ff" points="52.59,-23.19 60.83,-16.54 50.24,-16.6 52.59,-23.19"/>
</a>
</g>
</g>
<!-- Node6 -->
<g id="Node000006" class="node">
<title>Node6</title>
<g id="a_Node000006"><a xlink:title=" ">
<polygon fill="#e0e0e0" stroke="#999999" points="411.6,-19 365.6,-19 365.6,0 411.6,0 411.6,-19"/>
<text text-anchor="middle" x="388.6" y="-7" font-family="Helvetica,sans-Serif" font-size="10.00">cstring</text>
</a>
</g>
</g>
<!-- Node1&#45;&gt;Node6 -->
<g id="edge70_Node000001_Node000006" class="edge">
<title>Node1&#45;&gt;Node6</title>
<g id="a_edge70_Node000001_Node000006"><a xlink:title=" ">
<path fill="none" stroke="#63b8ff" d="M365.28,-178.79C435.11,-175.06 551.49,-156.16 589.6,-74 593.15,-66.34 594.89,-61.58 589.6,-55 568.93,-29.25 473.39,-17.49 421.82,-12.94"/>
<polygon fill="#63b8ff" stroke="#63b8ff" points="422.09,-9.45 411.83,-12.1 421.5,-16.42 422.09,-9.45"/>
</a>
</g>
</g>
<!-- Node10 -->
<g id="Node000010" class="node">
<title>Node10</title>
<g id="a_Node000010"><a xlink:title=" ">
<polygon fill="#e0e0e0" stroke="#999999" points="53.6,-74 11.6,-74 11.6,-55 53.6,-55 53.6,-74"/>
<text text-anchor="middle" x="32.6" y="-62" font-family="Helvetica,sans-Serif" font-size="10.00">vector</text>
</a>
</g>
</g>
<!-- Node1&#45;&gt;Node10 -->
<g id="edge72_Node000001_Node000010" class="edge">
<title>Node1&#45;&gt;Node10</title>
<g id="a_edge72_Node000001_Node000010"><a xlink:title=" ">
<path fill="none" stroke="#63b8ff" d="M255.93,-174.17C211.35,-168.39 147.91,-155.87 98.6,-129 77.33,-117.41 57.99,-97.12 45.83,-82.59"/>
<polygon fill="#63b8ff" stroke="#63b8ff" points="48.24,-80 39.23,-74.42 42.79,-84.4 48.24,-80"/>
</a>
</g>
</g>
<!-- Node11 -->
<g id="Node000011" class="node">
<title>Node11</title>
<g id="a_Node000011"><a xlink:href="$database_8h.html" xlink:title="Seyahat Gideri Takibi &#45; SQLite Veritabanı Yönetimi.">
<polygon fill="white" stroke="#666666" points="491.6,-129 385.6,-129 385.6,-110 491.6,-110 491.6,-129"/>
<text text-anchor="middle" x="438.6" y="-117" font-family="Helvetica,sans-Serif" font-size="10.00">../header/database.h</text>
</a>
</g>
</g>
<!-- Node1&#45;&gt;Node11 -->
<g id="edge61_Node000001_Node000011" class="edge">
<title>Node1&#45;&gt;Node11</title>
<g id="a_edge61_Node000001_Node000011"><a xlink:title=" ">
<path fill="none" stroke="#63b8ff" d="M341.26,-164.99C362.33,-155.36 390.09,-142.67 410.57,-133.31"/>
<polygon fill="#63b8ff" stroke="#63b8ff" points="412.06,-136.48 419.7,-129.14 409.15,-130.11 412.06,-136.48"/>
</a>
</g>
</g>
<!-- Node12 -->
<g id="Node000012" class="node">
<title>Node12</title>
<g id="a_Node000012"><a xlink:title=" ">
<polygon fill="#e0e0e0" stroke="#999999" points="580.1,-74 527.1,-74 527.1,-55 580.1,-55 580.1,-74"/>
<text text-anchor="middle" x="553.6" y="-62" font-family="Helvetica,sans-Serif" font-size="10.00">sqlite3.h</text>
</a>
</g>
</g>
<!-- Node1&#45;&gt;Node12 -->
<g id="edge69_Node000001_Node000012" class="edge">
<title>Node1&#45;&gt;Node12</title>
<g id="a_edge69_Node000001_Node000012"><a xlink:title=" ">
<path fill="none" stroke="#63b8ff" d="M365.34,-173.61C405.36,-167.62 459.58,-155.08 500.6,-129 518.89,-117.37 534.04,-97.38 543.39,-82.93"/>
<polygon fill="#63b8ff" stroke="#63b8ff" points="546.4,-84.73 548.67,-74.38 540.44,-81.05 546.4,-84.73"/>
</a>
</g>
</g>
<!-- Node14 -->
<g id="Node000014" class="node">
<title>Node14</title>
<g id="a_Node000014"><a xlink:href="$safe__string_8h.html" xlink:title="Güvenli string işlemleri için yardımcı fonksiyonlar.">
<polygon fill="white" stroke="#666666" points="367.1,-129 254.1,-129 254.1,-110 367.1,-110 367.1,-129"/>
<text text-anchor="middle" x="310.6" y="-117" font-family="Helvetica,sans-Serif" font-size="10.00">../header/safe_string.h</text>
</a>
</g>
</g>
<!-- Node1&#45;&gt;Node14 -->
<g id="edge66_Node000001_Node000014" class="edge">
<title>Node1&#45;&gt;Node14</title>
<g id="a_edge66_Node000001_Node000014"><a xlink:title=" ">
<path fill="none" stroke="#63b8ff" d="M310.6,-164.84C310.6,-157.21 310.6,-147.7 310.6,-139.45"/>
<polygon fill="#63b8ff" stroke="#63b8ff" points="314.1,-139.27 310.6,-129.27 307.1,-139.27 314.1,-139.27"/>
</a>
</g>
</g>
<!-- Node3 -->
<g id="Node000003" class="node">
<title>Node3</title>
<g id="a_Node000003"><a xlink:href="$common_types_8h.html" xlink:title="Seyahat Gideri Takibi &#45; Ortak Veri Tipleri ve Modelleri.">
<polygon fill="white" stroke="#666666" points="303.1,-74 214.1,-74 214.1,-55 303.1,-55 303.1,-74"/>
<text text-anchor="middle" x="258.6" y="-62" font-family="Helvetica,sans-Serif" font-size="10.00">commonTypes.h</text>
</a>
</g>
</g>
<!-- Node2&#45;&gt;Node3 -->
<g id="edge50_Node000002_Node000003" class="edge">
<title>Node2&#45;&gt;Node3</title>
<g id="a_edge50_Node000002_Node000003"><a xlink:title=" ">
<path fill="none" stroke="#63b8ff" d="M185.58,-109.98C199.07,-101.77 219.74,-89.18 235.64,-79.49"/>
<polygon fill="#63b8ff" stroke="#63b8ff" points="237.65,-82.36 244.37,-74.17 234.01,-76.38 237.65,-82.36"/>
</a>
</g>
</g>
<!-- Node4 -->
<g id="Node000004" class="node">
<title>Node4</title>
<g id="a_Node000004"><a xlink:title=" ">
<polygon fill="#e0e0e0" stroke="#999999" points="184.6,-19 138.6,-19 138.6,0 184.6,0 184.6,-19"/>
<text text-anchor="middle" x="161.6" y="-7" font-family="Helvetica,sans-Serif" font-size="10.00">cstdint</text>
</a>
</g>
</g>
<!-- Node2&#45;&gt;Node4 -->
<g id="edge56_Node000002_Node000004" class="edge">
<title>Node2&#45;&gt;Node4</title>
<g id="a_edge56_Node000002_Node000004"><a xlink:title=" ">
<path fill="none" stroke="#63b8ff" d="M162.58,-109.96C154.53,-101.66 143.31,-88.25 138.6,-74 133.38,-58.21 141.01,-40.42 148.85,-27.7"/>
<polygon fill="#63b8ff" stroke="#63b8ff" points="151.98,-29.32 154.67,-19.07 146.18,-25.4 151.98,-29.32"/>
</a>
</g>
</g>
<!-- Node2&#45;&gt;Node5 -->
<g id="edge58_Node000002_Node000005" class="edge">
<title>Node2&#45;&gt;Node5</title>
<g id="a_edge58_Node000002_Node000005"><a xlink:title=" ">
<path fill="none" stroke="#63b8ff" d="M163.98,-109.68C156.27,-100.73 144.03,-86.47 133.6,-74 120.38,-58.19 105.5,-39.98 95.06,-27.12"/>
<polygon fill="#63b8ff" stroke="#63b8ff" points="97.63,-24.74 88.61,-19.17 92.19,-29.15 97.63,-24.74"/>
</a>
</g>
</g>
<!-- Node2&#45;&gt;Node6 -->
<g id="edge59_Node000002_Node000006" class="edge">
<title>Node2&#45;&gt;Node6</title>
<g id="a_edge59_Node000002_Node000006"><a xlink:title=" ">
<path fill="none" stroke="#63b8ff" d="M212.16,-109.96C241.04,-102.87 280.13,-91.14 311.6,-74 335.23,-61.13 358.52,-40.52 373.19,-26.29"/>
<polygon fill="#63b8ff" stroke="#63b8ff" points="375.77,-28.65 380.4,-19.12 370.84,-23.69 375.77,-28.65"/>
</a>
</g>
</g>
<!-- Node8 -->
<g id="Node000008" class="node">
<title>Node8</title>
<g id="a_Node000008"><a xlink:href="$export_8h.html" xlink:title="Seyahat Gideri Takibi &#45; DLL Export/Import Macros.">
<polygon fill="white" stroke="#666666" points="411.6,-74 359.6,-74 359.6,-55 411.6,-55 411.6,-74"/>
<text text-anchor="middle" x="385.6" y="-62" font-family="Helvetica,sans-Serif" font-size="10.00">export.h</text>
</a>
</g>
</g>
<!-- Node2&#45;&gt;Node8 -->
<g id="edge55_Node000002_Node000008" class="edge">
<title>Node2&#45;&gt;Node8</title>
<g id="a_edge55_Node000002_Node000008"><a xlink:title=" ">
<path fill="none" stroke="#63b8ff" d="M205.98,-109.98C245.33,-100.24 309.48,-84.35 349.52,-74.44"/>
<polygon fill="#63b8ff" stroke="#63b8ff" points="350.53,-77.79 359.4,-71.99 348.85,-71 350.53,-77.79"/>
</a>
</g>
</g>
<!-- Node9 -->
<g id="Node000009" class="node">
<title>Node9</title>
<g id="a_Node000009"><a xlink:title=" ">
<polygon fill="#e0e0e0" stroke="#999999" points="195.6,-74 147.6,-74 147.6,-55 195.6,-55 195.6,-74"/>
<text text-anchor="middle" x="171.6" y="-62" font-family="Helvetica,sans-Serif" font-size="10.00">cstddef</text>
</a>
</g>
</g>
<!-- Node2&#45;&gt;Node9 -->
<g id="edge57_Node000002_Node000009" class="edge">
<title>Node2&#45;&gt;Node9</title>
<g id="a_edge57_Node000002_Node000009"><a xlink:title=" ">
<path fill="none" stroke="#63b8ff" d="M171.6,-109.75C171.6,-102.8 171.6,-92.85 171.6,-84.13"/>
<polygon fill="#63b8ff" stroke="#63b8ff" points="175.1,-84.09 171.6,-74.09 168.1,-84.09 175.1,-84.09"/>
</a>
</g>
</g>
<!-- Node2&#45;&gt;Node10 -->
<g id="edge60_Node000002_Node000010" class="edge">
<title>Node2&#45;&gt;Node10</title>
<g id="a_edge60_Node000002_Node000010"><a xlink:title=" ">
<path fill="none" stroke="#63b8ff" d="M149.27,-109.98C126,-101.11 89.36,-87.14 63.36,-77.23"/>
<polygon fill="#63b8ff" stroke="#63b8ff" points="64.56,-73.94 53.97,-73.65 62.06,-80.48 64.56,-73.94"/>
</a>
</g>
</g>
<!-- Node3&#45;&gt;Node4 -->
<g id="edge51_Node000003_Node000004" class="edge">
<title>Node3&#45;&gt;Node4</title>
<g id="a_edge51_Node000003_Node000004"><a xlink:title=" ">
<path fill="none" stroke="#63b8ff" d="M243.02,-54.98C227.83,-46.69 204.5,-33.94 186.7,-24.22"/>
<polygon fill="#63b8ff" stroke="#63b8ff" points="187.92,-20.89 177.47,-19.17 184.57,-27.04 187.92,-20.89"/>
</a>
</g>
</g>
<!-- Node3&#45;&gt;Node5 -->
<g id="edge52_Node000003_Node000005" class="edge">
<title>Node3&#45;&gt;Node5</title>
<g id="a_edge52_Node000003_Node000005"><a xlink:title=" ">
<path fill="none" stroke="#63b8ff" d="M230.16,-54.98C197.75,-45.28 144.98,-29.48 111.84,-19.55"/>
<polygon fill="#63b8ff" stroke="#63b8ff" points="112.81,-16.19 102.23,-16.68 110.8,-22.9 112.81,-16.19"/>
</a>
</g>
</g>
<!-- Node3&#45;&gt;Node6 -->
<g id="edge53_Node000003_Node000006" class="edge">
<title>Node3&#45;&gt;Node6</title>
<g id="a_edge53_Node000003_Node000006"><a xlink:title=" ">
<path fill="none" stroke="#63b8ff" d="M279.49,-54.98C300.68,-46.34 333.73,-32.87 357.9,-23.02"/>
<polygon fill="#63b8ff" stroke="#63b8ff" points="359.4,-26.19 367.33,-19.17 356.75,-19.7 359.4,-26.19"/>
</a>
</g>
</g>
<!-- Node7 -->
<g id="Node000007" class="node">
<title>Node7</title>
<g id="a_Node000007"><a xlink:href="$error__codes_8h.html" xlink:title="Seyahat Gideri Takibi &#45; Hata Kodları Enum&#39;u.">
<polygon fill="white" stroke="#666666" points="296.6,-19 220.6,-19 220.6,0 296.6,0 296.6,-19"/>
<text text-anchor="middle" x="258.6" y="-7" font-family="Helvetica,sans-Serif" font-size="10.00">error_codes.h</text>
</a>
</g>
</g>
<!-- Node3&#45;&gt;Node7 -->
<g id="edge54_Node000003_Node000007" class="edge">
<title>Node3&#45;&gt;Node7</title>
<g id="a_edge54_Node000003_Node000007"><a xlink:title=" ">
<path fill="none" stroke="#63b8ff" d="M258.6,-54.75C258.6,-47.8 258.6,-37.85 258.6,-29.13"/>
<polygon fill="#63b8ff" stroke="#63b8ff" points="262.1,-29.09 258.6,-19.09 255.1,-29.09 262.1,-29.09"/>
</a>
</g>
</g>
<!-- Node11&#45;&gt;Node3 -->
<g id="edge62_Node000011_Node000003" class="edge">
<title>Node11&#45;&gt;Node3</title>
<g id="a_edge62_Node000011_Node000003"><a xlink:title=" ">
<path fill="none" stroke="#63b8ff" d="M409.68,-109.98C379.33,-101.05 331.43,-86.94 297.72,-77.02"/>
<polygon fill="#63b8ff" stroke="#63b8ff" points="298.33,-73.55 287.75,-74.08 296.35,-80.26 298.33,-73.55"/>
</a>
</g>
</g>
<!-- Node11&#45;&gt;Node8 -->
<g id="edge63_Node000011_Node000008" class="edge">
<title>Node11&#45;&gt;Node8</title>
<g id="a_edge63_Node000011_Node000008"><a xlink:title=" ">
<path fill="none" stroke="#63b8ff" d="M429.85,-109.75C422.13,-102.03 410.7,-90.6 401.38,-81.28"/>
<polygon fill="#63b8ff" stroke="#63b8ff" points="403.74,-78.69 394.19,-74.09 398.79,-83.64 403.74,-78.69"/>
</a>
</g>
</g>
<!-- Node11&#45;&gt;Node12 -->
<g id="edge64_Node000011_Node000012" class="edge">
<title>Node11&#45;&gt;Node12</title>
<g id="a_edge64_Node000011_Node000012"><a xlink:title=" ">
<path fill="none" stroke="#63b8ff" d="M457.08,-109.98C475.58,-101.46 504.28,-88.23 525.58,-78.41"/>
<polygon fill="#63b8ff" stroke="#63b8ff" points="527.17,-81.53 534.79,-74.17 524.24,-75.18 527.17,-81.53"/>
</a>
</g>
</g>
<!-- Node13 -->
<g id="Node000013" class="node">
<title>Node13</title>
<g id="a_Node000013"><a xlink:title=" ">
<polygon fill="#e0e0e0" stroke="#999999" points="509.1,-74 468.1,-74 468.1,-55 509.1,-55 509.1,-74"/>
<text text-anchor="middle" x="488.6" y="-62" font-family="Helvetica,sans-Serif" font-size="10.00">string</text>
</a>
</g>
</g>
<!-- Node11&#45;&gt;Node13 -->
<g id="edge65_Node000011_Node000013" class="edge">
<title>Node11&#45;&gt;Node13</title>
<g id="a_edge65_Node000011_Node000013"><a xlink:title=" ">
<path fill="none" stroke="#63b8ff" d="M446.86,-109.75C454.07,-102.11 464.71,-90.82 473.45,-81.56"/>
<polygon fill="#63b8ff" stroke="#63b8ff" points="476.18,-83.76 480.5,-74.09 471.09,-78.96 476.18,-83.76"/>
</a>
</g>
</g>
<!-- Node14&#45;&gt;Node6 -->
<g id="edge67_Node000014_Node000006" class="edge">
<title>Node14&#45;&gt;Node6</title>
<g id="a_edge67_Node000014_Node000006"><a xlink:title=" ">
<path fill="none" stroke="#63b8ff" d="M364.77,-109.92C385.84,-103.65 407.93,-92.79 420.6,-74 430.89,-58.74 418.35,-39.72 406.07,-26.5"/>
<polygon fill="#63b8ff" stroke="#63b8ff" points="408.22,-23.69 398.67,-19.1 403.27,-28.64 408.22,-23.69"/>
</a>
</g>
</g>
<!-- Node14&#45;&gt;Node9 -->
<g id="edge68_Node000014_Node000009" class="edge">
<title>Node14&#45;&gt;Node9</title>
<g id="a_edge68_Node000014_Node000009"><a xlink:title=" ">
<path fill="none" stroke="#63b8ff" d="M288.27,-109.98C265.4,-101.27 229.64,-87.63 203.74,-77.75"/>
<polygon fill="#63b8ff" stroke="#63b8ff" points="204.93,-74.46 194.34,-74.17 202.44,-81 204.93,-74.46"/>
</a>
</g>
</g>
</g>
</svg>
