<?xml version="1.0" encoding="UTF-8" standalone="no"?>
<!DOCTYPE svg PUBLIC "-//W3C//DTD SVG 1.1//EN"
 "http://www.w3.org/Graphics/SVG/1.1/DTD/svg11.dtd">
<!-- Generated by graphviz version 6.0.2 (20221011.1828)
 -->
<!-- Title: src/travelexpense/header/expenseManager.h Pages: 1 -->
<svg width="391pt" height="104pt"
 viewBox="0.00 0.00 391.00 104.00" xmlns="http://www.w3.org/2000/svg" xmlns:xlink="http://www.w3.org/1999/xlink">
<g id="graph0" class="graph" transform="scale(1 1) rotate(0) translate(4 100)">
<title>src/travelexpense/header/expenseManager.h</title>
<!-- Node1 -->
<g id="Node000001" class="node">
<title>Node1</title>
<g id="a_Node000001"><a xlink:title="Seyahat Gideri Takibi &#45; Gider Yönetimi Modülü">
<polygon fill="#999999" stroke="#666666" points="262,-96 137,-96 137,-66 262,-66 262,-96"/>
<text text-anchor="start" x="145" y="-84" font-family="Helvetica,sans-Serif" font-size="10.00">src/travelexpense/header</text>
<text text-anchor="middle" x="199.5" y="-73" font-family="Helvetica,sans-Serif" font-size="10.00">/expenseManager.h</text>
</a>
</g>
</g>
<!-- Node2 -->
<g id="Node000002" class="node">
<title>Node2</title>
<g id="a_Node000002"><a xlink:href="$travelexpense_8h.html" xlink:title="Seyahat Gideri Takibi &#45; Ana Kütüphane Header Dosyası">
<polygon fill="white" stroke="#666666" points="125,-30 0,-30 0,0 125,0 125,-30"/>
<text text-anchor="start" x="8" y="-18" font-family="Helvetica,sans-Serif" font-size="10.00">src/travelexpense/header</text>
<text text-anchor="middle" x="62.5" y="-7" font-family="Helvetica,sans-Serif" font-size="10.00">/travelexpense.h</text>
</a>
</g>
</g>
<!-- Node1&#45;&gt;Node2 -->
<g id="edge7_Node000001_Node000002" class="edge">
<title>Node1&#45;&gt;Node2</title>
<g id="a_edge7_Node000001_Node000002"><a xlink:title=" ">
<path fill="none" stroke="#63b8ff" d="M160.22,-61.65C138.67,-51.58 112.38,-39.3 92.5,-30.01"/>
<polygon fill="#63b8ff" stroke="#63b8ff" points="158.89,-64.89 169.43,-65.95 161.86,-58.55 158.89,-64.89"/>
</a>
</g>
</g>
<!-- Node3 -->
<g id="Node000003" class="node">
<title>Node3</title>
<g id="a_Node000003"><a xlink:href="$expense_manager_8cpp.html" xlink:title="Seyahat Gideri Takibi &#45; Gider Yönetimi Implementation.">
<polygon fill="white" stroke="#666666" points="256,-30 143,-30 143,0 256,0 256,-30"/>
<text text-anchor="start" x="151" y="-18" font-family="Helvetica,sans-Serif" font-size="10.00">src/travelexpense/src</text>
<text text-anchor="middle" x="199.5" y="-7" font-family="Helvetica,sans-Serif" font-size="10.00">/expenseManager.cpp</text>
</a>
</g>
</g>
<!-- Node1&#45;&gt;Node3 -->
<g id="edge8_Node000001_Node000003" class="edge">
<title>Node1&#45;&gt;Node3</title>
<g id="a_edge8_Node000001_Node000003"><a xlink:title=" ">
<path fill="none" stroke="#63b8ff" d="M199.5,-55.54C199.5,-46.96 199.5,-37.61 199.5,-30.16"/>
<polygon fill="#63b8ff" stroke="#63b8ff" points="196,-55.8 199.5,-65.8 203,-55.8 196,-55.8"/>
</a>
</g>
</g>
<!-- Node4 -->
<g id="Node000004" class="node">
<title>Node4</title>
<g id="a_Node000004"><a xlink:href="$report_generator_8cpp.html" xlink:title="Seyahat Gideri Takibi &#45; Rapor Oluşturma Implementation.">
<polygon fill="white" stroke="#666666" points="383,-30 274,-30 274,0 383,0 383,-30"/>
<text text-anchor="start" x="282" y="-18" font-family="Helvetica,sans-Serif" font-size="10.00">src/travelexpense/src</text>
<text text-anchor="middle" x="328.5" y="-7" font-family="Helvetica,sans-Serif" font-size="10.00">/reportGenerator.cpp</text>
</a>
</g>
</g>
<!-- Node1&#45;&gt;Node4 -->
<g id="edge9_Node000001_Node000004" class="edge">
<title>Node1&#45;&gt;Node4</title>
<g id="a_edge9_Node000001_Node000004"><a xlink:title=" ">
<path fill="none" stroke="#63b8ff" d="M237.04,-61.38C257.22,-51.36 281.7,-39.22 300.26,-30.01"/>
<polygon fill="#63b8ff" stroke="#63b8ff" points="235.21,-58.38 227.81,-65.95 238.32,-64.65 235.21,-58.38"/>
</a>
</g>
</g>
</g>
</svg>
