<?xml version="1.0" encoding="UTF-8" standalone="no"?>
<!DOCTYPE svg PUBLIC "-//W3C//DTD SVG 1.1//EN"
 "http://www.w3.org/Graphics/SVG/1.1/DTD/svg11.dtd">
<!-- Generated by graphviz version 6.0.2 (20221011.1828)
 -->
<!-- Title: src/travelexpense/header/fileIO.h Pages: 1 -->
<svg width="514pt" height="104pt"
 viewBox="0.00 0.00 514.00 104.00" xmlns="http://www.w3.org/2000/svg" xmlns:xlink="http://www.w3.org/1999/xlink">
<g id="graph0" class="graph" transform="scale(1 1) rotate(0) translate(4 100)">
<title>src/travelexpense/header/fileIO.h</title>
<!-- Node1 -->
<g id="Node000001" class="node">
<title>Node1</title>
<g id="a_Node000001"><a xlink:title="Seyahat Gideri Takibi &#45; Dosya I/O Yardımcı Fonksiyonlar.">
<polygon fill="#999999" stroke="#666666" points="323,-96 198,-96 198,-66 323,-66 323,-96"/>
<text text-anchor="start" x="206" y="-84" font-family="Helvetica,sans-Serif" font-size="10.00">src/travelexpense/header</text>
<text text-anchor="middle" x="260.5" y="-73" font-family="Helvetica,sans-Serif" font-size="10.00">/fileIO.h</text>
</a>
</g>
</g>
<!-- Node2 -->
<g id="Node000002" class="node">
<title>Node2</title>
<g id="a_Node000002"><a xlink:href="$travelexpense_8h.html" xlink:title="Seyahat Gideri Takibi &#45; Ana Kütüphane Header Dosyası">
<polygon fill="white" stroke="#666666" points="125,-30 0,-30 0,0 125,0 125,-30"/>
<text text-anchor="start" x="8" y="-18" font-family="Helvetica,sans-Serif" font-size="10.00">src/travelexpense/header</text>
<text text-anchor="middle" x="62.5" y="-7" font-family="Helvetica,sans-Serif" font-size="10.00">/travelexpense.h</text>
</a>
</g>
</g>
<!-- Node1&#45;&gt;Node2 -->
<g id="edge9_Node000001_Node000002" class="edge">
<title>Node1&#45;&gt;Node2</title>
<g id="a_edge9_Node000001_Node000002"><a xlink:title=" ">
<path fill="none" stroke="#63b8ff" d="M207.46,-62.86C175.67,-52.58 135.75,-39.68 105.85,-30.01"/>
<polygon fill="#63b8ff" stroke="#63b8ff" points="206.46,-66.21 217.05,-65.95 208.61,-59.55 206.46,-66.21"/>
</a>
</g>
</g>
<!-- Node3 -->
<g id="Node000003" class="node">
<title>Node3</title>
<g id="a_Node000003"><a xlink:href="$database_8cpp.html" xlink:title="Seyahat Gideri Takibi &#45; SQLite Veritabanı Yönetimi Implementation.">
<polygon fill="white" stroke="#666666" points="252,-30 143,-30 143,0 252,0 252,-30"/>
<text text-anchor="start" x="151" y="-18" font-family="Helvetica,sans-Serif" font-size="10.00">src/travelexpense/src</text>
<text text-anchor="middle" x="197.5" y="-7" font-family="Helvetica,sans-Serif" font-size="10.00">/database.cpp</text>
</a>
</g>
</g>
<!-- Node1&#45;&gt;Node3 -->
<g id="edge10_Node000001_Node000003" class="edge">
<title>Node1&#45;&gt;Node3</title>
<g id="a_edge10_Node000001_Node000003"><a xlink:title=" ">
<path fill="none" stroke="#63b8ff" d="M239.48,-58.65C230.25,-49.27 219.67,-38.53 211.44,-30.16"/>
<polygon fill="#63b8ff" stroke="#63b8ff" points="237.01,-61.13 246.52,-65.8 242,-56.21 237.01,-61.13"/>
</a>
</g>
</g>
<!-- Node4 -->
<g id="Node000004" class="node">
<title>Node4</title>
<g id="a_Node000004"><a xlink:href="$file_i_o_8cpp.html" xlink:title="Seyahat Gideri Takibi &#45; Dosya I/O Yardımcı Fonksiyonlar Implementation.">
<polygon fill="white" stroke="#666666" points="379,-30 270,-30 270,0 379,0 379,-30"/>
<text text-anchor="start" x="278" y="-18" font-family="Helvetica,sans-Serif" font-size="10.00">src/travelexpense/src</text>
<text text-anchor="middle" x="324.5" y="-7" font-family="Helvetica,sans-Serif" font-size="10.00">/fileIO.cpp</text>
</a>
</g>
</g>
<!-- Node1&#45;&gt;Node4 -->
<g id="edge11_Node000001_Node000004" class="edge">
<title>Node1&#45;&gt;Node4</title>
<g id="a_edge11_Node000001_Node000004"><a xlink:title=" ">
<path fill="none" stroke="#63b8ff" d="M281.85,-58.65C291.23,-49.27 301.97,-38.53 310.34,-30.16"/>
<polygon fill="#63b8ff" stroke="#63b8ff" points="279.3,-56.25 274.7,-65.8 284.25,-61.2 279.3,-56.25"/>
</a>
</g>
</g>
<!-- Node5 -->
<g id="Node000005" class="node">
<title>Node5</title>
<g id="a_Node000005"><a xlink:href="$migration_8cpp.html" xlink:title="Seyahat Gideri Takibi &#45; Binary → SQLite Migration Implementation.">
<polygon fill="white" stroke="#666666" points="506,-30 397,-30 397,0 506,0 506,-30"/>
<text text-anchor="start" x="405" y="-18" font-family="Helvetica,sans-Serif" font-size="10.00">src/travelexpense/src</text>
<text text-anchor="middle" x="451.5" y="-7" font-family="Helvetica,sans-Serif" font-size="10.00">/migration.cpp</text>
</a>
</g>
</g>
<!-- Node1&#45;&gt;Node5 -->
<g id="edge12_Node000001_Node000005" class="edge">
<title>Node1&#45;&gt;Node5</title>
<g id="a_edge12_Node000001_Node000005"><a xlink:title=" ">
<path fill="none" stroke="#63b8ff" d="M312.06,-62.72C342.66,-52.47 380.97,-39.63 409.68,-30.01"/>
<polygon fill="#63b8ff" stroke="#63b8ff" points="310.79,-59.46 302.42,-65.95 313.01,-66.1 310.79,-59.46"/>
</a>
</g>
</g>
</g>
</svg>
