<?xml version="1.0" encoding="UTF-8" standalone="no"?>
<!DOCTYPE svg PUBLIC "-//W3C//DTD SVG 1.1//EN"
 "http://www.w3.org/Graphics/SVG/1.1/DTD/svg11.dtd">
<!-- Generated by graphviz version 6.0.2 (20221011.1828)
 -->
<!-- Title: src/travelexpense/src/reportGenerator.cpp Pages: 1 -->
<svg width="842pt" height="203pt"
 viewBox="0.00 0.00 842.00 203.00" xmlns="http://www.w3.org/2000/svg" xmlns:xlink="http://www.w3.org/1999/xlink">
<g id="graph0" class="graph" transform="scale(1 1) rotate(0) translate(4 199)">
<title>src/travelexpense/src/reportGenerator.cpp</title>
<!-- Node1 -->
<g id="Node000001" class="node">
<title>Node1</title>
<g id="a_Node000001"><a xlink:title="Seyahat Gideri Takibi &#45; Rapor Oluşturma Implementation.">
<polygon fill="#999999" stroke="#666666" points="539.5,-195 430.5,-195 430.5,-165 539.5,-165 539.5,-195"/>
<text text-anchor="start" x="438.5" y="-183" font-family="Helvetica,sans-Serif" font-size="10.00">src/travelexpense/src</text>
<text text-anchor="middle" x="485" y="-172" font-family="Helvetica,sans-Serif" font-size="10.00">/reportGenerator.cpp</text>
</a>
</g>
</g>
<!-- Node2 -->
<g id="Node000002" class="node">
<title>Node2</title>
<g id="a_Node000002"><a xlink:href="$report_generator_8h.html" xlink:title="Seyahat Gideri Takibi &#45; Rapor Oluşturma Modülü">
<polygon fill="white" stroke="#666666" points="696,-129 562,-129 562,-110 696,-110 696,-129"/>
<text text-anchor="middle" x="629" y="-117" font-family="Helvetica,sans-Serif" font-size="10.00">../header/reportGenerator.h</text>
</a>
</g>
</g>
<!-- Node1&#45;&gt;Node2 -->
<g id="edge49_Node000001_Node000002" class="edge">
<title>Node1&#45;&gt;Node2</title>
<g id="a_edge49_Node000001_Node000002"><a xlink:title=" ">
<path fill="none" stroke="#63b8ff" d="M519.49,-164.99C543.52,-155.23 575.27,-142.33 598.4,-132.93"/>
<polygon fill="#63b8ff" stroke="#63b8ff" points="599.79,-136.15 607.73,-129.14 597.15,-129.66 599.79,-136.15"/>
</a>
</g>
</g>
<!-- Node11 -->
<g id="Node000011" class="node">
<title>Node11</title>
<g id="a_Node000011"><a xlink:href="$trip_manager_8h.html" xlink:title="Seyahat Gideri Takibi &#45; Seyahat Yönetimi Modülü">
<polygon fill="white" stroke="#666666" points="543.5,-129 426.5,-129 426.5,-110 543.5,-110 543.5,-129"/>
<text text-anchor="middle" x="485" y="-117" font-family="Helvetica,sans-Serif" font-size="10.00">../header/tripManager.h</text>
</a>
</g>
</g>
<!-- Node1&#45;&gt;Node11 -->
<g id="edge58_Node000001_Node000011" class="edge">
<title>Node1&#45;&gt;Node11</title>
<g id="a_edge58_Node000001_Node000011"><a xlink:title=" ">
<path fill="none" stroke="#63b8ff" d="M485,-164.84C485,-157.21 485,-147.7 485,-139.45"/>
<polygon fill="#63b8ff" stroke="#63b8ff" points="488.5,-139.27 485,-129.27 481.5,-139.27 488.5,-139.27"/>
</a>
</g>
</g>
<!-- Node12 -->
<g id="Node000012" class="node">
<title>Node12</title>
<g id="a_Node000012"><a xlink:href="$expense_manager_8h.html" xlink:title="Seyahat Gideri Takibi &#45; Gider Yönetimi Modülü">
<polygon fill="white" stroke="#666666" points="408,-129 268,-129 268,-110 408,-110 408,-129"/>
<text text-anchor="middle" x="338" y="-117" font-family="Helvetica,sans-Serif" font-size="10.00">../header/expenseManager.h</text>
</a>
</g>
</g>
<!-- Node1&#45;&gt;Node12 -->
<g id="edge62_Node000001_Node000012" class="edge">
<title>Node1&#45;&gt;Node12</title>
<g id="a_edge62_Node000001_Node000012"><a xlink:title=" ">
<path fill="none" stroke="#63b8ff" d="M449.79,-164.99C425.26,-155.23 392.85,-142.33 369.24,-132.93"/>
<polygon fill="#63b8ff" stroke="#63b8ff" points="370.29,-129.58 359.71,-129.14 367.71,-136.09 370.29,-129.58"/>
</a>
</g>
</g>
<!-- Node13 -->
<g id="Node000013" class="node">
<title>Node13</title>
<g id="a_Node000013"><a xlink:href="$budget_manager_8h.html" xlink:title="Seyahat Gideri Takibi &#45; Bütçe Yönetimi Modülü">
<polygon fill="white" stroke="#666666" points="249.5,-129 116.5,-129 116.5,-110 249.5,-110 249.5,-129"/>
<text text-anchor="middle" x="183" y="-117" font-family="Helvetica,sans-Serif" font-size="10.00">../header/budgetManager.h</text>
</a>
</g>
</g>
<!-- Node1&#45;&gt;Node13 -->
<g id="edge66_Node000001_Node000013" class="edge">
<title>Node1&#45;&gt;Node13</title>
<g id="a_edge66_Node000001_Node000013"><a xlink:title=" ">
<path fill="none" stroke="#63b8ff" d="M430.31,-168.41C375.42,-157.77 291.4,-141.5 236.82,-130.93"/>
<polygon fill="#63b8ff" stroke="#63b8ff" points="237.47,-127.49 226.99,-129.02 236.14,-134.36 237.47,-127.49"/>
</a>
</g>
</g>
<!-- Node14 -->
<g id="Node000014" class="node">
<title>Node14</title>
<g id="a_Node000014"><a xlink:href="$helpers_8h.html" xlink:title="Seyahat Gideri Takibi &#45; Yard─▒mc─▒ Fonksiyonlar.">
<polygon fill="white" stroke="#666666" points="98,-129 0,-129 0,-110 98,-110 98,-129"/>
<text text-anchor="middle" x="49" y="-117" font-family="Helvetica,sans-Serif" font-size="10.00">../header/helpers.h</text>
</a>
</g>
</g>
<!-- Node1&#45;&gt;Node14 -->
<g id="edge69_Node000001_Node000014" class="edge">
<title>Node1&#45;&gt;Node14</title>
<g id="a_edge69_Node000001_Node000014"><a xlink:title=" ">
<path fill="none" stroke="#63b8ff" d="M430.19,-172C358.64,-162.8 229.22,-145.97 108.22,-129.15"/>
<polygon fill="#63b8ff" stroke="#63b8ff" points="108.43,-125.65 98.04,-127.74 107.46,-132.58 108.43,-125.65"/>
</a>
</g>
</g>
<!-- Node15 -->
<g id="Node000015" class="node">
<title>Node15</title>
<g id="a_Node000015"><a xlink:title=" ">
<polygon fill="#e0e0e0" stroke="#999999" points="763.5,-129 714.5,-129 714.5,-110 763.5,-110 763.5,-129"/>
<text text-anchor="middle" x="739" y="-117" font-family="Helvetica,sans-Serif" font-size="10.00">fstream</text>
</a>
</g>
</g>
<!-- Node1&#45;&gt;Node15 -->
<g id="edge71_Node000001_Node000015" class="edge">
<title>Node1&#45;&gt;Node15</title>
<g id="a_edge71_Node000001_Node000015"><a xlink:title=" ">
<path fill="none" stroke="#63b8ff" d="M539.77,-166.89C582.07,-157.47 642.31,-143.88 704.19,-129.15"/>
<polygon fill="#63b8ff" stroke="#63b8ff" points="705.22,-132.51 714.13,-126.78 703.59,-125.7 705.22,-132.51"/>
</a>
</g>
</g>
<!-- Node16 -->
<g id="Node000016" class="node">
<title>Node16</title>
<g id="a_Node000016"><a xlink:title=" ">
<polygon fill="#e0e0e0" stroke="#999999" points="834,-129 782,-129 782,-110 834,-110 834,-129"/>
<text text-anchor="middle" x="808" y="-117" font-family="Helvetica,sans-Serif" font-size="10.00">sstream</text>
</a>
</g>
</g>
<!-- Node1&#45;&gt;Node16 -->
<g id="edge72_Node000001_Node000016" class="edge">
<title>Node1&#45;&gt;Node16</title>
<g id="a_edge72_Node000001_Node000016"><a xlink:title=" ">
<path fill="none" stroke="#63b8ff" d="M539.61,-170.63C595.54,-161.8 685.18,-146.97 771.68,-129.16"/>
<polygon fill="#63b8ff" stroke="#63b8ff" points="772.59,-132.55 781.67,-127.09 771.17,-125.7 772.59,-132.55"/>
</a>
</g>
</g>
<!-- Node3 -->
<g id="Node000003" class="node">
<title>Node3</title>
<g id="a_Node000003"><a xlink:href="$common_types_8h.html" xlink:title="Seyahat Gideri Takibi &#45; Ortak Veri Tipleri ve Modelleri.">
<polygon fill="white" stroke="#666666" points="378.5,-74 289.5,-74 289.5,-55 378.5,-55 378.5,-74"/>
<text text-anchor="middle" x="334" y="-62" font-family="Helvetica,sans-Serif" font-size="10.00">commonTypes.h</text>
</a>
</g>
</g>
<!-- Node2&#45;&gt;Node3 -->
<g id="edge50_Node000002_Node000003" class="edge">
<title>Node2&#45;&gt;Node3</title>
<g id="a_edge50_Node000002_Node000003"><a xlink:title=" ">
<path fill="none" stroke="#63b8ff" d="M581.6,-109.98C529.01,-100.54 444.27,-85.31 388.85,-75.36"/>
<polygon fill="#63b8ff" stroke="#63b8ff" points="389.32,-71.88 378.86,-73.56 388.09,-78.77 389.32,-71.88"/>
</a>
</g>
</g>
<!-- Node8 -->
<g id="Node000008" class="node">
<title>Node8</title>
<g id="a_Node000008"><a xlink:href="$export_8h.html" xlink:title="Seyahat Gideri Takibi &#45; DLL Export/Import Macros.">
<polygon fill="white" stroke="#666666" points="449,-74 397,-74 397,-55 449,-55 449,-74"/>
<text text-anchor="middle" x="423" y="-62" font-family="Helvetica,sans-Serif" font-size="10.00">export.h</text>
</a>
</g>
</g>
<!-- Node2&#45;&gt;Node8 -->
<g id="edge55_Node000002_Node000008" class="edge">
<title>Node2&#45;&gt;Node8</title>
<g id="a_edge55_Node000002_Node000008"><a xlink:title=" ">
<path fill="none" stroke="#63b8ff" d="M595.9,-109.98C558.42,-100.34 497.56,-84.68 458.94,-74.75"/>
<polygon fill="#63b8ff" stroke="#63b8ff" points="459.71,-71.33 449.15,-72.23 457.97,-78.11 459.71,-71.33"/>
</a>
</g>
</g>
<!-- Node9 -->
<g id="Node000009" class="node">
<title>Node9</title>
<g id="a_Node000009"><a xlink:title=" ">
<polygon fill="#e0e0e0" stroke="#999999" points="649.5,-74 608.5,-74 608.5,-55 649.5,-55 649.5,-74"/>
<text text-anchor="middle" x="629" y="-62" font-family="Helvetica,sans-Serif" font-size="10.00">string</text>
</a>
</g>
</g>
<!-- Node2&#45;&gt;Node9 -->
<g id="edge56_Node000002_Node000009" class="edge">
<title>Node2&#45;&gt;Node9</title>
<g id="a_edge56_Node000002_Node000009"><a xlink:title=" ">
<path fill="none" stroke="#63b8ff" d="M629,-109.75C629,-102.8 629,-92.85 629,-84.13"/>
<polygon fill="#63b8ff" stroke="#63b8ff" points="632.5,-84.09 629,-74.09 625.5,-84.09 632.5,-84.09"/>
</a>
</g>
</g>
<!-- Node10 -->
<g id="Node000010" class="node">
<title>Node10</title>
<g id="a_Node000010"><a xlink:title=" ">
<polygon fill="#e0e0e0" stroke="#999999" points="509,-74 467,-74 467,-55 509,-55 509,-74"/>
<text text-anchor="middle" x="488" y="-62" font-family="Helvetica,sans-Serif" font-size="10.00">vector</text>
</a>
</g>
</g>
<!-- Node2&#45;&gt;Node10 -->
<g id="edge57_Node000002_Node000010" class="edge">
<title>Node2&#45;&gt;Node10</title>
<g id="a_edge57_Node000002_Node000010"><a xlink:title=" ">
<path fill="none" stroke="#63b8ff" d="M606.35,-109.98C582.6,-101.06 545.14,-86.98 518.74,-77.05"/>
<polygon fill="#63b8ff" stroke="#63b8ff" points="519.81,-73.72 509.21,-73.47 517.34,-80.27 519.81,-73.72"/>
</a>
</g>
</g>
<!-- Node4 -->
<g id="Node000004" class="node">
<title>Node4</title>
<g id="a_Node000004"><a xlink:title=" ">
<polygon fill="#e0e0e0" stroke="#999999" points="264,-19 218,-19 218,0 264,0 264,-19"/>
<text text-anchor="middle" x="241" y="-7" font-family="Helvetica,sans-Serif" font-size="10.00">cstdint</text>
</a>
</g>
</g>
<!-- Node3&#45;&gt;Node4 -->
<g id="edge51_Node000003_Node000004" class="edge">
<title>Node3&#45;&gt;Node4</title>
<g id="a_edge51_Node000003_Node000004"><a xlink:title=" ">
<path fill="none" stroke="#63b8ff" d="M319.06,-54.98C304.5,-46.69 282.13,-33.94 265.07,-24.22"/>
<polygon fill="#63b8ff" stroke="#63b8ff" points="266.64,-21.08 256.21,-19.17 263.17,-27.16 266.64,-21.08"/>
</a>
</g>
</g>
<!-- Node5 -->
<g id="Node000005" class="node">
<title>Node5</title>
<g id="a_Node000005"><a xlink:title=" ">
<polygon fill="#e0e0e0" stroke="#999999" points="323.5,-19 282.5,-19 282.5,0 323.5,0 323.5,-19"/>
<text text-anchor="middle" x="303" y="-7" font-family="Helvetica,sans-Serif" font-size="10.00">ctime</text>
</a>
</g>
</g>
<!-- Node3&#45;&gt;Node5 -->
<g id="edge52_Node000003_Node000005" class="edge">
<title>Node3&#45;&gt;Node5</title>
<g id="a_edge52_Node000003_Node000005"><a xlink:title=" ">
<path fill="none" stroke="#63b8ff" d="M328.88,-54.75C324.64,-47.49 318.47,-36.95 313.22,-27.98"/>
<polygon fill="#63b8ff" stroke="#63b8ff" points="316.09,-25.95 308.02,-19.09 310.05,-29.49 316.09,-25.95"/>
</a>
</g>
</g>
<!-- Node6 -->
<g id="Node000006" class="node">
<title>Node6</title>
<g id="a_Node000006"><a xlink:title=" ">
<polygon fill="#e0e0e0" stroke="#999999" points="388,-19 342,-19 342,0 388,0 388,-19"/>
<text text-anchor="middle" x="365" y="-7" font-family="Helvetica,sans-Serif" font-size="10.00">cstring</text>
</a>
</g>
</g>
<!-- Node3&#45;&gt;Node6 -->
<g id="edge53_Node000003_Node000006" class="edge">
<title>Node3&#45;&gt;Node6</title>
<g id="a_edge53_Node000003_Node000006"><a xlink:title=" ">
<path fill="none" stroke="#63b8ff" d="M339.12,-54.75C343.36,-47.49 349.53,-36.95 354.78,-27.98"/>
<polygon fill="#63b8ff" stroke="#63b8ff" points="357.95,-29.49 359.98,-19.09 351.91,-25.95 357.95,-29.49"/>
</a>
</g>
</g>
<!-- Node7 -->
<g id="Node000007" class="node">
<title>Node7</title>
<g id="a_Node000007"><a xlink:href="$error__codes_8h.html" xlink:title="Seyahat Gideri Takibi &#45; Hata Kodları Enum&#39;u.">
<polygon fill="white" stroke="#666666" points="482,-19 406,-19 406,0 482,0 482,-19"/>
<text text-anchor="middle" x="444" y="-7" font-family="Helvetica,sans-Serif" font-size="10.00">error_codes.h</text>
</a>
</g>
</g>
<!-- Node3&#45;&gt;Node7 -->
<g id="edge54_Node000003_Node000007" class="edge">
<title>Node3&#45;&gt;Node7</title>
<g id="a_edge54_Node000003_Node000007"><a xlink:title=" ">
<path fill="none" stroke="#63b8ff" d="M351.67,-54.98C369.29,-46.5 396.58,-33.35 416.93,-23.54"/>
<polygon fill="#63b8ff" stroke="#63b8ff" points="418.52,-26.66 426.01,-19.17 415.48,-20.36 418.52,-26.66"/>
</a>
</g>
</g>
<!-- Node11&#45;&gt;Node3 -->
<g id="edge59_Node000011_Node000003" class="edge">
<title>Node11&#45;&gt;Node3</title>
<g id="a_edge59_Node000011_Node000003"><a xlink:title=" ">
<path fill="none" stroke="#63b8ff" d="M460.74,-109.98C435.68,-101.19 396.37,-87.39 368.17,-77.49"/>
<polygon fill="#63b8ff" stroke="#63b8ff" points="369.3,-74.18 358.7,-74.17 366.98,-80.78 369.3,-74.18"/>
</a>
</g>
</g>
<!-- Node11&#45;&gt;Node8 -->
<g id="edge60_Node000011_Node000008" class="edge">
<title>Node11&#45;&gt;Node8</title>
<g id="a_edge60_Node000011_Node000008"><a xlink:title=" ">
<path fill="none" stroke="#63b8ff" d="M475.04,-109.98C465.87,-102.15 452.06,-90.34 440.97,-80.86"/>
<polygon fill="#63b8ff" stroke="#63b8ff" points="443.02,-78.01 433.14,-74.17 438.47,-83.33 443.02,-78.01"/>
</a>
</g>
</g>
<!-- Node11&#45;&gt;Node10 -->
<g id="edge61_Node000011_Node000010" class="edge">
<title>Node11&#45;&gt;Node10</title>
<g id="a_edge61_Node000011_Node000010"><a xlink:title=" ">
<path fill="none" stroke="#63b8ff" d="M485.5,-109.75C485.89,-102.8 486.45,-92.85 486.95,-84.13"/>
<polygon fill="#63b8ff" stroke="#63b8ff" points="490.44,-84.27 487.51,-74.09 483.45,-83.88 490.44,-84.27"/>
</a>
</g>
</g>
<!-- Node12&#45;&gt;Node3 -->
<g id="edge63_Node000012_Node000003" class="edge">
<title>Node12&#45;&gt;Node3</title>
<g id="a_edge63_Node000012_Node000003"><a xlink:title=" ">
<path fill="none" stroke="#63b8ff" d="M337.34,-109.75C336.82,-102.8 336.06,-92.85 335.41,-84.13"/>
<polygon fill="#63b8ff" stroke="#63b8ff" points="338.89,-83.8 334.65,-74.09 331.91,-84.32 338.89,-83.8"/>
</a>
</g>
</g>
<!-- Node12&#45;&gt;Node8 -->
<g id="edge64_Node000012_Node000008" class="edge">
<title>Node12&#45;&gt;Node8</title>
<g id="a_edge64_Node000012_Node000008"><a xlink:title=" ">
<path fill="none" stroke="#63b8ff" d="M351.66,-109.98C364.84,-101.77 385.03,-89.18 400.57,-79.49"/>
<polygon fill="#63b8ff" stroke="#63b8ff" points="402.46,-82.43 409.09,-74.17 398.76,-76.49 402.46,-82.43"/>
</a>
</g>
</g>
<!-- Node12&#45;&gt;Node10 -->
<g id="edge65_Node000012_Node000010" class="edge">
<title>Node12&#45;&gt;Node10</title>
<g id="a_edge65_Node000012_Node000010"><a xlink:title=" ">
<path fill="none" stroke="#63b8ff" d="M362.1,-109.98C387.92,-100.86 428.96,-86.36 457.13,-76.41"/>
<polygon fill="#63b8ff" stroke="#63b8ff" points="458.61,-79.6 466.87,-72.97 456.27,-73 458.61,-79.6"/>
</a>
</g>
</g>
<!-- Node13&#45;&gt;Node3 -->
<g id="edge67_Node000013_Node000003" class="edge">
<title>Node13&#45;&gt;Node3</title>
<g id="a_edge67_Node000013_Node000003"><a xlink:title=" ">
<path fill="none" stroke="#63b8ff" d="M207.26,-109.98C232.32,-101.19 271.63,-87.39 299.83,-77.49"/>
<polygon fill="#63b8ff" stroke="#63b8ff" points="301.02,-80.78 309.3,-74.17 298.7,-74.18 301.02,-80.78"/>
</a>
</g>
</g>
<!-- Node13&#45;&gt;Node8 -->
<g id="edge68_Node000013_Node000008" class="edge">
<title>Node13&#45;&gt;Node8</title>
<g id="a_edge68_Node000013_Node000008"><a xlink:title=" ">
<path fill="none" stroke="#63b8ff" d="M223.91,-109.93C263.23,-101.62 324.58,-88.48 386.67,-74.26"/>
<polygon fill="#63b8ff" stroke="#63b8ff" points="387.68,-77.62 396.64,-71.97 386.11,-70.8 387.68,-77.62"/>
</a>
</g>
</g>
<!-- Node14&#45;&gt;Node3 -->
<g id="edge70_Node000014_Node000003" class="edge">
<title>Node14&#45;&gt;Node3</title>
<g id="a_edge70_Node000014_Node000003"><a xlink:title=" ">
<path fill="none" stroke="#63b8ff" d="M94.79,-109.98C145.05,-100.64 225.7,-85.64 279.26,-75.68"/>
<polygon fill="#63b8ff" stroke="#63b8ff" points="280.07,-79.09 289.26,-73.82 278.79,-72.21 280.07,-79.09"/>
</a>
</g>
</g>
</g>
</svg>
