<?xml version="1.0" encoding="UTF-8" standalone="no"?>
<!DOCTYPE svg PUBLIC "-//W3C//DTD SVG 1.1//EN"
 "http://www.w3.org/Graphics/SVG/1.1/DTD/svg11.dtd">
<!-- Generated by graphviz version 6.0.2 (20221011.1828)
 -->
<!-- Title: src/travelexpense/header/safe_string.h Pages: 1 -->
<svg width="1139pt" height="104pt"
 viewBox="0.00 0.00 1139.00 104.00" xmlns="http://www.w3.org/2000/svg" xmlns:xlink="http://www.w3.org/1999/xlink">
<g id="graph0" class="graph" transform="scale(1 1) rotate(0) translate(4 100)">
<title>src/travelexpense/header/safe_string.h</title>
<!-- Node1 -->
<g id="Node000001" class="node">
<title>Node1</title>
<g id="a_Node000001"><a xlink:title="Güvenli string işlemleri için yardımcı fonksiyonlar.">
<polygon fill="#999999" stroke="#666666" points="629,-96 504,-96 504,-66 629,-66 629,-96"/>
<text text-anchor="start" x="512" y="-84" font-family="Helvetica,sans-Serif" font-size="10.00">src/travelexpense/header</text>
<text text-anchor="middle" x="566.5" y="-73" font-family="Helvetica,sans-Serif" font-size="10.00">/safe_string.h</text>
</a>
</g>
</g>
<!-- Node2 -->
<g id="Node000002" class="node">
<title>Node2</title>
<g id="a_Node000002"><a xlink:href="$asset_manager_8cpp.html" xlink:title="Seyahat Gideri Takibi &#45; Varlık Yönetimi Implementation.">
<polygon fill="white" stroke="#666666" points="109,-30 0,-30 0,0 109,0 109,-30"/>
<text text-anchor="start" x="8" y="-18" font-family="Helvetica,sans-Serif" font-size="10.00">src/travelexpense/src</text>
<text text-anchor="middle" x="54.5" y="-7" font-family="Helvetica,sans-Serif" font-size="10.00">/assetManager.cpp</text>
</a>
</g>
</g>
<!-- Node1&#45;&gt;Node2 -->
<g id="edge19_Node000001_Node000002" class="edge">
<title>Node1&#45;&gt;Node2</title>
<g id="a_edge19_Node000001_Node000002"><a xlink:title=" ">
<path fill="none" stroke="#63b8ff" d="M493.74,-74.33C404.66,-66.82 249.36,-51.93 117.5,-30 114.74,-29.54 111.91,-29.04 109.07,-28.5"/>
<polygon fill="#63b8ff" stroke="#63b8ff" points="493.48,-77.82 503.74,-75.16 494.07,-70.84 493.48,-77.82"/>
</a>
</g>
</g>
<!-- Node3 -->
<g id="Node000003" class="node">
<title>Node3</title>
<g id="a_Node000003"><a xlink:href="$encryption_8cpp.html" xlink:title="Seyahat Gideri Takibi &#45; Şifreleme Fonksiyonları Implementation.">
<polygon fill="white" stroke="#666666" points="236,-30 127,-30 127,0 236,0 236,-30"/>
<text text-anchor="start" x="135" y="-18" font-family="Helvetica,sans-Serif" font-size="10.00">src/travelexpense/src</text>
<text text-anchor="middle" x="181.5" y="-7" font-family="Helvetica,sans-Serif" font-size="10.00">/encryption.cpp</text>
</a>
</g>
</g>
<!-- Node1&#45;&gt;Node3 -->
<g id="edge20_Node000001_Node000003" class="edge">
<title>Node1&#45;&gt;Node3</title>
<g id="a_edge20_Node000001_Node000003"><a xlink:title=" ">
<path fill="none" stroke="#63b8ff" d="M493.76,-70.07C428.35,-60.82 329.72,-46.07 244.5,-30 241.75,-29.48 238.93,-28.93 236.09,-28.36"/>
<polygon fill="#63b8ff" stroke="#63b8ff" points="493.57,-73.58 503.96,-71.51 494.55,-66.65 493.57,-73.58"/>
</a>
</g>
</g>
<!-- Node4 -->
<g id="Node000004" class="node">
<title>Node4</title>
<g id="a_Node000004"><a xlink:href="$expense_manager_8cpp.html" xlink:title="Seyahat Gideri Takibi &#45; Gider Yönetimi Implementation.">
<polygon fill="white" stroke="#666666" points="367,-30 254,-30 254,0 367,0 367,-30"/>
<text text-anchor="start" x="262" y="-18" font-family="Helvetica,sans-Serif" font-size="10.00">src/travelexpense/src</text>
<text text-anchor="middle" x="310.5" y="-7" font-family="Helvetica,sans-Serif" font-size="10.00">/expenseManager.cpp</text>
</a>
</g>
</g>
<!-- Node1&#45;&gt;Node4 -->
<g id="edge21_Node000001_Node000004" class="edge">
<title>Node1&#45;&gt;Node4</title>
<g id="a_edge21_Node000001_Node000004"><a xlink:title=" ">
<path fill="none" stroke="#63b8ff" d="M500.57,-63.52C459.05,-53.14 406.03,-39.88 366.55,-30.01"/>
<polygon fill="#63b8ff" stroke="#63b8ff" points="499.77,-66.92 510.32,-65.95 501.47,-60.13 499.77,-66.92"/>
</a>
</g>
</g>
<!-- Node5 -->
<g id="Node000005" class="node">
<title>Node5</title>
<g id="a_Node000005"><a xlink:href="$fingerprinting_8cpp.html" xlink:title="Seyahat Gideri Takibi &#45; Cihaz ve Uygulama Fingerprinting Implementation.">
<polygon fill="white" stroke="#666666" points="494,-30 385,-30 385,0 494,0 494,-30"/>
<text text-anchor="start" x="393" y="-18" font-family="Helvetica,sans-Serif" font-size="10.00">src/travelexpense/src</text>
<text text-anchor="middle" x="439.5" y="-7" font-family="Helvetica,sans-Serif" font-size="10.00">/fingerprinting.cpp</text>
</a>
</g>
</g>
<!-- Node1&#45;&gt;Node5 -->
<g id="edge22_Node000001_Node000005" class="edge">
<title>Node1&#45;&gt;Node5</title>
<g id="a_edge22_Node000001_Node000005"><a xlink:title=" ">
<path fill="none" stroke="#63b8ff" d="M529.55,-61.38C509.67,-51.36 485.57,-39.22 467.31,-30.01"/>
<polygon fill="#63b8ff" stroke="#63b8ff" points="528.12,-64.58 538.63,-65.95 531.27,-58.33 528.12,-64.58"/>
</a>
</g>
</g>
<!-- Node6 -->
<g id="Node000006" class="node">
<title>Node6</title>
<g id="a_Node000006"><a xlink:href="$rasp_8cpp.html" xlink:title="Seyahat Gideri Takibi &#45; RASP (Runtime Application Self&#45;Protection) Fonksiyonları">
<polygon fill="white" stroke="#666666" points="621,-30 512,-30 512,0 621,0 621,-30"/>
<text text-anchor="start" x="520" y="-18" font-family="Helvetica,sans-Serif" font-size="10.00">src/travelexpense/src</text>
<text text-anchor="middle" x="566.5" y="-7" font-family="Helvetica,sans-Serif" font-size="10.00">/rasp.cpp</text>
</a>
</g>
</g>
<!-- Node1&#45;&gt;Node6 -->
<g id="edge23_Node000001_Node000006" class="edge">
<title>Node1&#45;&gt;Node6</title>
<g id="a_edge23_Node000001_Node000006"><a xlink:title=" ">
<path fill="none" stroke="#63b8ff" d="M566.5,-55.54C566.5,-46.96 566.5,-37.61 566.5,-30.16"/>
<polygon fill="#63b8ff" stroke="#63b8ff" points="563,-55.8 566.5,-65.8 570,-55.8 563,-55.8"/>
</a>
</g>
</g>
<!-- Node7 -->
<g id="Node000007" class="node">
<title>Node7</title>
<g id="a_Node000007"><a xlink:href="$session_manager_8cpp.html" xlink:title="Seyahat Gideri Takibi &#45; Oturum Yönetimi ve İletim Güvenliği Implementation.">
<polygon fill="white" stroke="#666666" points="749.5,-30 639.5,-30 639.5,0 749.5,0 749.5,-30"/>
<text text-anchor="start" x="647.5" y="-18" font-family="Helvetica,sans-Serif" font-size="10.00">src/travelexpense/src</text>
<text text-anchor="middle" x="694.5" y="-7" font-family="Helvetica,sans-Serif" font-size="10.00">/sessionManager.cpp</text>
</a>
</g>
</g>
<!-- Node1&#45;&gt;Node7 -->
<g id="edge24_Node000001_Node000007" class="edge">
<title>Node1&#45;&gt;Node7</title>
<g id="a_edge24_Node000001_Node000007"><a xlink:title=" ">
<path fill="none" stroke="#63b8ff" d="M603.74,-61.38C623.77,-51.36 648.07,-39.22 666.48,-30.01"/>
<polygon fill="#63b8ff" stroke="#63b8ff" points="601.97,-58.35 594.59,-65.95 605.1,-64.61 601.97,-58.35"/>
</a>
</g>
</g>
<!-- Node8 -->
<g id="Node000008" class="node">
<title>Node8</title>
<g id="a_Node000008"><a xlink:href="$softhsm_8cpp.html" xlink:title="Seyahat Gideri Takibi &#45; SoftHSM (PKCS#11) Implementation.">
<polygon fill="white" stroke="#666666" points="877,-30 768,-30 768,0 877,0 877,-30"/>
<text text-anchor="start" x="776" y="-18" font-family="Helvetica,sans-Serif" font-size="10.00">src/travelexpense/src</text>
<text text-anchor="middle" x="822.5" y="-7" font-family="Helvetica,sans-Serif" font-size="10.00">/softhsm.cpp</text>
</a>
</g>
</g>
<!-- Node1&#45;&gt;Node8 -->
<g id="edge25_Node000001_Node000008" class="edge">
<title>Node1&#45;&gt;Node8</title>
<g id="a_edge25_Node000001_Node000008"><a xlink:title=" ">
<path fill="none" stroke="#63b8ff" d="M632.53,-63.49C674.5,-53 728.18,-39.58 767.77,-29.68"/>
<polygon fill="#63b8ff" stroke="#63b8ff" points="631.53,-60.13 622.68,-65.95 633.23,-66.92 631.53,-60.13"/>
</a>
</g>
</g>
<!-- Node9 -->
<g id="Node000009" class="node">
<title>Node9</title>
<g id="a_Node000009"><a xlink:href="$tls_8cpp.html" xlink:title="Seyahat Gideri Takibi &#45; SSL/TLS ve Certificate Pinning Implementation.">
<polygon fill="white" stroke="#666666" points="1004,-30 895,-30 895,0 1004,0 1004,-30"/>
<text text-anchor="start" x="903" y="-18" font-family="Helvetica,sans-Serif" font-size="10.00">src/travelexpense/src</text>
<text text-anchor="middle" x="949.5" y="-7" font-family="Helvetica,sans-Serif" font-size="10.00">/tls.cpp</text>
</a>
</g>
</g>
<!-- Node1&#45;&gt;Node9 -->
<g id="edge26_Node000001_Node000009" class="edge">
<title>Node1&#45;&gt;Node9</title>
<g id="a_edge26_Node000001_Node000009"><a xlink:title=" ">
<path fill="none" stroke="#63b8ff" d="M639.39,-69.96C704.4,-60.68 802.06,-45.96 886.5,-30 889.25,-29.48 892.07,-28.93 894.91,-28.35"/>
<polygon fill="#63b8ff" stroke="#63b8ff" points="638.65,-66.53 629.25,-71.4 639.64,-73.46 638.65,-66.53"/>
</a>
</g>
</g>
<!-- Node10 -->
<g id="Node000010" class="node">
<title>Node10</title>
<g id="a_Node000010"><a xlink:href="$trip_manager_8cpp.html" xlink:title="Seyahat Gideri Takibi &#45; Seyahat Yönetimi Implementation.">
<polygon fill="white" stroke="#666666" points="1131,-30 1022,-30 1022,0 1131,0 1131,-30"/>
<text text-anchor="start" x="1030" y="-18" font-family="Helvetica,sans-Serif" font-size="10.00">src/travelexpense/src</text>
<text text-anchor="middle" x="1076.5" y="-7" font-family="Helvetica,sans-Serif" font-size="10.00">/tripManager.cpp</text>
</a>
</g>
</g>
<!-- Node1&#45;&gt;Node10 -->
<g id="edge27_Node000001_Node000010" class="edge">
<title>Node1&#45;&gt;Node10</title>
<g id="a_edge27_Node000001_Node000010"><a xlink:title=" ">
<path fill="none" stroke="#63b8ff" d="M639.58,-74.25C728.37,-66.7 882.54,-51.81 1013.5,-30 1016.26,-29.54 1019.09,-29.04 1021.93,-28.5"/>
<polygon fill="#63b8ff" stroke="#63b8ff" points="639.02,-70.78 629.35,-75.11 639.61,-77.76 639.02,-70.78"/>
</a>
</g>
</g>
</g>
</svg>
