<?xml version="1.0" encoding="UTF-8" standalone="no"?>
<!DOCTYPE svg PUBLIC "-//W3C//DTD SVG 1.1//EN"
 "http://www.w3.org/Graphics/SVG/1.1/DTD/svg11.dtd">
<!-- Generated by graphviz version 6.0.2 (20221011.1828)
 -->
<!-- Title: src/travelexpense/src/softhsm.cpp Pages: 1 -->
<svg width="806pt" height="214pt"
 viewBox="0.00 0.00 805.50 214.00" xmlns="http://www.w3.org/2000/svg" xmlns:xlink="http://www.w3.org/1999/xlink">
<g id="graph0" class="graph" transform="scale(1 1) rotate(0) translate(4 210)">
<title>src/travelexpense/src/softhsm.cpp</title>
<!-- Node1 -->
<g id="Node000001" class="node">
<title>Node1</title>
<g id="a_Node000001"><a xlink:title="Seyahat Gideri Takibi &#45; SoftHSM (PKCS#11) Implementation.">
<polygon fill="#999999" stroke="#666666" points="567.5,-206 458.5,-206 458.5,-176 567.5,-176 567.5,-206"/>
<text text-anchor="start" x="466.5" y="-194" font-family="Helvetica,sans-Serif" font-size="10.00">src/travelexpense/src</text>
<text text-anchor="middle" x="513" y="-183" font-family="Helvetica,sans-Serif" font-size="10.00">/softhsm.cpp</text>
</a>
</g>
</g>
<!-- Node2 -->
<g id="Node000002" class="node">
<title>Node2</title>
<g id="a_Node000002"><a xlink:href="$softhsm_8h.html" xlink:title="Seyahat Gideri Takibi &#45; SoftHSM (PKCS#11) Entegrasyonu.">
<polygon fill="white" stroke="#666666" points="180.5,-134.5 79.5,-134.5 79.5,-115.5 180.5,-115.5 180.5,-134.5"/>
<text text-anchor="middle" x="130" y="-122.5" font-family="Helvetica,sans-Serif" font-size="10.00">../header/softhsm.h</text>
</a>
</g>
</g>
<!-- Node1&#45;&gt;Node2 -->
<g id="edge39_Node000001_Node000002" class="edge">
<title>Node1&#45;&gt;Node2</title>
<g id="a_edge39_Node000001_Node000002"><a xlink:title=" ">
<path fill="none" stroke="#63b8ff" d="M458.31,-182.92C393.71,-174.24 283.12,-158.4 189,-140 184.03,-139.03 178.84,-137.93 173.69,-136.78"/>
<polygon fill="#63b8ff" stroke="#63b8ff" points="174.44,-133.36 163.91,-134.53 172.87,-140.18 174.44,-133.36"/>
</a>
</g>
</g>
<!-- Node6 -->
<g id="Node000006" class="node">
<title>Node6</title>
<g id="a_Node000006"><a xlink:title=" ">
<polygon fill="#e0e0e0" stroke="#999999" points="325,-19 279,-19 279,0 325,0 325,-19"/>
<text text-anchor="middle" x="302" y="-7" font-family="Helvetica,sans-Serif" font-size="10.00">cstring</text>
</a>
</g>
</g>
<!-- Node1&#45;&gt;Node6 -->
<g id="edge52_Node000001_Node000006" class="edge">
<title>Node1&#45;&gt;Node6</title>
<g id="a_edge52_Node000001_Node000006"><a xlink:title=" ">
<path fill="none" stroke="#63b8ff" d="M458.24,-183.54C426,-177.21 386.32,-164.7 359,-140 325.85,-110.03 311.03,-57.25 305.23,-29.22"/>
<polygon fill="#63b8ff" stroke="#63b8ff" points="308.62,-28.34 303.32,-19.17 301.75,-29.65 308.62,-28.34"/>
</a>
</g>
</g>
<!-- Node10 -->
<g id="Node000010" class="node">
<title>Node10</title>
<g id="a_Node000010"><a xlink:href="$safe__string_8h.html" xlink:title="Güvenli string işlemleri için yardımcı fonksiyonlar.">
<polygon fill="white" stroke="#666666" points="311.5,-134.5 198.5,-134.5 198.5,-115.5 311.5,-115.5 311.5,-134.5"/>
<text text-anchor="middle" x="255" y="-122.5" font-family="Helvetica,sans-Serif" font-size="10.00">../header/safe_string.h</text>
</a>
</g>
</g>
<!-- Node1&#45;&gt;Node10 -->
<g id="edge48_Node000001_Node000010" class="edge">
<title>Node1&#45;&gt;Node10</title>
<g id="a_edge48_Node000001_Node000010"><a xlink:title=" ">
<path fill="none" stroke="#63b8ff" d="M458.28,-176.43C410.94,-164.68 343.35,-147.92 299.32,-136.99"/>
<polygon fill="#63b8ff" stroke="#63b8ff" points="300.03,-133.57 289.49,-134.55 298.35,-140.36 300.03,-133.57"/>
</a>
</g>
</g>
<!-- Node11 -->
<g id="Node000011" class="node">
<title>Node11</title>
<g id="a_Node000011"><a xlink:title=" ">
<polygon fill="#e0e0e0" stroke="#999999" points="474,-140 368,-140 368,-110 474,-110 474,-140"/>
<text text-anchor="start" x="376" y="-128" font-family="Helvetica,sans-Serif" font-size="10.00">../third_party/pkcs11</text>
<text text-anchor="middle" x="421" y="-117" font-family="Helvetica,sans-Serif" font-size="10.00">/pkcs11.h</text>
</a>
</g>
</g>
<!-- Node1&#45;&gt;Node11 -->
<g id="edge51_Node000001_Node000011" class="edge">
<title>Node1&#45;&gt;Node11</title>
<g id="a_edge51_Node000001_Node000011"><a xlink:title=" ">
<path fill="none" stroke="#63b8ff" d="M492.58,-175.8C479.96,-167.01 463.56,-155.61 449.65,-145.93"/>
<polygon fill="#63b8ff" stroke="#63b8ff" points="451.57,-143 441.36,-140.16 447.57,-148.75 451.57,-143"/>
</a>
</g>
</g>
<!-- Node12 -->
<g id="Node000012" class="node">
<title>Node12</title>
<g id="a_Node000012"><a xlink:title=" ">
<polygon fill="#e0e0e0" stroke="#999999" points="534,-134.5 492,-134.5 492,-115.5 534,-115.5 534,-134.5"/>
<text text-anchor="middle" x="513" y="-122.5" font-family="Helvetica,sans-Serif" font-size="10.00">vector</text>
</a>
</g>
</g>
<!-- Node1&#45;&gt;Node12 -->
<g id="edge53_Node000001_Node000012" class="edge">
<title>Node1&#45;&gt;Node12</title>
<g id="a_edge53_Node000001_Node000012"><a xlink:title=" ">
<path fill="none" stroke="#63b8ff" d="M513,-175.8C513,-166.7 513,-154.79 513,-144.9"/>
<polygon fill="#63b8ff" stroke="#63b8ff" points="516.5,-144.84 513,-134.84 509.5,-144.84 516.5,-144.84"/>
</a>
</g>
</g>
<!-- Node13 -->
<g id="Node000013" class="node">
<title>Node13</title>
<g id="a_Node000013"><a xlink:title=" ">
<polygon fill="#e0e0e0" stroke="#999999" points="604,-134.5 552,-134.5 552,-115.5 604,-115.5 604,-134.5"/>
<text text-anchor="middle" x="578" y="-122.5" font-family="Helvetica,sans-Serif" font-size="10.00">memory</text>
</a>
</g>
</g>
<!-- Node1&#45;&gt;Node13 -->
<g id="edge54_Node000001_Node000013" class="edge">
<title>Node1&#45;&gt;Node13</title>
<g id="a_edge54_Node000001_Node000013"><a xlink:title=" ">
<path fill="none" stroke="#63b8ff" d="M527.43,-175.8C537.56,-165.82 551.13,-152.46 561.66,-142.09"/>
<polygon fill="#63b8ff" stroke="#63b8ff" points="564.35,-144.35 569.02,-134.84 559.44,-139.37 564.35,-144.35"/>
</a>
</g>
</g>
<!-- Node14 -->
<g id="Node000014" class="node">
<title>Node14</title>
<g id="a_Node000014"><a xlink:title=" ">
<polygon fill="#e0e0e0" stroke="#999999" points="665.5,-134.5 622.5,-134.5 622.5,-115.5 665.5,-115.5 665.5,-134.5"/>
<text text-anchor="middle" x="644" y="-122.5" font-family="Helvetica,sans-Serif" font-size="10.00">cstdio</text>
</a>
</g>
</g>
<!-- Node1&#45;&gt;Node14 -->
<g id="edge55_Node000001_Node000014" class="edge">
<title>Node1&#45;&gt;Node14</title>
<g id="a_edge55_Node000001_Node000014"><a xlink:title=" ">
<path fill="none" stroke="#63b8ff" d="M541.75,-175.95C564.32,-164.93 595.49,-149.7 617.47,-138.96"/>
<polygon fill="#63b8ff" stroke="#63b8ff" points="619.12,-142.05 626.57,-134.52 616.04,-135.76 619.12,-142.05"/>
</a>
</g>
</g>
<!-- Node15 -->
<g id="Node000015" class="node">
<title>Node15</title>
<g id="a_Node000015"><a xlink:title=" ">
<polygon fill="#e0e0e0" stroke="#999999" points="734.5,-134.5 683.5,-134.5 683.5,-115.5 734.5,-115.5 734.5,-134.5"/>
<text text-anchor="middle" x="709" y="-122.5" font-family="Helvetica,sans-Serif" font-size="10.00">unistd.h</text>
</a>
</g>
</g>
<!-- Node1&#45;&gt;Node15 -->
<g id="edge56_Node000001_Node000015" class="edge">
<title>Node1&#45;&gt;Node15</title>
<g id="a_edge56_Node000001_Node000015"><a xlink:title=" ">
<path fill="none" stroke="#63b8ff" d="M562.66,-175.95C594.92,-166.51 637.74,-153.39 675,-140 676.43,-139.49 677.88,-138.95 679.35,-138.39"/>
<polygon fill="#63b8ff" stroke="#63b8ff" points="680.96,-141.52 688.98,-134.6 678.4,-135.01 680.96,-141.52"/>
</a>
</g>
</g>
<!-- Node16 -->
<g id="Node000016" class="node">
<title>Node16</title>
<g id="a_Node000016"><a xlink:title=" ">
<polygon fill="#e0e0e0" stroke="#999999" points="797.5,-134.5 752.5,-134.5 752.5,-115.5 797.5,-115.5 797.5,-134.5"/>
<text text-anchor="middle" x="775" y="-122.5" font-family="Helvetica,sans-Serif" font-size="10.00">dlfcn.h</text>
</a>
</g>
</g>
<!-- Node1&#45;&gt;Node16 -->
<g id="edge57_Node000001_Node000016" class="edge">
<title>Node1&#45;&gt;Node16</title>
<g id="a_edge57_Node000001_Node000016"><a xlink:title=" ">
<path fill="none" stroke="#63b8ff" d="M567.54,-181.54C614.9,-173.41 684.97,-159.48 744,-140 745.44,-139.53 746.9,-139.01 748.36,-138.46"/>
<polygon fill="#63b8ff" stroke="#63b8ff" points="749.98,-141.57 757.88,-134.51 747.3,-135.11 749.98,-141.57"/>
</a>
</g>
</g>
<!-- Node3 -->
<g id="Node000003" class="node">
<title>Node3</title>
<g id="a_Node000003"><a xlink:href="$common_types_8h.html" xlink:title="Seyahat Gideri Takibi &#45; Ortak Veri Tipleri ve Modelleri.">
<polygon fill="white" stroke="#666666" points="137.5,-74 48.5,-74 48.5,-55 137.5,-55 137.5,-74"/>
<text text-anchor="middle" x="93" y="-62" font-family="Helvetica,sans-Serif" font-size="10.00">commonTypes.h</text>
</a>
</g>
</g>
<!-- Node2&#45;&gt;Node3 -->
<g id="edge40_Node000002_Node000003" class="edge">
<title>Node2&#45;&gt;Node3</title>
<g id="a_edge40_Node000002_Node000003"><a xlink:title=" ">
<path fill="none" stroke="#63b8ff" d="M124.54,-115.37C119.13,-106.81 110.69,-93.47 103.9,-82.74"/>
<polygon fill="#63b8ff" stroke="#63b8ff" points="106.79,-80.75 98.48,-74.17 100.87,-84.49 106.79,-80.75"/>
</a>
</g>
</g>
<!-- Node4 -->
<g id="Node000004" class="node">
<title>Node4</title>
<g id="a_Node000004"><a xlink:title=" ">
<polygon fill="#e0e0e0" stroke="#999999" points="46,-19 0,-19 0,0 46,0 46,-19"/>
<text text-anchor="middle" x="23" y="-7" font-family="Helvetica,sans-Serif" font-size="10.00">cstdint</text>
</a>
</g>
</g>
<!-- Node2&#45;&gt;Node4 -->
<g id="edge46_Node000002_Node000004" class="edge">
<title>Node2&#45;&gt;Node4</title>
<g id="a_edge46_Node000002_Node000004"><a xlink:title=" ">
<path fill="none" stroke="#63b8ff" d="M102.1,-115.46C81.68,-107.8 54.87,-94.54 39,-74 29.12,-61.21 25.28,-43.03 23.82,-29.41"/>
<polygon fill="#63b8ff" stroke="#63b8ff" points="27.29,-28.96 23.07,-19.25 20.31,-29.48 27.29,-28.96"/>
</a>
</g>
</g>
<!-- Node8 -->
<g id="Node000008" class="node">
<title>Node8</title>
<g id="a_Node000008"><a xlink:href="$export_8h.html" xlink:title="Seyahat Gideri Takibi &#45; DLL Export/Import Macros.">
<polygon fill="white" stroke="#666666" points="208,-74 156,-74 156,-55 208,-55 208,-74"/>
<text text-anchor="middle" x="182" y="-62" font-family="Helvetica,sans-Serif" font-size="10.00">export.h</text>
</a>
</g>
</g>
<!-- Node2&#45;&gt;Node8 -->
<g id="edge45_Node000002_Node000008" class="edge">
<title>Node2&#45;&gt;Node8</title>
<g id="a_edge45_Node000002_Node000008"><a xlink:title=" ">
<path fill="none" stroke="#63b8ff" d="M137.67,-115.37C145.51,-106.55 157.86,-92.66 167.54,-81.77"/>
<polygon fill="#63b8ff" stroke="#63b8ff" points="170.27,-83.97 174.3,-74.17 165.04,-79.32 170.27,-83.97"/>
</a>
</g>
</g>
<!-- Node9 -->
<g id="Node000009" class="node">
<title>Node9</title>
<g id="a_Node000009"><a xlink:title=" ">
<polygon fill="#e0e0e0" stroke="#999999" points="274,-74 226,-74 226,-55 274,-55 274,-74"/>
<text text-anchor="middle" x="250" y="-62" font-family="Helvetica,sans-Serif" font-size="10.00">cstddef</text>
</a>
</g>
</g>
<!-- Node2&#45;&gt;Node9 -->
<g id="edge47_Node000002_Node000009" class="edge">
<title>Node2&#45;&gt;Node9</title>
<g id="a_edge47_Node000002_Node000009"><a xlink:title=" ">
<path fill="none" stroke="#63b8ff" d="M147.45,-115.49C167.36,-105.79 200.14,-89.81 223.27,-78.53"/>
<polygon fill="#63b8ff" stroke="#63b8ff" points="225.07,-81.54 232.53,-74.02 222.01,-75.25 225.07,-81.54"/>
</a>
</g>
</g>
<!-- Node3&#45;&gt;Node4 -->
<g id="edge41_Node000003_Node000004" class="edge">
<title>Node3&#45;&gt;Node4</title>
<g id="a_edge41_Node000003_Node000004"><a xlink:title=" ">
<path fill="none" stroke="#63b8ff" d="M81.75,-54.98C71.2,-47 55.2,-34.88 42.56,-25.31"/>
<polygon fill="#63b8ff" stroke="#63b8ff" points="44.54,-22.42 34.45,-19.17 40.31,-28 44.54,-22.42"/>
</a>
</g>
</g>
<!-- Node5 -->
<g id="Node000005" class="node">
<title>Node5</title>
<g id="a_Node000005"><a xlink:title=" ">
<polygon fill="#e0e0e0" stroke="#999999" points="108.5,-19 67.5,-19 67.5,0 108.5,0 108.5,-19"/>
<text text-anchor="middle" x="88" y="-7" font-family="Helvetica,sans-Serif" font-size="10.00">ctime</text>
</a>
</g>
</g>
<!-- Node3&#45;&gt;Node5 -->
<g id="edge42_Node000003_Node000005" class="edge">
<title>Node3&#45;&gt;Node5</title>
<g id="a_edge42_Node000003_Node000005"><a xlink:title=" ">
<path fill="none" stroke="#63b8ff" d="M92.17,-54.75C91.52,-47.8 90.58,-37.85 89.76,-29.13"/>
<polygon fill="#63b8ff" stroke="#63b8ff" points="93.23,-28.72 88.81,-19.09 86.27,-29.37 93.23,-28.72"/>
</a>
</g>
</g>
<!-- Node3&#45;&gt;Node6 -->
<g id="edge43_Node000003_Node000006" class="edge">
<title>Node3&#45;&gt;Node6</title>
<g id="a_edge43_Node000003_Node000006"><a xlink:title=" ">
<path fill="none" stroke="#63b8ff" d="M126.58,-54.98C165.77,-45.05 230.16,-28.72 269.07,-18.85"/>
<polygon fill="#63b8ff" stroke="#63b8ff" points="270.02,-22.22 278.86,-16.37 268.3,-15.43 270.02,-22.22"/>
</a>
</g>
</g>
<!-- Node7 -->
<g id="Node000007" class="node">
<title>Node7</title>
<g id="a_Node000007"><a xlink:href="$error__codes_8h.html" xlink:title="Seyahat Gideri Takibi &#45; Hata Kodları Enum&#39;u.">
<polygon fill="white" stroke="#666666" points="203,-19 127,-19 127,0 203,0 203,-19"/>
<text text-anchor="middle" x="165" y="-7" font-family="Helvetica,sans-Serif" font-size="10.00">error_codes.h</text>
</a>
</g>
</g>
<!-- Node3&#45;&gt;Node7 -->
<g id="edge44_Node000003_Node000007" class="edge">
<title>Node3&#45;&gt;Node7</title>
<g id="a_edge44_Node000003_Node000007"><a xlink:title=" ">
<path fill="none" stroke="#63b8ff" d="M104.57,-54.98C115.42,-47 131.88,-34.88 144.88,-25.31"/>
<polygon fill="#63b8ff" stroke="#63b8ff" points="147.24,-27.92 153.22,-19.17 143.09,-22.28 147.24,-27.92"/>
</a>
</g>
</g>
<!-- Node10&#45;&gt;Node6 -->
<g id="edge49_Node000010_Node000006" class="edge">
<title>Node10&#45;&gt;Node6</title>
<g id="a_edge49_Node000010_Node000006"><a xlink:title=" ">
<path fill="none" stroke="#63b8ff" d="M260.56,-115.44C266.7,-105.72 276.56,-89.21 283,-74 289.18,-59.41 294.21,-42.15 297.53,-29.31"/>
<polygon fill="#63b8ff" stroke="#63b8ff" points="301,-29.89 300.01,-19.34 294.2,-28.2 301,-29.89"/>
</a>
</g>
</g>
<!-- Node10&#45;&gt;Node9 -->
<g id="edge50_Node000010_Node000009" class="edge">
<title>Node10&#45;&gt;Node9</title>
<g id="a_edge50_Node000010_Node000009"><a xlink:title=" ">
<path fill="none" stroke="#63b8ff" d="M254.26,-115.37C253.57,-107.25 252.5,-94.81 251.61,-84.39"/>
<polygon fill="#63b8ff" stroke="#63b8ff" points="255.08,-83.83 250.74,-74.17 248.11,-84.43 255.08,-83.83"/>
</a>
</g>
</g>
</g>
</svg>
